<svg id="svg" version="1.1" xmlns="http://www.w3.org/2000/svg" xmlns:xlink="http://www.w3.org/1999/xlink" width="400" height="93.93773894046969" viewBox="0, 0, 400,93.93773894046969"><g id="svgg"><path id="path0" d="M365.333 4.167 C 365.333 4.258,365.127 4.333,364.875 4.332 C 364.047 4.330,361.752 4.725,361.642 4.889 C 361.582 4.977,361.414 5.002,361.267 4.946 C 361.120 4.890,361.000 4.903,361.000 4.975 C 361.000 5.047,360.512 5.202,359.917 5.321 C 359.321 5.439,358.833 5.591,358.833 5.658 C 358.833 5.725,358.421 5.879,357.917 6.000 C 357.412 6.121,357.000 6.277,357.000 6.347 C 357.000 6.417,356.738 6.561,356.417 6.667 C 356.096 6.773,355.833 6.916,355.833 6.987 C 355.833 7.057,355.533 7.204,355.167 7.314 C 354.800 7.423,354.500 7.570,354.500 7.639 C 354.500 7.708,354.162 7.904,353.750 8.074 C 353.337 8.244,353.000 8.438,353.000 8.505 C 353.000 8.572,352.775 8.719,352.500 8.833 C 352.225 8.947,352.000 9.094,352.000 9.159 C 352.000 9.224,351.794 9.382,351.542 9.510 C 351.290 9.639,350.876 9.951,350.624 10.205 C 350.371 10.459,350.100 10.667,350.022 10.667 C 349.944 10.667,349.626 10.928,349.315 11.248 C 349.004 11.568,348.691 11.831,348.620 11.832 C 348.456 11.834,347.052 13.276,346.499 14.011 C 346.270 14.314,345.915 14.712,345.708 14.895 C 345.502 15.077,345.333 15.279,345.333 15.343 C 345.333 15.407,345.033 15.777,344.667 16.167 C 344.300 16.556,344.000 16.980,344.000 17.109 C 344.000 17.238,343.894 17.384,343.765 17.434 C 343.636 17.483,343.433 17.762,343.313 18.054 C 343.094 18.586,342.967 18.782,342.493 19.311 C 342.351 19.469,342.130 19.857,342.001 20.174 C 341.871 20.491,341.677 20.825,341.568 20.917 C 341.459 21.008,341.281 21.365,341.172 21.708 C 341.063 22.052,340.914 22.333,340.840 22.333 C 340.767 22.333,340.621 22.671,340.517 23.083 C 340.414 23.496,340.264 23.833,340.186 23.833 C 340.107 23.833,339.944 24.190,339.823 24.625 C 339.702 25.060,339.511 25.509,339.400 25.622 C 339.288 25.734,339.146 26.128,339.084 26.497 C 339.022 26.865,338.912 27.167,338.839 27.167 C 338.767 27.167,338.608 27.617,338.486 28.167 C 338.364 28.717,338.212 29.167,338.148 29.167 C 338.084 29.167,338.070 29.317,338.118 29.500 C 338.166 29.683,338.126 29.833,338.030 29.833 C 337.933 29.833,337.803 30.171,337.741 30.583 C 337.679 30.996,337.579 31.333,337.517 31.333 C 337.406 31.333,337.093 32.859,336.893 34.375 C 336.835 34.810,336.735 35.167,336.671 35.167 C 336.547 35.167,336.166 38.333,336.166 39.361 C 336.167 39.702,336.075 40.003,335.958 40.042 C 335.796 40.096,335.750 41.620,335.750 46.917 C 335.750 52.213,335.796 53.738,335.958 53.792 C 336.077 53.831,336.167 54.139,336.167 54.508 C 336.167 55.479,336.535 58.571,336.662 58.667 C 336.723 58.712,336.906 59.575,337.068 60.582 C 337.230 61.590,337.422 62.453,337.494 62.499 C 337.567 62.545,337.679 62.902,337.744 63.292 C 337.809 63.681,337.940 64.000,338.034 64.000 C 338.128 64.000,338.166 64.150,338.118 64.333 C 338.070 64.517,338.091 64.667,338.164 64.667 C 338.237 64.667,338.348 64.948,338.412 65.292 C 338.476 65.635,338.629 66.142,338.753 66.417 C 338.877 66.692,339.071 67.235,339.183 67.625 C 339.294 68.015,339.442 68.333,339.510 68.333 C 339.578 68.333,339.723 68.708,339.833 69.167 C 339.943 69.625,340.095 70.000,340.170 70.000 C 340.246 70.000,340.394 70.262,340.500 70.583 C 340.606 70.904,340.770 71.167,340.864 71.167 C 340.958 71.167,340.992 71.279,340.940 71.417 C 340.887 71.554,340.904 71.667,340.979 71.667 C 341.053 71.667,341.212 71.967,341.333 72.333 C 341.454 72.700,341.616 73.000,341.693 73.000 C 341.770 73.000,341.833 73.080,341.833 73.178 C 341.833 73.276,342.058 73.684,342.333 74.083 C 342.608 74.483,342.833 74.882,342.833 74.971 C 342.833 75.059,342.946 75.174,343.083 75.227 C 343.221 75.280,343.333 75.434,343.333 75.570 C 343.333 75.706,343.427 75.877,343.542 75.950 C 343.656 76.023,343.892 76.337,344.065 76.648 C 344.435 77.312,344.540 77.441,345.748 78.727 C 346.253 79.264,346.667 79.752,346.667 79.812 C 346.667 79.987,347.443 80.774,348.117 81.280 C 348.460 81.539,348.968 81.994,349.245 82.292 C 349.521 82.590,349.841 82.833,349.956 82.833 C 350.070 82.833,350.258 82.983,350.372 83.167 C 350.487 83.350,350.656 83.503,350.748 83.507 C 350.841 83.510,351.176 83.735,351.494 84.007 C 351.811 84.278,352.164 84.500,352.277 84.500 C 352.391 84.500,352.543 84.594,352.617 84.708 C 352.690 84.823,353.012 85.060,353.333 85.236 C 354.976 86.136,356.067 86.667,356.272 86.667 C 356.397 86.667,356.500 86.725,356.500 86.797 C 356.500 86.869,356.837 87.027,357.250 87.149 C 357.662 87.270,358.000 87.425,358.000 87.492 C 358.000 87.559,358.431 87.710,358.958 87.827 C 359.485 87.944,359.959 88.107,360.012 88.190 C 360.064 88.272,360.589 88.423,361.178 88.524 C 361.768 88.626,362.327 88.769,362.420 88.843 C 363.398 89.615,381.333 89.610,381.333 88.837 C 381.333 88.773,381.971 88.625,382.750 88.510 C 383.529 88.394,384.167 88.245,384.167 88.180 C 384.167 88.115,384.654 87.964,385.250 87.846 C 385.846 87.727,386.333 87.574,386.333 87.505 C 386.333 87.435,386.783 87.283,387.333 87.167 C 387.883 87.050,388.333 86.893,388.333 86.817 C 388.333 86.741,388.652 86.594,389.042 86.490 C 389.431 86.386,389.938 86.208,390.167 86.094 C 391.982 85.198,392.833 84.734,392.833 84.643 C 392.833 84.584,393.016 84.490,393.238 84.434 C 393.461 84.379,393.742 84.239,393.863 84.125 C 393.984 84.010,394.308 83.804,394.583 83.667 C 394.858 83.530,395.138 83.342,395.206 83.250 C 395.273 83.158,395.329 72.602,395.331 59.792 L 395.333 36.500 381.083 36.500 L 366.833 36.500 366.833 47.320 C 366.833 53.271,366.879 58.258,366.934 58.403 C 367.022 58.632,367.489 58.667,370.434 58.667 L 373.833 58.667 373.833 61.911 C 373.833 65.476,373.826 65.500,372.761 65.500 C 372.526 65.500,372.333 65.575,372.333 65.667 C 372.333 65.767,371.639 65.833,370.583 65.833 C 369.528 65.833,368.833 65.767,368.833 65.667 C 368.833 65.575,368.702 65.500,368.542 65.501 C 368.121 65.502,366.667 64.959,366.667 64.800 C 366.667 64.727,366.573 64.667,366.458 64.667 C 366.344 64.667,365.933 64.377,365.546 64.023 C 365.159 63.669,364.806 63.416,364.763 63.460 C 364.719 63.503,364.635 63.347,364.576 63.112 C 364.517 62.877,364.288 62.566,364.067 62.422 C 363.847 62.277,363.667 62.056,363.667 61.931 C 363.667 61.805,363.568 61.665,363.448 61.619 C 363.328 61.572,363.138 61.227,363.025 60.851 C 362.912 60.474,362.758 60.167,362.682 60.167 C 362.606 60.167,362.449 59.829,362.333 59.417 C 362.218 59.004,362.063 58.667,361.990 58.667 C 361.917 58.667,361.763 58.235,361.647 57.708 C 361.532 57.181,361.378 56.709,361.306 56.659 C 361.234 56.610,361.087 55.972,360.980 55.243 C 360.873 54.513,360.731 53.879,360.664 53.833 C 360.063 53.420,360.070 40.902,360.672 40.500 C 360.740 40.454,360.883 39.857,360.989 39.172 C 361.094 38.488,361.246 37.887,361.325 37.838 C 361.404 37.789,361.523 37.464,361.588 37.116 C 361.653 36.768,361.810 36.380,361.937 36.254 C 362.063 36.127,362.167 35.883,362.167 35.711 C 362.167 35.539,362.383 35.057,362.648 34.640 C 362.913 34.223,363.186 33.702,363.255 33.482 C 363.324 33.263,363.520 32.985,363.691 32.866 C 363.861 32.746,364.000 32.578,364.000 32.492 C 364.000 32.299,366.148 30.167,366.341 30.167 C 366.418 30.167,366.579 30.028,366.699 29.859 C 366.819 29.690,367.198 29.459,367.542 29.346 C 367.885 29.233,368.167 29.082,368.167 29.010 C 368.167 28.760,370.066 28.500,371.889 28.500 C 373.751 28.500,375.833 28.762,375.833 28.996 C 375.833 29.067,376.076 29.174,376.372 29.233 C 376.669 29.292,377.192 29.526,377.535 29.754 C 377.879 29.981,378.228 30.167,378.312 30.167 C 378.396 30.167,378.508 30.279,378.560 30.417 C 378.613 30.554,378.739 30.667,378.841 30.667 C 378.942 30.667,379.516 31.154,380.114 31.750 C 381.452 33.081,381.652 33.113,382.167 32.083 C 382.304 31.808,382.548 31.485,382.708 31.366 C 382.869 31.246,383.000 31.046,383.000 30.921 C 383.000 30.796,383.056 30.669,383.125 30.639 C 383.298 30.562,384.333 29.061,384.333 28.888 C 384.333 28.810,384.483 28.653,384.667 28.539 C 384.850 28.424,385.000 28.219,385.000 28.082 C 385.000 27.945,385.071 27.833,385.159 27.833 C 385.246 27.833,385.448 27.552,385.608 27.208 C 385.768 26.865,385.996 26.523,386.116 26.450 C 386.236 26.377,386.333 26.233,386.333 26.131 C 386.333 26.028,386.442 25.826,386.576 25.681 C 387.248 24.948,387.437 24.700,387.667 24.250 C 387.804 23.981,388.048 23.608,388.208 23.422 C 388.858 22.668,388.940 22.548,389.152 22.035 C 389.274 21.741,389.442 21.500,389.524 21.500 C 389.607 21.500,389.746 21.313,389.833 21.083 C 389.920 20.854,390.064 20.667,390.151 20.667 C 390.239 20.667,390.356 20.526,390.410 20.354 C 390.465 20.182,390.695 19.825,390.921 19.562 C 391.148 19.299,391.333 18.990,391.333 18.875 C 391.333 18.760,391.405 18.667,391.492 18.667 C 391.580 18.667,391.776 18.404,391.928 18.083 C 392.080 17.763,392.259 17.500,392.326 17.500 C 392.392 17.500,392.533 17.310,392.639 17.077 C 392.826 16.667,392.975 16.456,393.500 15.858 C 393.637 15.701,393.856 15.369,393.986 15.120 C 394.117 14.871,394.277 14.667,394.343 14.667 C 395.089 14.667,394.601 13.717,393.133 12.312 C 391.052 10.320,390.961 10.240,390.625 10.117 C 390.465 10.059,390.333 9.938,390.333 9.850 C 390.333 9.761,390.184 9.642,390.001 9.584 C 389.818 9.526,389.574 9.389,389.459 9.281 C 389.147 8.986,387.501 8.000,387.322 8.000 C 387.237 8.000,387.167 7.921,387.167 7.823 C 387.167 7.726,387.092 7.693,387.000 7.750 C 386.908 7.807,386.833 7.782,386.833 7.695 C 386.833 7.607,386.630 7.485,386.380 7.422 C 386.131 7.360,385.543 7.127,385.073 6.904 C 384.602 6.682,384.094 6.500,383.942 6.500 C 383.791 6.500,383.667 6.432,383.667 6.348 C 383.667 6.264,383.379 6.147,383.027 6.088 C 382.675 6.028,382.185 5.875,381.939 5.748 C 381.693 5.620,380.837 5.387,380.037 5.230 C 379.238 5.073,378.545 4.888,378.498 4.818 C 378.451 4.748,377.494 4.595,376.373 4.477 C 375.251 4.359,374.333 4.203,374.333 4.131 C 374.333 4.059,372.308 4.000,369.833 4.000 C 366.944 4.000,365.333 4.060,365.333 4.167 M5.000 46.583 L 5.000 87.836 16.208 87.793 L 27.417 87.750 27.507 69.417 C 27.598 51.109,27.663 49.167,28.178 49.167 C 28.251 49.167,28.362 48.998,28.424 48.792 C 28.563 48.332,29.321 47.500,29.601 47.500 C 29.713 47.500,29.837 47.406,29.875 47.292 C 29.923 47.149,30.354 47.083,31.250 47.083 C 32.146 47.083,32.577 47.149,32.625 47.292 C 32.663 47.406,32.803 47.500,32.935 47.500 C 33.067 47.500,33.246 47.688,33.333 47.917 C 33.420 48.146,33.563 48.333,33.649 48.333 C 33.851 48.333,34.333 50.441,34.333 51.325 C 34.333 51.696,34.408 52.000,34.500 52.000 C 34.610 52.000,34.667 58.083,34.667 69.917 L 34.667 87.833 45.917 87.833 L 57.167 87.833 57.167 68.417 C 57.167 55.583,57.110 49.000,57.000 49.000 C 56.902 49.000,56.833 48.402,56.832 47.542 C 56.831 45.467,56.363 40.427,56.166 40.361 C 56.075 40.331,56.000 40.120,56.000 39.893 C 56.000 39.401,55.668 37.985,55.498 37.750 C 55.431 37.658,55.285 37.190,55.172 36.708 C 55.059 36.227,54.902 35.833,54.823 35.833 C 54.744 35.833,54.596 35.525,54.495 35.147 C 54.393 34.770,54.165 34.306,53.988 34.116 C 53.811 33.926,53.667 33.672,53.667 33.552 C 53.667 33.432,53.600 33.333,53.519 33.333 C 53.438 33.333,53.328 33.202,53.274 33.042 C 52.916 31.975,49.533 28.789,48.375 28.428 C 48.169 28.364,48.000 28.253,48.000 28.182 C 48.000 28.111,47.569 27.952,47.042 27.828 C 46.515 27.704,46.045 27.549,45.999 27.483 C 45.571 26.872,36.570 26.879,36.168 27.490 C 36.121 27.561,35.690 27.712,35.208 27.826 C 34.727 27.940,34.333 28.096,34.333 28.172 C 34.333 28.248,34.165 28.363,33.958 28.426 C 33.408 28.595,32.033 29.508,31.931 29.772 C 31.883 29.897,31.754 30.000,31.643 30.000 C 31.434 30.000,29.985 31.464,29.427 32.239 C 29.249 32.486,28.970 32.842,28.807 33.030 C 28.644 33.219,28.465 33.514,28.410 33.686 C 28.356 33.859,28.247 34.000,28.168 34.000 C 28.090 34.000,27.926 34.281,27.805 34.625 C 27.617 35.156,27.571 33.006,27.500 20.333 L 27.417 5.417 16.208 5.374 L 5.000 5.331 5.000 46.583 M124.111 5.611 C 124.050 5.672,124.000 24.197,124.000 46.778 L 124.000 87.833 135.583 87.833 L 147.167 87.833 147.167 46.667 L 147.167 5.500 135.694 5.500 C 129.385 5.500,124.172 5.550,124.111 5.611 M158.333 46.917 L 158.333 87.667 174.167 87.667 C 184.611 87.667,190.000 87.610,190.000 87.500 C 190.000 87.408,190.304 87.333,190.676 87.333 C 191.777 87.333,194.500 86.958,194.500 86.807 C 194.500 86.730,194.679 86.667,194.899 86.667 C 195.519 86.667,197.860 86.169,198.417 85.919 C 198.692 85.795,199.198 85.642,199.542 85.579 C 199.885 85.515,200.167 85.405,200.167 85.335 C 200.167 85.264,200.504 85.121,200.917 85.017 C 201.329 84.914,201.667 84.762,201.667 84.680 C 201.667 84.598,202.042 84.435,202.500 84.317 C 202.958 84.200,203.333 84.052,203.333 83.989 C 203.333 83.925,203.558 83.781,203.833 83.667 C 204.108 83.553,204.334 83.412,204.335 83.355 C 204.336 83.297,204.673 83.102,205.085 82.921 C 205.497 82.740,205.833 82.548,205.833 82.494 C 205.833 82.440,206.093 82.294,206.410 82.169 C 206.727 82.045,207.024 81.844,207.071 81.722 C 207.118 81.600,207.268 81.500,207.406 81.500 C 207.543 81.500,207.735 81.350,207.833 81.167 C 207.931 80.983,208.118 80.833,208.248 80.833 C 208.377 80.833,208.543 80.735,208.617 80.615 C 208.690 80.495,209.089 80.139,209.503 79.824 C 209.917 79.508,210.667 78.808,211.170 78.267 C 211.672 77.727,212.363 76.986,212.704 76.620 C 213.046 76.255,213.369 75.815,213.424 75.644 C 213.478 75.473,213.594 75.333,213.682 75.333 C 213.770 75.333,213.913 75.146,214.000 74.917 C 214.087 74.687,214.224 74.500,214.304 74.500 C 214.384 74.500,214.590 74.181,214.762 73.792 C 214.933 73.402,215.164 73.027,215.274 72.957 C 215.384 72.888,215.523 72.607,215.584 72.332 C 215.644 72.058,215.753 71.833,215.826 71.833 C 215.900 71.833,216.053 71.608,216.167 71.333 C 216.281 71.058,216.431 70.833,216.500 70.833 C 216.570 70.833,216.712 70.496,216.816 70.083 C 216.920 69.671,217.069 69.333,217.148 69.333 C 217.227 69.333,217.432 68.846,217.602 68.250 C 217.773 67.654,217.964 67.167,218.028 67.167 C 218.091 67.167,218.235 66.754,218.348 66.250 C 218.461 65.746,218.604 65.333,218.666 65.333 C 218.729 65.333,218.879 64.808,219.000 64.167 C 219.121 63.525,219.272 63.000,219.336 63.000 C 219.400 63.000,219.548 62.306,219.667 61.458 C 219.785 60.610,219.945 59.835,220.023 59.735 C 220.100 59.634,220.247 58.772,220.349 57.818 C 220.451 56.864,220.601 55.933,220.682 55.750 C 221.253 54.453,221.250 38.060,220.678 37.667 C 220.611 37.621,220.460 36.702,220.342 35.625 C 220.224 34.548,220.071 33.667,220.004 33.667 C 219.936 33.667,219.788 32.992,219.676 32.167 C 219.563 31.342,219.414 30.667,219.345 30.667 C 219.277 30.667,219.121 30.142,219.000 29.500 C 218.879 28.858,218.729 28.333,218.667 28.333 C 218.604 28.333,218.454 27.921,218.333 27.417 C 218.212 26.912,218.067 26.500,218.010 26.500 C 217.953 26.500,217.802 26.144,217.674 25.708 C 217.546 25.273,217.267 24.568,217.054 24.142 C 216.841 23.717,216.667 23.285,216.667 23.184 C 216.667 23.083,216.595 23.000,216.507 23.000 C 216.419 23.000,216.257 22.700,216.147 22.333 C 216.037 21.967,215.893 21.667,215.827 21.667 C 215.761 21.667,215.614 21.442,215.500 21.167 C 215.386 20.892,215.245 20.667,215.187 20.667 C 215.129 20.667,214.975 20.423,214.844 20.125 C 214.714 19.827,214.471 19.485,214.304 19.366 C 214.137 19.246,214.000 19.037,214.000 18.902 C 214.000 18.767,213.887 18.613,213.750 18.560 C 213.612 18.508,213.500 18.366,213.500 18.246 C 213.500 18.126,213.275 17.816,213.000 17.556 C 212.725 17.297,212.500 17.034,212.500 16.972 C 212.500 16.811,209.500 13.833,209.337 13.833 C 209.263 13.833,209.025 13.647,208.809 13.420 C 208.593 13.192,208.326 13.004,208.214 13.003 C 208.103 13.001,207.931 12.850,207.833 12.667 C 207.735 12.483,207.549 12.333,207.419 12.333 C 207.289 12.333,207.123 12.239,207.050 12.125 C 206.977 12.010,206.692 11.804,206.417 11.667 C 206.142 11.529,205.864 11.337,205.800 11.238 C 205.736 11.139,205.379 10.959,205.008 10.836 C 204.637 10.714,204.333 10.559,204.333 10.494 C 204.333 10.428,204.108 10.281,203.833 10.167 C 203.558 10.053,203.333 9.908,203.333 9.845 C 203.333 9.781,202.958 9.634,202.500 9.516 C 202.042 9.399,201.667 9.236,201.667 9.154 C 201.667 9.072,201.329 8.920,200.917 8.816 C 200.504 8.712,200.167 8.569,200.167 8.499 C 200.167 8.428,199.896 8.320,199.566 8.258 C 199.235 8.196,198.766 8.063,198.524 7.963 C 198.282 7.863,197.942 7.799,197.769 7.822 C 197.596 7.844,197.408 7.788,197.352 7.698 C 197.296 7.608,196.650 7.437,195.917 7.316 C 195.183 7.196,194.541 7.038,194.489 6.965 C 194.438 6.891,193.407 6.741,192.198 6.632 C 190.989 6.522,190.000 6.373,190.000 6.300 C 190.000 6.227,182.875 6.167,174.167 6.167 L 158.333 6.167 158.333 46.917 M229.500 47.000 L 229.500 87.833 242.250 87.833 L 255.000 87.833 255.000 47.000 L 255.000 6.167 242.250 6.167 L 229.500 6.167 229.500 47.000 M266.667 47.000 L 266.667 87.833 277.917 87.833 L 289.167 87.833 289.167 84.750 C 289.167 83.054,289.106 81.667,289.033 81.667 C 288.959 81.667,288.807 76.173,288.695 69.458 C 288.583 62.744,288.458 55.600,288.416 53.583 C 288.356 50.686,288.379 50.057,288.527 50.583 C 288.630 50.950,288.790 51.299,288.882 51.358 C 288.973 51.418,289.002 51.586,288.946 51.733 C 288.890 51.880,288.905 52.000,288.979 52.000 C 289.053 52.000,289.206 52.411,289.318 52.914 C 289.431 53.416,289.582 53.864,289.654 53.909 C 289.727 53.954,289.882 54.442,289.999 54.995 C 290.116 55.548,290.265 56.000,290.330 56.000 C 290.394 56.000,290.542 56.426,290.659 56.947 C 290.776 57.468,290.968 57.992,291.087 58.111 C 291.206 58.230,291.354 58.628,291.416 58.997 C 291.478 59.365,291.585 59.667,291.654 59.667 C 291.723 59.667,291.916 60.267,292.083 61.000 C 292.251 61.733,292.440 62.333,292.504 62.333 C 292.569 62.333,292.717 62.783,292.833 63.333 C 292.950 63.883,293.098 64.333,293.163 64.333 C 293.227 64.333,293.379 64.746,293.500 65.250 C 293.621 65.754,293.773 66.167,293.837 66.167 C 293.902 66.167,294.050 66.617,294.167 67.167 C 294.283 67.717,294.430 68.167,294.492 68.167 C 294.555 68.167,294.738 68.729,294.900 69.415 C 295.062 70.102,295.253 70.700,295.323 70.744 C 295.394 70.788,295.548 71.276,295.666 71.828 C 295.783 72.381,295.930 72.833,295.993 72.833 C 296.055 72.833,296.209 73.208,296.333 73.667 C 296.458 74.125,296.611 74.500,296.674 74.500 C 296.737 74.500,296.883 74.950,297.000 75.500 C 297.117 76.050,297.267 76.500,297.333 76.500 C 297.400 76.500,297.550 76.950,297.667 77.500 C 297.783 78.050,297.932 78.500,297.996 78.500 C 298.061 78.500,298.202 78.894,298.310 79.376 C 298.417 79.858,298.611 80.455,298.739 80.702 C 298.868 80.950,299.066 81.568,299.180 82.076 C 299.293 82.584,299.439 83.000,299.504 83.000 C 299.568 83.000,299.717 83.450,299.833 84.000 C 299.950 84.550,300.100 85.000,300.167 85.000 C 300.233 85.000,300.383 85.450,300.500 86.000 C 300.617 86.550,300.772 87.000,300.845 87.000 C 300.917 87.000,301.001 87.169,301.030 87.375 L 301.083 87.750 314.208 87.793 L 327.333 87.835 327.333 47.001 L 327.333 6.167 316.446 6.167 L 305.560 6.167 305.634 13.875 C 305.675 18.115,305.764 21.621,305.832 21.667 C 305.900 21.712,305.997 27.000,306.047 33.417 C 306.097 39.833,306.102 44.915,306.058 44.708 C 306.013 44.502,305.912 44.333,305.834 44.333 C 305.755 44.333,305.598 43.921,305.485 43.417 C 305.373 42.912,305.229 42.500,305.166 42.500 C 305.103 42.500,304.918 41.862,304.755 41.083 C 304.591 40.304,304.402 39.667,304.335 39.667 C 304.267 39.667,304.117 39.217,304.000 38.667 C 303.883 38.117,303.733 37.667,303.667 37.667 C 303.600 37.667,303.450 37.217,303.333 36.667 C 303.217 36.117,303.070 35.667,303.008 35.667 C 302.945 35.667,302.798 35.179,302.679 34.583 C 302.561 33.987,302.411 33.500,302.346 33.500 C 302.281 33.500,302.095 32.938,301.933 32.251 C 301.771 31.564,301.583 30.968,301.515 30.926 C 301.446 30.883,301.290 30.414,301.167 29.883 C 301.044 29.351,300.890 28.842,300.824 28.750 C 300.758 28.658,300.608 28.152,300.492 27.625 C 300.376 27.098,300.223 26.667,300.152 26.667 C 300.082 26.667,299.932 26.254,299.819 25.750 C 299.706 25.246,299.561 24.833,299.496 24.833 C 299.432 24.833,299.283 24.383,299.167 23.833 C 299.050 23.283,298.907 22.833,298.848 22.833 C 298.790 22.833,298.602 22.196,298.431 21.417 C 298.260 20.637,298.066 20.000,298.000 20.000 C 297.933 20.000,297.783 19.550,297.667 19.000 C 297.550 18.450,297.402 18.000,297.337 18.000 C 297.273 18.000,297.124 17.569,297.008 17.042 C 296.892 16.515,296.738 16.008,296.667 15.917 C 296.595 15.825,296.442 15.319,296.325 14.792 C 296.209 14.265,296.061 13.833,295.996 13.833 C 295.932 13.833,295.783 13.383,295.667 12.833 C 295.550 12.283,295.405 11.833,295.345 11.833 C 295.221 11.833,294.834 10.479,294.832 10.039 C 294.832 9.880,294.729 9.553,294.603 9.313 C 294.478 9.072,294.276 8.491,294.156 8.021 C 294.036 7.551,293.886 7.167,293.823 7.167 C 293.760 7.167,293.663 6.942,293.608 6.667 L 293.508 6.167 280.087 6.167 L 266.667 6.167 266.667 47.000 M190.056 16.690 C 190.575 16.794,191.000 16.941,191.000 17.015 C 191.000 17.090,191.264 17.201,191.586 17.261 C 191.908 17.322,192.227 17.457,192.294 17.561 C 192.361 17.665,192.635 17.863,192.902 18.000 C 193.316 18.213,194.687 19.493,195.258 20.200 C 195.546 20.556,196.500 22.536,196.500 22.777 C 196.500 22.960,195.012 23.000,188.106 23.000 L 179.713 23.000 179.793 22.583 C 179.836 22.354,179.923 22.167,179.986 22.167 C 180.049 22.167,180.200 21.885,180.322 21.542 C 180.445 21.198,180.685 20.718,180.856 20.474 C 181.027 20.231,181.167 19.990,181.167 19.939 C 181.167 19.781,182.573 18.509,182.752 18.504 C 182.844 18.502,183.013 18.350,183.128 18.167 C 183.242 17.983,183.442 17.833,183.571 17.833 C 183.700 17.833,183.831 17.777,183.861 17.708 C 184.239 16.857,187.896 16.256,190.056 16.690 M211.044 25.587 C 211.913 26.073,211.995 26.282,211.998 28.033 L 212.000 29.316 210.583 30.717 C 209.804 31.487,209.167 32.199,209.167 32.299 C 209.167 32.399,209.028 32.579,208.858 32.699 C 208.689 32.819,208.449 33.198,208.325 33.542 C 208.201 33.885,208.052 34.167,207.993 34.167 C 207.935 34.167,207.788 34.467,207.667 34.833 C 207.546 35.200,207.394 35.500,207.329 35.500 C 207.265 35.500,207.117 35.950,207.000 36.500 C 206.883 37.050,206.731 37.500,206.661 37.500 C 206.592 37.500,206.446 38.156,206.338 38.958 C 206.229 39.760,206.060 40.565,205.962 40.746 C 205.852 40.948,205.733 43.414,205.651 47.162 C 205.520 53.135,205.399 55.167,205.174 55.167 C 205.112 55.167,204.964 55.654,204.846 56.250 C 204.727 56.846,204.580 57.333,204.518 57.333 C 204.457 57.333,204.307 57.668,204.187 58.077 C 204.066 58.485,203.867 58.903,203.744 59.005 C 203.622 59.106,203.473 59.410,203.414 59.678 C 203.355 59.947,203.236 60.167,203.149 60.167 C 203.063 60.167,202.920 60.354,202.833 60.583 C 202.746 60.813,202.598 61.000,202.504 61.000 C 202.410 61.000,202.333 61.081,202.333 61.180 C 202.333 61.518,199.188 65.000,198.884 65.000 C 198.836 65.000,198.525 65.213,198.191 65.472 C 197.571 65.954,197.015 66.241,196.792 66.193 C 196.723 66.179,196.667 66.246,196.667 66.342 C 196.667 66.438,196.442 66.596,196.167 66.692 C 195.892 66.788,195.667 66.925,195.667 66.997 C 195.667 67.069,195.511 67.168,195.321 67.218 C 195.131 67.268,194.935 67.464,194.885 67.654 C 194.835 67.844,194.728 68.000,194.647 68.000 C 194.566 68.000,194.500 68.942,194.500 70.093 C 194.500 72.084,194.278 73.667,193.998 73.667 C 193.927 73.667,193.826 73.835,193.772 74.042 C 193.649 74.513,192.057 76.167,191.406 76.500 C 191.137 76.637,190.879 76.794,190.833 76.848 C 190.255 77.529,186.086 77.443,185.377 76.735 C 185.248 76.606,185.032 76.500,184.898 76.500 C 184.763 76.500,184.243 76.100,183.742 75.612 C 183.242 75.123,182.802 74.753,182.765 74.790 C 182.729 74.827,182.648 74.628,182.586 74.347 C 182.525 74.067,182.405 73.794,182.321 73.742 C 182.236 73.690,182.167 73.508,182.167 73.337 C 182.167 73.167,182.073 72.997,181.958 72.958 C 181.805 72.907,181.746 72.244,181.736 70.457 L 181.722 68.026 181.236 67.452 C 180.969 67.136,180.469 66.790,180.125 66.682 C 179.781 66.575,179.500 66.429,179.500 66.358 C 179.500 66.287,179.241 66.127,178.924 66.003 C 178.607 65.878,178.309 65.677,178.262 65.555 C 178.215 65.433,178.067 65.333,177.931 65.333 C 177.796 65.333,177.588 65.195,177.468 65.026 C 177.348 64.858,177.083 64.631,176.879 64.523 C 176.367 64.251,174.967 62.824,174.680 62.281 C 174.550 62.035,174.379 61.833,174.301 61.833 C 174.223 61.833,174.087 61.646,174.000 61.417 C 173.913 61.188,173.779 61.000,173.702 61.000 C 173.625 61.000,173.459 60.737,173.333 60.417 C 173.207 60.096,173.054 59.833,172.992 59.833 C 172.929 59.833,172.744 59.477,172.580 59.042 C 172.415 58.606,172.233 58.212,172.174 58.167 C 172.115 58.121,171.969 57.746,171.848 57.333 C 171.728 56.921,171.562 56.540,171.478 56.488 C 171.395 56.436,171.240 55.746,171.134 54.955 C 171.028 54.164,170.880 53.555,170.804 53.601 C 170.729 53.648,170.666 51.938,170.666 49.802 C 170.665 45.663,170.403 40.484,170.186 40.338 C 170.114 40.290,169.963 39.576,169.849 38.753 C 169.736 37.929,169.583 37.217,169.508 37.169 C 169.434 37.122,169.276 36.644,169.156 36.106 C 169.036 35.569,168.855 35.044,168.754 34.940 C 168.652 34.835,168.464 34.487,168.336 34.167 C 168.208 33.846,168.011 33.527,167.898 33.457 C 167.785 33.388,167.642 33.101,167.580 32.820 C 167.519 32.539,167.432 32.346,167.388 32.390 C 167.318 32.460,166.884 32.044,166.208 31.257 C 166.094 31.123,166.000 30.936,166.000 30.840 C 166.000 30.745,165.910 30.667,165.800 30.667 C 165.690 30.667,165.277 30.325,164.883 29.908 C 163.678 28.633,164.073 25.500,165.438 25.500 C 165.564 25.500,165.667 25.425,165.667 25.333 C 165.667 25.223,173.215 25.167,187.979 25.167 L 210.291 25.167 211.044 25.587 M86.003 27.281 C 85.592 27.322,85.217 27.410,85.169 27.476 C 85.122 27.542,84.524 27.689,83.840 27.803 C 83.156 27.918,82.556 28.067,82.506 28.136 C 82.457 28.205,82.004 28.363,81.500 28.487 C 80.636 28.700,80.094 28.924,78.917 29.557 C 78.642 29.705,78.210 29.910,77.958 30.013 C 77.706 30.115,77.500 30.253,77.500 30.319 C 77.500 30.384,77.237 30.541,76.917 30.667 C 76.596 30.793,76.333 30.958,76.333 31.035 C 76.333 31.112,76.146 31.246,75.917 31.333 C 75.688 31.420,75.500 31.569,75.500 31.663 C 75.500 31.756,75.392 31.833,75.259 31.833 C 75.127 31.833,74.902 32.000,74.759 32.204 C 74.617 32.407,74.498 32.501,74.495 32.412 C 74.492 32.323,74.413 32.381,74.320 32.542 C 74.227 32.702,74.078 32.833,73.989 32.833 C 73.683 32.833,70.500 36.283,70.500 36.615 C 70.500 36.728,70.350 36.902,70.167 37.000 C 69.983 37.098,69.833 37.288,69.833 37.423 C 69.833 37.557,69.762 37.667,69.674 37.667 C 69.587 37.667,69.384 37.948,69.222 38.292 C 69.061 38.635,68.838 39.011,68.726 39.126 C 68.614 39.241,68.474 39.485,68.416 39.668 C 68.358 39.850,68.253 40.000,68.182 40.000 C 68.111 40.000,67.963 40.300,67.853 40.667 C 67.743 41.033,67.590 41.333,67.512 41.333 C 67.434 41.333,67.270 41.671,67.149 42.083 C 67.027 42.496,66.861 42.833,66.779 42.833 C 66.698 42.833,66.674 42.946,66.727 43.083 C 66.780 43.221,66.760 43.333,66.684 43.333 C 66.608 43.333,66.450 43.783,66.333 44.333 C 66.217 44.883,66.067 45.333,66.000 45.333 C 65.933 45.333,65.781 45.802,65.661 46.375 C 65.542 46.948,65.389 47.454,65.323 47.500 C 65.256 47.546,65.103 48.183,64.983 48.917 C 64.863 49.650,64.713 50.288,64.650 50.333 C 64.502 50.441,64.167 54.129,64.167 55.654 C 64.167 56.329,64.095 56.833,64.000 56.833 C 63.901 56.833,63.833 57.469,63.833 58.407 C 63.833 59.276,63.908 60.026,64.000 60.083 C 64.092 60.140,64.167 60.816,64.167 61.587 C 64.167 63.211,64.477 66.340,64.662 66.583 C 64.732 66.675,64.883 67.369,64.998 68.125 C 65.113 68.881,65.259 69.500,65.323 69.500 C 65.387 69.500,65.536 69.987,65.654 70.583 C 65.773 71.179,65.926 71.667,65.995 71.667 C 66.065 71.667,66.217 72.117,66.333 72.667 C 66.450 73.217,66.610 73.667,66.689 73.667 C 66.769 73.667,66.821 73.723,66.807 73.792 C 66.763 73.998,67.935 76.642,68.155 76.833 C 68.207 76.879,68.363 77.142,68.500 77.417 C 68.637 77.692,68.791 77.954,68.842 78.000 C 68.893 78.046,69.065 78.365,69.225 78.708 C 69.385 79.052,69.587 79.333,69.674 79.333 C 69.762 79.333,69.833 79.445,69.833 79.582 C 69.833 79.719,69.983 79.924,70.167 80.039 C 70.350 80.153,70.500 80.337,70.500 80.447 C 70.500 80.558,70.638 80.746,70.807 80.866 C 70.976 80.985,71.198 81.242,71.301 81.436 C 71.518 81.846,73.842 84.150,74.283 84.392 C 74.448 84.483,74.681 84.695,74.801 84.862 C 74.921 85.030,75.127 85.167,75.259 85.167 C 75.392 85.167,75.500 85.244,75.500 85.337 C 75.500 85.431,75.688 85.580,75.917 85.667 C 76.146 85.754,76.333 85.887,76.333 85.962 C 76.333 86.037,76.671 86.238,77.083 86.408 C 77.496 86.578,77.833 86.767,77.833 86.827 C 77.833 86.888,78.096 87.041,78.417 87.167 C 78.737 87.293,79.000 87.457,79.000 87.531 C 79.000 87.606,79.110 87.667,79.245 87.667 C 79.380 87.667,79.904 87.856,80.409 88.087 C 80.914 88.318,81.573 88.555,81.872 88.613 C 82.172 88.671,82.457 88.779,82.505 88.852 C 82.613 89.013,85.318 89.500,86.105 89.500 C 86.414 89.500,86.667 89.575,86.667 89.667 C 86.667 89.773,88.000 89.833,90.333 89.833 C 92.667 89.833,94.000 89.773,94.000 89.667 C 94.000 89.575,94.249 89.500,94.554 89.500 C 95.318 89.500,98.231 88.990,98.333 88.839 C 98.379 88.771,98.810 88.622,99.292 88.508 C 99.773 88.393,100.167 88.249,100.167 88.186 C 100.167 88.124,100.504 87.973,100.917 87.851 C 101.329 87.730,101.667 87.575,101.667 87.508 C 101.667 87.441,101.963 87.289,102.325 87.170 C 102.687 87.050,103.019 86.858,103.063 86.742 C 103.108 86.626,103.374 86.481,103.655 86.419 C 103.937 86.357,104.167 86.240,104.167 86.158 C 104.167 86.076,104.410 85.884,104.708 85.731 C 105.006 85.578,105.457 85.239,105.710 84.977 C 105.963 84.715,106.230 84.500,106.303 84.500 C 106.478 84.500,109.500 81.478,109.500 81.303 C 109.500 81.230,109.715 80.963,109.977 80.710 C 110.239 80.457,110.578 80.006,110.731 79.708 C 110.884 79.410,111.063 79.167,111.130 79.167 C 111.197 79.167,111.358 78.923,111.488 78.625 C 111.617 78.327,111.767 78.046,111.820 78.000 C 111.997 77.847,112.519 76.924,112.787 76.292 C 112.932 75.948,113.108 75.667,113.179 75.667 C 113.249 75.667,113.359 75.423,113.423 75.125 C 113.486 74.827,113.640 74.396,113.763 74.167 C 114.039 73.655,114.500 72.243,114.500 71.911 C 114.500 71.777,114.567 71.667,114.649 71.667 C 114.730 71.667,114.894 71.179,115.012 70.583 C 115.131 69.987,115.281 69.500,115.347 69.500 C 115.412 69.500,115.557 68.844,115.669 68.042 C 115.781 67.240,115.933 66.508,116.006 66.416 C 116.638 65.623,116.636 50.914,116.004 50.500 C 115.934 50.454,115.784 49.760,115.671 48.958 C 115.558 48.156,115.412 47.500,115.347 47.500 C 115.281 47.500,115.131 47.012,115.012 46.417 C 114.894 45.821,114.745 45.333,114.682 45.333 C 114.619 45.333,114.427 44.771,114.255 44.083 C 114.084 43.396,113.883 42.833,113.808 42.833 C 113.733 42.833,113.586 42.496,113.483 42.083 C 113.379 41.671,113.231 41.333,113.154 41.333 C 113.076 41.333,112.923 41.033,112.814 40.667 C 112.704 40.300,112.556 40.000,112.485 40.000 C 112.414 40.000,112.308 39.850,112.250 39.668 C 112.192 39.485,112.053 39.241,111.941 39.126 C 111.829 39.011,111.605 38.635,111.444 38.292 C 111.283 37.948,111.098 37.667,111.033 37.667 C 110.968 37.667,110.815 37.442,110.693 37.167 C 110.468 36.658,110.188 36.332,108.165 34.229 C 106.940 32.956,105.644 31.833,105.398 31.833 C 105.315 31.833,105.153 31.683,105.039 31.500 C 104.924 31.317,104.727 31.167,104.600 31.167 C 104.473 31.167,104.329 31.061,104.279 30.932 C 104.230 30.804,103.959 30.648,103.678 30.586 C 103.397 30.524,103.167 30.401,103.167 30.311 C 103.167 30.222,102.942 30.071,102.667 29.975 C 102.392 29.879,102.167 29.733,102.167 29.650 C 102.167 29.568,102.094 29.500,102.005 29.500 C 101.916 29.500,101.444 29.318,100.957 29.095 C 100.470 28.872,99.699 28.597,99.244 28.484 C 98.789 28.372,98.379 28.224,98.333 28.157 C 98.287 28.090,97.650 27.937,96.917 27.816 C 96.183 27.696,95.531 27.522,95.468 27.429 C 95.350 27.257,87.468 27.133,86.003 27.281 M172.942 30.091 C 172.159 30.852,172.198 33.562,173.002 34.167 C 173.063 34.212,173.205 34.624,173.319 35.081 C 173.432 35.538,173.584 35.988,173.657 36.081 C 173.730 36.174,173.880 36.775,173.990 37.417 C 174.101 38.058,174.256 38.733,174.334 38.917 C 174.524 39.356,174.834 42.598,174.834 44.125 C 174.834 44.820,174.904 45.333,175.000 45.333 C 175.106 45.333,175.167 46.698,175.167 49.093 C 175.167 52.470,175.375 55.105,175.660 55.333 C 175.717 55.379,175.870 55.754,176.000 56.167 C 176.130 56.579,176.281 56.954,176.335 57.000 C 176.389 57.046,176.573 57.383,176.744 57.750 C 177.145 58.614,177.619 59.274,178.292 59.906 C 178.590 60.185,178.833 60.509,178.833 60.624 C 178.833 60.739,178.927 60.833,179.042 60.833 C 179.157 60.833,179.459 61.054,179.714 61.324 C 179.968 61.593,180.324 61.861,180.505 61.918 C 180.686 61.976,180.833 62.083,180.833 62.158 C 180.833 62.232,181.058 62.386,181.333 62.500 C 181.608 62.614,181.833 62.765,181.833 62.835 C 181.833 62.906,182.171 63.063,182.583 63.185 C 182.996 63.306,183.333 63.453,183.333 63.510 C 183.333 63.567,183.765 63.708,184.292 63.824 C 184.819 63.940,185.412 64.111,185.611 64.205 C 185.810 64.298,186.759 64.384,187.721 64.396 L 189.471 64.417 190.170 63.682 C 191.296 62.500,190.737 60.167,189.328 60.167 C 189.147 60.167,189.000 60.110,189.000 60.042 C 189.001 59.973,188.363 59.941,187.584 59.971 C 186.804 60.000,186.167 59.958,186.167 59.877 C 186.167 59.796,185.792 59.634,185.333 59.516 C 184.875 59.399,184.500 59.243,184.500 59.169 C 184.500 59.096,184.331 58.994,184.125 58.942 C 183.711 58.837,183.150 58.449,182.582 57.875 C 182.379 57.669,182.127 57.500,182.023 57.500 C 181.918 57.500,181.833 57.389,181.833 57.254 C 181.833 57.118,181.646 56.885,181.417 56.735 C 181.188 56.585,181.000 56.362,181.000 56.239 C 181.000 56.117,180.898 55.957,180.774 55.883 C 180.649 55.810,180.456 55.469,180.344 55.125 C 180.232 54.781,180.082 54.500,180.010 54.500 C 179.702 54.500,179.500 52.382,179.500 49.139 C 179.500 46.935,179.439 45.667,179.333 45.667 C 179.234 45.667,179.165 45.012,179.163 44.042 C 179.159 42.125,178.729 37.647,178.536 37.511 C 178.462 37.459,178.304 36.817,178.184 36.083 C 178.063 35.350,177.909 34.712,177.840 34.667 C 177.771 34.621,177.618 34.171,177.500 33.667 C 177.382 33.162,177.236 32.712,177.176 32.667 C 177.116 32.621,176.974 32.265,176.860 31.875 C 176.746 31.485,176.587 31.167,176.507 31.167 C 176.426 31.167,176.311 30.946,176.252 30.677 C 175.983 29.451,173.968 29.095,172.942 30.091 M91.500 47.322 C 91.500 47.408,91.669 47.531,91.875 47.595 C 92.199 47.697,92.721 48.182,93.443 49.054 C 93.818 49.506,94.317 50.702,94.522 51.637 C 94.636 52.158,94.782 52.621,94.846 52.667 C 95.059 52.819,95.333 56.150,95.333 58.583 C 95.333 61.017,95.059 64.347,94.846 64.500 C 94.782 64.546,94.635 65.015,94.519 65.542 C 94.404 66.069,94.240 66.500,94.155 66.500 C 94.070 66.500,94.000 66.614,94.000 66.752 C 94.000 68.116,91.987 69.667,90.217 69.667 L 89.116 69.667 88.266 68.784 C 87.119 67.592,86.885 67.243,86.751 66.528 C 86.688 66.192,86.570 65.877,86.490 65.827 C 86.410 65.778,86.251 65.178,86.137 64.494 C 86.022 63.810,85.851 63.196,85.756 63.131 C 85.517 62.967,85.519 54.032,85.757 53.869 C 85.853 53.804,86.030 53.150,86.150 52.417 C 86.270 51.683,86.429 51.045,86.504 50.998 C 86.579 50.952,86.694 50.689,86.760 50.415 C 86.906 49.811,87.644 48.500,87.838 48.500 C 87.915 48.500,88.025 48.350,88.083 48.167 C 88.142 47.983,88.283 47.833,88.399 47.833 C 88.514 47.833,88.753 47.688,88.929 47.510 C 89.273 47.163,91.500 47.001,91.500 47.322 M187.168 68.876 C 185.967 69.475,185.577 71.577,186.497 72.497 C 187.213 73.213,188.983 73.209,189.703 72.490 C 191.396 70.797,189.303 67.813,187.168 68.876 " stroke="none" fill="#bcd4cc" fill-rule="evenodd"></path><path id="path1" d="M4.915 46.583 C 4.915 69.225,4.935 78.463,4.958 67.112 C 4.982 55.760,4.982 37.235,4.958 25.945 C 4.935 14.654,4.915 23.942,4.915 46.583 M205.212 54.500 C 205.212 54.913,205.245 55.081,205.284 54.875 C 205.324 54.669,205.324 54.331,205.284 54.125 C 205.245 53.919,205.212 54.087,205.212 54.500 M186.792 59.955 C 187.181 59.990,187.819 59.990,188.208 59.955 C 188.598 59.920,188.279 59.892,187.500 59.892 C 186.721 59.892,186.402 59.920,186.792 59.955 " stroke="none" fill="#c0d4cc" fill-rule="evenodd"></path></g></svg>