<svg id="svg" version="1.1" xmlns="http://www.w3.org/2000/svg" xmlns:xlink="http://www.w3.org/1999/xlink" width="400" height="87.12206047032475" viewBox="0, 0, 400,87.12206047032475"><g id="svgg"><path id="path0" d="M369.833 0.047 C 369.755 0.126,368.039 0.307,367.198 0.325 C 366.987 0.330,366.849 0.391,366.892 0.461 C 366.936 0.531,366.715 0.576,366.403 0.561 C 366.090 0.546,365.871 0.593,365.916 0.666 C 365.961 0.738,365.717 0.843,365.374 0.898 C 365.031 0.954,364.488 1.041,364.167 1.091 C 363.846 1.142,363.512 1.255,363.425 1.342 C 363.338 1.429,363.168 1.500,363.048 1.500 C 362.928 1.500,362.512 1.644,362.123 1.820 C 361.735 1.996,361.229 2.193,361.000 2.259 C 360.771 2.325,360.530 2.462,360.464 2.564 C 360.399 2.666,360.287 2.753,360.214 2.757 C 359.878 2.775,358.833 3.207,358.833 3.328 C 358.833 3.403,358.637 3.513,358.397 3.573 C 358.156 3.634,357.859 3.773,357.736 3.883 C 357.197 4.364,357.031 4.475,356.958 4.403 C 356.916 4.360,356.786 4.440,356.670 4.579 C 356.554 4.719,356.354 4.833,356.224 4.833 C 356.095 4.833,355.946 4.946,355.894 5.083 C 355.841 5.221,355.704 5.333,355.590 5.333 C 355.476 5.333,355.147 5.559,354.858 5.835 C 354.569 6.111,354.333 6.298,354.333 6.251 C 354.333 6.205,354.183 6.298,354.000 6.458 C 353.817 6.619,353.320 7.050,352.895 7.417 C 351.704 8.445,350.833 9.272,350.833 9.373 C 350.833 9.424,350.365 9.955,349.792 10.553 C 348.432 11.973,348.378 12.047,348.468 12.337 C 348.511 12.472,348.490 12.532,348.422 12.469 C 348.267 12.325,347.548 13.086,347.402 13.547 C 347.292 13.893,347.154 14.095,346.634 14.670 C 346.214 15.134,345.830 15.941,345.965 16.076 C 346.030 16.141,345.973 16.169,345.837 16.139 C 345.687 16.105,345.569 16.231,345.534 16.461 C 345.502 16.668,345.407 16.796,345.323 16.744 C 345.239 16.692,345.215 16.766,345.270 16.908 C 345.327 17.058,345.280 17.167,345.157 17.167 C 345.040 17.167,344.990 17.212,345.046 17.268 C 345.101 17.323,344.999 17.527,344.819 17.720 C 344.639 17.913,344.404 18.374,344.296 18.744 C 344.188 19.114,344.054 19.454,343.999 19.500 C 343.784 19.678,343.186 21.063,343.267 21.194 C 343.314 21.271,343.274 21.333,343.177 21.333 C 343.079 21.333,343.000 21.444,343.000 21.578 C 343.000 21.713,342.855 22.107,342.677 22.453 C 342.500 22.800,342.304 23.365,342.242 23.708 C 342.180 24.052,342.054 24.333,341.962 24.333 C 341.870 24.333,341.834 24.483,341.882 24.667 C 341.930 24.850,341.907 25.000,341.832 25.000 C 341.699 25.000,341.403 26.282,341.473 26.554 C 341.492 26.630,341.431 26.644,341.337 26.586 C 341.244 26.528,341.157 26.579,341.145 26.698 C 341.099 27.171,341.009 27.612,340.829 28.250 C 340.725 28.617,340.492 29.667,340.312 30.583 C 340.132 31.500,339.952 32.400,339.913 32.583 C 339.735 33.413,339.510 35.322,339.505 36.042 C 339.502 36.477,339.431 36.833,339.347 36.833 C 339.036 36.833,338.985 50.325,339.294 50.709 C 339.386 50.823,339.549 51.923,339.656 53.152 C 339.763 54.381,339.915 55.509,339.995 55.657 C 340.074 55.805,340.218 56.449,340.314 57.088 C 340.532 58.536,340.568 58.710,340.693 58.917 C 340.792 59.079,341.024 60.034,341.027 60.289 C 341.028 60.359,341.087 60.492,341.159 60.583 C 341.232 60.675,341.269 60.881,341.243 61.042 C 341.217 61.202,341.255 61.333,341.327 61.333 C 341.452 61.333,341.736 62.280,341.689 62.542 C 341.677 62.610,341.735 62.667,341.818 62.667 C 341.901 62.667,341.927 62.828,341.875 63.026 C 341.820 63.237,341.848 63.344,341.942 63.286 C 342.033 63.230,342.194 63.622,342.308 64.176 C 342.421 64.721,342.585 65.167,342.673 65.167 C 342.761 65.167,342.833 65.302,342.833 65.467 C 342.833 65.632,342.923 65.857,343.033 65.967 C 343.143 66.077,343.179 66.167,343.112 66.167 C 343.046 66.167,343.121 66.410,343.278 66.708 C 343.436 67.006,343.583 67.356,343.605 67.486 C 343.627 67.616,343.800 67.932,343.989 68.188 C 344.179 68.444,344.333 68.759,344.333 68.887 C 344.333 69.016,344.489 69.319,344.679 69.561 C 344.869 69.802,344.968 70.000,344.900 70.000 C 344.831 70.000,344.927 70.169,345.113 70.375 C 345.298 70.581,345.499 70.862,345.559 71.000 C 345.619 71.137,345.892 71.625,346.166 72.083 C 346.440 72.542,346.738 73.085,346.828 73.292 C 346.918 73.498,347.069 73.667,347.163 73.667 C 347.256 73.667,347.333 73.775,347.333 73.908 C 347.333 74.041,347.429 74.210,347.546 74.283 C 347.662 74.357,347.899 74.642,348.072 74.917 C 348.245 75.192,348.486 75.477,348.610 75.550 C 348.733 75.623,348.833 75.762,348.833 75.858 C 348.833 75.954,349.202 76.394,349.653 76.836 C 350.104 77.278,350.558 77.797,350.662 77.991 C 350.765 78.184,350.916 78.302,350.996 78.252 C 351.077 78.203,351.191 78.313,351.249 78.498 C 351.308 78.682,351.444 78.834,351.553 78.835 C 351.661 78.836,352.012 79.135,352.333 79.500 C 352.654 79.865,353.013 80.164,353.130 80.165 C 353.247 80.166,353.574 80.429,353.856 80.750 C 354.137 81.071,354.473 81.333,354.601 81.333 C 354.729 81.333,354.833 81.408,354.833 81.500 C 354.833 81.592,354.983 81.667,355.167 81.667 C 355.350 81.667,355.500 81.774,355.500 81.905 C 355.500 82.037,355.650 82.192,355.833 82.250 C 356.017 82.308,356.167 82.426,356.167 82.511 C 356.167 82.597,356.249 82.667,356.349 82.667 C 356.450 82.667,356.750 82.822,357.016 83.011 C 357.282 83.201,357.500 83.300,357.500 83.232 C 357.500 83.164,357.682 83.279,357.904 83.488 C 358.152 83.721,358.394 83.819,358.529 83.741 C 358.651 83.671,358.695 83.674,358.629 83.747 C 358.489 83.902,360.271 84.832,360.708 84.833 C 360.869 84.833,361.000 84.905,361.000 84.994 C 361.000 85.142,362.155 85.539,362.618 85.551 C 362.728 85.553,362.785 85.609,362.745 85.675 C 362.664 85.806,363.943 86.167,364.490 86.167 C 364.679 86.167,364.833 86.247,364.833 86.345 C 364.833 86.447,364.975 86.477,365.167 86.417 C 365.350 86.358,365.500 86.383,365.500 86.472 C 365.500 86.963,383.006 87.225,385.583 86.772 C 385.950 86.708,386.363 86.637,386.500 86.615 C 386.637 86.592,386.844 86.515,386.958 86.444 C 387.073 86.372,387.242 86.360,387.333 86.417 C 387.425 86.473,387.500 86.451,387.500 86.366 C 387.500 86.282,387.893 86.167,388.374 86.110 C 388.855 86.053,389.274 85.929,389.305 85.835 C 389.336 85.741,389.426 85.704,389.504 85.752 C 389.582 85.801,390.044 85.689,390.531 85.503 C 391.018 85.318,391.581 85.167,391.782 85.167 C 391.983 85.167,392.187 85.102,392.236 85.023 C 392.285 84.944,392.664 84.784,393.079 84.668 C 393.494 84.552,393.833 84.391,393.833 84.312 C 393.833 84.232,393.967 84.167,394.130 84.167 C 394.293 84.167,394.583 84.057,394.774 83.923 C 394.966 83.788,395.170 83.726,395.228 83.784 C 395.286 83.842,395.333 83.801,395.333 83.694 C 395.333 83.587,395.426 83.500,395.539 83.500 C 395.797 83.500,397.510 82.653,397.793 82.386 C 397.908 82.278,398.152 82.141,398.334 82.083 C 398.517 82.025,398.667 81.908,398.667 81.822 C 398.667 81.737,398.769 81.667,398.894 81.667 C 399.019 81.667,399.319 81.511,399.561 81.321 L 400.000 80.976 400.000 57.071 L 400.000 33.167 385.500 33.167 L 371.000 33.167 371.000 44.507 C 371.000 53.483,371.043 55.842,371.208 55.821 C 371.323 55.806,372.937 55.803,374.795 55.814 L 378.173 55.833 378.128 59.292 C 378.087 62.467,378.059 62.748,377.792 62.727 C 377.631 62.714,377.500 62.762,377.500 62.833 C 377.500 62.996,376.396 63.156,375.047 63.190 C 374.343 63.208,374.046 63.275,374.121 63.400 C 374.190 63.515,374.141 63.511,373.988 63.387 C 373.854 63.279,373.418 63.153,373.018 63.107 C 372.618 63.061,372.216 62.949,372.125 62.858 C 372.034 62.767,371.856 62.732,371.730 62.781 C 371.603 62.829,371.500 62.786,371.500 62.684 C 371.500 62.583,371.392 62.500,371.261 62.500 C 370.944 62.500,368.513 60.561,368.375 60.199 C 368.316 60.044,368.094 59.779,367.882 59.612 C 367.670 59.444,367.536 59.244,367.583 59.168 C 367.630 59.091,367.609 59.003,367.536 58.973 C 367.412 58.921,366.603 57.686,366.571 57.500 C 366.491 57.046,366.272 56.500,366.168 56.500 C 366.035 56.500,365.781 55.856,365.819 55.615 C 365.830 55.541,365.737 55.241,365.612 54.949 C 365.215 54.019,365.000 53.242,365.000 52.730 C 365.000 52.457,364.932 52.162,364.849 52.075 C 364.684 51.902,364.516 50.903,364.506 50.032 C 364.503 49.729,364.439 49.518,364.365 49.564 C 364.290 49.610,364.249 49.166,364.272 48.578 C 364.296 47.990,364.244 47.465,364.158 47.411 C 363.931 47.271,363.951 40.717,364.178 40.576 C 364.278 40.514,364.339 40.051,364.317 39.512 C 364.295 38.988,364.318 38.489,364.368 38.404 C 364.418 38.319,364.512 37.800,364.579 37.250 C 364.645 36.700,364.775 36.157,364.869 36.043 C 364.963 35.928,365.000 35.685,364.952 35.501 C 364.904 35.317,364.933 35.167,365.016 35.167 C 365.099 35.167,365.153 35.110,365.137 35.042 C 365.121 34.973,365.209 34.579,365.333 34.167 C 365.457 33.754,365.546 33.360,365.529 33.292 C 365.513 33.223,365.566 33.167,365.646 33.167 C 365.786 33.167,366.072 32.228,366.018 31.946 C 366.004 31.870,366.069 31.856,366.163 31.914 C 366.256 31.972,366.343 31.940,366.354 31.843 C 366.366 31.746,366.394 31.610,366.418 31.542 C 366.442 31.473,366.516 31.248,366.584 31.042 C 366.651 30.835,366.776 30.667,366.861 30.667 C 366.947 30.667,367.096 30.442,367.192 30.167 C 367.288 29.892,367.446 29.667,367.544 29.667 C 367.642 29.667,367.673 29.617,367.612 29.557 C 367.552 29.496,367.653 29.341,367.837 29.212 C 368.021 29.083,368.134 28.915,368.087 28.839 C 368.040 28.764,368.114 28.659,368.251 28.606 C 368.388 28.553,368.500 28.396,368.500 28.255 C 368.500 28.115,368.594 27.999,368.708 27.997 C 368.823 27.996,369.223 27.677,369.598 27.289 C 370.514 26.341,370.945 25.990,370.770 26.333 C 370.672 26.524,370.694 26.520,370.863 26.317 C 370.984 26.171,371.365 25.950,371.708 25.826 C 372.052 25.701,372.333 25.550,372.333 25.488 C 372.333 25.095,376.572 24.815,378.500 25.080 C 379.855 25.266,380.014 25.304,380.246 25.497 C 380.362 25.593,380.592 25.621,380.756 25.558 C 380.947 25.485,381.015 25.507,380.945 25.621 C 380.883 25.721,381.022 25.845,381.268 25.906 C 381.706 26.016,382.703 26.645,382.806 26.876 C 382.837 26.945,382.919 26.966,382.990 26.923 C 383.060 26.879,383.545 27.254,384.067 27.755 C 384.588 28.257,385.091 28.667,385.184 28.667 C 385.277 28.667,385.307 28.742,385.250 28.833 C 385.193 28.925,385.268 29.000,385.417 29.000 C 385.565 29.000,385.640 29.075,385.583 29.167 C 385.465 29.358,386.000 29.389,386.250 29.206 C 386.342 29.138,386.529 28.858,386.667 28.583 C 386.804 28.308,387.012 28.022,387.128 27.948 C 387.245 27.874,387.300 27.748,387.251 27.668 C 387.201 27.588,387.296 27.424,387.461 27.303 C 387.625 27.182,388.001 26.708,388.295 26.250 C 388.589 25.792,388.943 25.270,389.081 25.091 C 389.220 24.912,389.333 24.715,389.333 24.654 C 389.333 24.592,389.596 24.255,389.917 23.905 C 390.238 23.555,390.500 23.209,390.500 23.136 C 390.500 23.063,390.837 22.560,391.250 22.018 C 391.662 21.475,392.000 20.952,392.000 20.855 C 392.000 20.758,392.213 20.460,392.474 20.193 C 392.908 19.750,393.088 19.462,393.145 19.125 C 393.157 19.056,393.298 18.863,393.458 18.696 C 394.019 18.111,394.500 17.426,394.500 17.212 C 394.500 17.094,394.650 16.868,394.833 16.711 C 395.017 16.554,395.167 16.371,395.167 16.305 C 395.167 16.238,395.353 15.983,395.580 15.738 C 395.808 15.492,395.956 15.230,395.909 15.154 C 395.862 15.079,395.976 14.935,396.162 14.836 C 396.348 14.736,396.500 14.545,396.500 14.411 C 396.500 14.277,396.583 14.167,396.684 14.167 C 396.790 14.167,396.822 14.045,396.759 13.880 C 396.699 13.722,396.703 13.647,396.768 13.713 C 396.895 13.840,397.770 12.669,397.705 12.458 C 397.684 12.390,397.774 12.333,397.905 12.333 C 398.037 12.333,398.189 12.193,398.244 12.020 C 398.298 11.848,398.528 11.492,398.755 11.229 C 398.981 10.965,399.166 10.656,399.166 10.542 C 399.167 10.427,399.237 10.333,399.323 10.333 C 399.609 10.333,399.065 9.523,398.265 8.756 C 397.831 8.340,397.407 8.000,397.321 8.000 C 397.236 8.000,397.185 7.912,397.208 7.805 C 397.231 7.698,397.079 7.521,396.869 7.412 C 396.659 7.303,396.278 6.978,396.021 6.690 C 395.764 6.402,395.510 6.167,395.457 6.167 C 395.403 6.167,394.773 5.767,394.055 5.280 C 392.520 4.236,391.167 3.444,391.167 3.588 C 391.167 3.645,390.976 3.541,390.742 3.357 C 390.509 3.173,390.096 2.974,389.826 2.915 C 389.555 2.855,389.333 2.743,389.333 2.665 C 389.333 2.588,388.921 2.432,388.417 2.319 C 387.912 2.206,387.500 2.046,387.500 1.962 C 387.500 1.879,387.350 1.858,387.167 1.917 C 386.970 1.979,386.833 1.947,386.833 1.837 C 386.833 1.735,386.740 1.667,386.625 1.686 C 386.510 1.704,386.285 1.670,386.125 1.610 C 385.965 1.549,385.702 1.450,385.542 1.389 C 385.381 1.329,385.137 1.271,385.000 1.262 C 384.863 1.253,384.674 1.197,384.582 1.138 C 384.490 1.079,384.115 0.981,383.749 0.920 C 383.383 0.859,382.933 0.742,382.750 0.660 C 381.841 0.253,370.181 -0.300,369.833 0.047 M0.111 1.278 C -0.163 1.552,-0.012 85.627,0.264 85.732 C 0.869 85.964,22.618 85.843,22.814 85.606 C 22.953 85.439,22.991 80.600,22.960 67.439 C 22.936 57.573,22.957 49.500,23.005 49.500 C 23.054 49.500,23.108 49.294,23.124 49.042 C 23.204 47.830,23.371 46.833,23.493 46.833 C 23.568 46.833,23.677 46.580,23.735 46.271 C 23.834 45.741,24.099 45.324,24.787 44.608 C 25.674 43.686,28.538 43.802,28.983 44.779 C 29.080 44.992,29.233 45.167,29.322 45.167 C 29.412 45.167,29.534 45.430,29.595 45.752 C 29.655 46.074,29.772 46.379,29.855 46.430 C 29.938 46.481,29.960 46.596,29.905 46.685 C 29.850 46.775,29.882 46.941,29.976 47.055 C 30.070 47.168,30.166 47.615,30.188 48.047 C 30.211 48.480,30.271 48.833,30.323 48.833 C 30.374 48.833,30.397 57.112,30.374 67.230 L 30.330 85.627 30.707 85.728 C 31.610 85.970,52.849 85.842,53.098 85.593 C 53.620 85.070,53.325 40.000,52.799 40.000 C 52.726 40.000,52.667 39.733,52.667 39.407 C 52.667 38.605,52.329 36.457,52.171 36.250 C 52.101 36.158,51.989 35.783,51.921 35.417 C 51.854 35.050,51.765 34.563,51.722 34.335 C 51.680 34.106,51.543 33.806,51.418 33.668 C 51.179 33.404,51.167 33.363,51.167 32.845 C 51.167 32.668,51.064 32.421,50.939 32.296 C 50.813 32.170,50.658 31.903,50.594 31.701 C 50.530 31.499,50.401 31.333,50.308 31.333 C 50.215 31.333,50.170 31.241,50.207 31.129 C 50.245 31.016,50.212 30.847,50.135 30.754 C 49.765 30.303,49.203 29.352,49.269 29.286 C 49.310 29.246,49.116 28.969,48.838 28.672 C 48.561 28.375,48.333 28.060,48.333 27.973 C 48.333 27.885,48.264 27.857,48.179 27.909 C 48.094 27.962,47.976 27.853,47.917 27.667 C 47.858 27.481,47.740 27.372,47.655 27.424 C 47.570 27.477,47.500 27.449,47.500 27.362 C 47.500 27.130,46.135 25.846,45.763 25.728 C 45.587 25.672,45.291 25.485,45.106 25.313 C 44.922 25.141,44.630 25.000,44.459 25.000 C 44.287 25.000,44.188 24.934,44.237 24.854 C 44.287 24.774,43.972 24.611,43.539 24.491 C 43.105 24.372,42.712 24.225,42.667 24.165 C 42.559 24.023,40.750 23.667,40.139 23.667 C 39.879 23.667,39.667 23.592,39.667 23.500 C 39.667 23.408,39.587 23.333,39.490 23.333 C 39.393 23.333,39.370 23.427,39.439 23.542 C 39.533 23.699,39.499 23.697,39.298 23.534 C 39.009 23.300,34.167 23.271,34.167 23.503 C 34.167 23.570,33.810 23.666,33.375 23.716 C 31.874 23.890,31.504 24.004,29.833 24.804 C 29.512 24.958,29.151 25.196,29.029 25.333 C 28.833 25.556,28.821 25.556,28.917 25.333 C 28.977 25.196,28.870 25.260,28.679 25.477 C 28.489 25.693,28.333 25.822,28.333 25.763 C 28.333 25.703,28.177 25.739,27.986 25.841 C 27.795 25.943,27.680 26.069,27.730 26.119 C 27.781 26.170,27.496 26.428,27.097 26.693 C 26.697 26.957,26.330 27.330,26.280 27.520 C 26.230 27.711,26.109 27.817,26.011 27.757 C 25.913 27.696,25.833 27.719,25.833 27.806 C 25.833 27.893,25.647 28.142,25.420 28.358 C 25.192 28.573,25.004 28.844,25.003 28.958 C 25.001 29.073,24.887 29.167,24.750 29.167 C 24.613 29.167,24.500 29.274,24.500 29.405 C 24.500 29.536,24.383 29.760,24.239 29.903 C 24.096 30.047,24.033 30.251,24.098 30.358 C 24.169 30.471,24.146 30.507,24.044 30.444 C 23.902 30.356,23.601 30.983,23.616 31.333 C 23.617 31.379,23.480 31.548,23.310 31.708 C 23.008 31.992,23.000 31.598,23.000 16.583 L 23.000 1.167 11.611 1.167 C 5.347 1.167,0.172 1.217,0.111 1.278 M122.000 43.566 C 122.000 81.770,122.024 85.640,122.264 85.732 C 122.409 85.788,127.734 85.833,134.097 85.833 L 145.667 85.833 145.667 43.667 L 145.667 1.500 133.833 1.500 L 122.000 1.500 122.000 43.566 M157.167 43.833 L 157.167 85.500 173.033 85.500 C 188.107 85.500,192.181 85.399,193.083 85.001 C 193.267 84.920,194.073 84.762,194.875 84.650 C 195.677 84.538,196.333 84.390,196.333 84.322 C 196.333 84.254,196.727 84.145,197.208 84.079 C 197.690 84.014,198.271 83.866,198.500 83.751 C 198.729 83.635,199.179 83.485,199.500 83.418 C 199.821 83.351,200.196 83.200,200.333 83.083 C 200.471 82.966,200.827 82.819,201.125 82.755 C 201.423 82.692,201.667 82.583,201.667 82.513 C 201.667 82.444,201.985 82.284,202.375 82.159 C 202.765 82.033,203.121 81.890,203.167 81.840 C 203.213 81.790,203.475 81.637,203.750 81.500 C 204.025 81.363,204.287 81.213,204.333 81.167 C 204.464 81.036,205.361 80.532,205.983 80.241 C 206.294 80.095,206.656 79.868,206.786 79.738 C 206.917 79.607,207.075 79.500,207.137 79.499 C 207.199 79.499,207.485 79.278,207.773 79.008 C 208.061 78.739,208.328 78.550,208.368 78.590 C 208.407 78.629,208.693 78.400,209.002 78.081 C 209.312 77.761,209.632 77.500,209.714 77.500 C 209.882 77.500,212.500 74.863,212.500 74.693 C 212.500 74.632,212.725 74.370,213.000 74.110 C 213.275 73.851,213.500 73.550,213.500 73.443 C 213.500 73.335,213.650 73.153,213.833 73.039 C 214.017 72.924,214.167 72.725,214.167 72.596 C 214.167 72.467,214.223 72.336,214.292 72.306 C 214.485 72.220,215.155 71.220,215.332 70.752 C 215.420 70.522,215.557 70.333,215.636 70.333 C 215.715 70.333,215.878 70.037,215.997 69.675 C 216.117 69.313,216.309 68.981,216.425 68.937 C 216.541 68.892,216.686 68.626,216.748 68.345 C 216.809 68.063,216.912 67.833,216.977 67.833 C 217.041 67.833,217.194 67.496,217.315 67.083 C 217.437 66.671,217.598 66.333,217.672 66.333 C 217.746 66.333,217.859 66.090,217.923 65.792 C 217.986 65.494,218.097 65.175,218.169 65.083 C 218.240 64.992,218.395 64.579,218.512 64.167 C 218.629 63.754,218.785 63.337,218.858 63.239 C 218.931 63.141,219.076 62.653,219.181 62.155 C 219.286 61.657,219.440 61.166,219.523 61.062 C 219.605 60.959,219.762 60.265,219.871 59.521 C 219.979 58.776,220.120 58.167,220.185 58.167 C 220.249 58.167,220.398 57.379,220.516 56.417 C 220.633 55.454,220.778 54.667,220.838 54.667 C 221.161 54.667,221.776 39.836,221.458 39.694 C 221.390 39.664,221.333 39.084,221.333 38.406 C 221.333 36.817,220.992 32.942,220.842 32.833 C 220.779 32.787,220.632 32.007,220.515 31.098 C 220.398 30.190,220.242 29.328,220.166 29.182 C 220.091 29.036,219.943 28.393,219.837 27.754 C 219.731 27.114,219.581 26.514,219.504 26.420 C 219.427 26.327,219.285 25.820,219.188 25.296 C 219.092 24.771,218.903 24.171,218.769 23.962 C 218.634 23.754,218.473 23.302,218.410 22.958 C 218.348 22.615,218.233 22.333,218.156 22.333 C 218.078 22.333,217.966 22.071,217.906 21.750 C 217.845 21.429,217.741 21.167,217.674 21.167 C 217.608 21.167,217.463 20.867,217.353 20.500 C 217.243 20.133,217.093 19.833,217.020 19.833 C 216.947 19.833,216.788 19.533,216.667 19.167 C 216.546 18.800,216.390 18.500,216.320 18.500 C 216.250 18.500,216.143 18.270,216.081 17.989 C 216.019 17.708,215.870 17.440,215.749 17.393 C 215.629 17.347,215.488 17.141,215.436 16.935 C 215.385 16.730,215.209 16.404,215.046 16.211 C 214.395 15.442,214.240 15.226,214.000 14.751 C 213.862 14.479,213.506 14.031,213.208 13.755 C 212.910 13.478,212.663 13.177,212.659 13.084 C 212.651 12.907,210.276 10.619,208.990 9.549 C 208.098 8.806,207.708 8.522,206.583 7.796 C 206.125 7.500,205.657 7.169,205.543 7.059 C 205.430 6.950,205.111 6.811,204.835 6.750 C 204.559 6.690,204.333 6.585,204.333 6.518 C 204.333 6.451,204.071 6.293,203.750 6.167 C 203.429 6.041,203.167 5.893,203.167 5.839 C 203.167 5.784,202.829 5.640,202.417 5.518 C 202.004 5.396,201.667 5.239,201.667 5.168 C 201.667 5.097,201.329 4.955,200.917 4.851 C 200.504 4.747,200.167 4.595,200.167 4.512 C 200.167 4.430,199.861 4.311,199.486 4.248 C 199.112 4.184,198.615 4.034,198.381 3.912 C 198.148 3.791,197.591 3.642,197.145 3.580 C 196.699 3.519,196.296 3.407,196.249 3.332 C 196.203 3.257,195.490 3.104,194.666 2.991 C 193.841 2.878,193.167 2.733,193.167 2.669 C 193.167 2.303,187.670 2.167,172.866 2.167 L 157.167 2.167 157.167 43.833 M230.167 43.996 L 230.167 85.825 242.875 85.828 C 249.865 85.830,255.752 85.785,255.958 85.729 L 256.333 85.628 256.333 43.897 L 256.333 2.167 243.250 2.167 L 230.167 2.167 230.167 43.996 M268.167 43.833 C 268.167 80.759,268.195 85.500,268.417 85.500 C 268.554 85.500,268.667 85.576,268.667 85.670 C 268.667 85.784,272.369 85.825,279.958 85.795 L 291.250 85.750 291.277 83.207 C 291.293 81.809,291.252 80.697,291.188 80.737 C 291.124 80.776,291.071 80.664,291.071 80.488 C 291.071 80.311,291.149 80.166,291.244 80.164 C 291.339 80.163,291.304 80.089,291.167 80.000 C 290.954 79.863,290.953 79.838,291.158 79.836 C 291.346 79.834,291.356 79.789,291.200 79.633 C 291.062 79.495,291.000 78.651,291.000 76.911 C 291.000 70.932,290.771 61.852,290.623 61.944 C 290.537 61.997,290.553 61.878,290.659 61.680 C 290.765 61.483,290.802 61.165,290.742 60.974 C 290.681 60.784,290.632 58.799,290.632 56.564 C 290.632 53.625,290.579 52.499,290.441 52.497 C 290.336 52.496,290.362 52.424,290.499 52.338 C 290.697 52.213,290.705 52.138,290.540 51.974 C 290.395 51.828,290.333 51.059,290.333 49.383 C 290.333 47.068,290.519 46.301,290.750 47.666 C 290.812 48.032,290.928 48.372,291.007 48.421 C 291.087 48.470,291.105 48.633,291.048 48.783 C 290.987 48.940,291.012 49.012,291.107 48.954 C 291.200 48.896,291.359 49.280,291.475 49.843 C 291.588 50.388,291.764 50.833,291.868 50.833 C 291.971 50.833,292.006 50.883,291.946 50.943 C 291.886 51.003,291.920 51.153,292.022 51.276 C 292.124 51.399,292.152 51.500,292.083 51.500 C 292.015 51.500,292.050 51.609,292.161 51.743 C 292.271 51.876,292.324 52.046,292.278 52.121 C 292.232 52.195,292.336 52.555,292.508 52.920 C 292.681 53.285,292.825 53.696,292.829 53.833 C 292.832 53.971,292.955 54.308,293.101 54.583 C 293.248 54.858,293.403 55.308,293.447 55.583 C 293.490 55.858,293.641 56.261,293.780 56.479 C 293.920 56.696,293.955 56.825,293.858 56.765 C 293.760 56.705,293.790 56.864,293.923 57.120 C 294.056 57.375,294.165 57.694,294.166 57.830 C 294.166 57.966,294.327 58.491,294.522 58.997 C 294.718 59.503,294.936 60.067,295.007 60.250 C 295.243 60.859,295.362 61.246,295.441 61.661 C 295.485 61.888,295.599 62.169,295.697 62.286 C 295.794 62.404,295.826 62.500,295.766 62.500 C 295.707 62.500,295.774 62.725,295.917 63.000 C 296.059 63.275,296.124 63.500,296.062 63.500 C 295.999 63.500,296.091 63.663,296.266 63.862 C 296.464 64.088,296.490 64.170,296.333 64.080 C 296.134 63.965,296.121 63.985,296.268 64.176 C 296.369 64.309,296.539 64.773,296.645 65.208 C 296.751 65.644,296.981 66.235,297.155 66.522 C 297.330 66.809,297.436 67.139,297.392 67.255 C 297.347 67.371,297.387 67.514,297.481 67.572 C 297.575 67.630,297.613 67.780,297.565 67.905 C 297.517 68.030,297.557 68.182,297.655 68.243 C 297.753 68.303,297.833 68.474,297.833 68.622 C 297.833 68.770,297.965 69.040,298.125 69.224 C 298.336 69.465,298.348 69.520,298.167 69.421 C 297.971 69.314,297.959 69.330,298.112 69.496 C 298.219 69.612,298.264 69.829,298.210 69.979 C 298.157 70.130,298.178 70.191,298.260 70.116 C 298.341 70.043,298.497 70.342,298.608 70.783 C 298.908 71.973,299.488 73.690,299.760 74.192 C 299.892 74.436,300.000 74.788,300.000 74.974 C 300.000 75.161,300.072 75.358,300.159 75.412 C 300.247 75.466,300.277 75.621,300.225 75.755 C 300.173 75.890,300.206 76.000,300.297 76.000 C 300.388 76.000,300.513 76.336,300.574 76.746 C 300.636 77.156,300.758 77.537,300.846 77.591 C 300.934 77.645,300.957 77.768,300.898 77.863 C 300.839 77.959,300.883 78.094,300.996 78.164 C 301.109 78.234,301.269 78.649,301.350 79.086 C 301.432 79.523,301.589 79.990,301.700 80.123 C 301.811 80.257,301.929 80.527,301.964 80.725 C 301.998 80.922,302.052 81.196,302.084 81.333 C 302.115 81.471,302.147 81.644,302.154 81.718 C 302.161 81.792,302.247 81.804,302.344 81.743 C 302.442 81.683,302.505 81.734,302.484 81.858 C 302.434 82.155,302.671 83.030,302.871 83.284 C 302.958 83.395,302.986 83.554,302.935 83.637 C 302.883 83.721,302.982 84.080,303.155 84.435 C 303.328 84.791,303.439 85.130,303.402 85.190 C 303.365 85.250,303.452 85.343,303.595 85.398 C 303.738 85.453,303.808 85.572,303.752 85.663 C 303.684 85.773,308.178 85.829,316.973 85.829 L 330.296 85.829 330.395 85.456 C 330.450 85.251,330.496 66.427,330.498 43.625 L 330.500 2.167 319.239 2.167 L 307.979 2.167 308.013 3.542 C 308.032 4.298,308.101 4.954,308.167 5.000 C 308.278 5.077,308.565 24.440,308.508 27.985 C 308.489 29.114,308.543 29.591,308.700 29.691 C 308.866 29.796,308.868 29.829,308.708 29.831 C 308.589 29.832,308.500 30.046,308.500 30.333 C 308.500 30.608,308.556 30.833,308.625 30.833 C 308.718 30.834,308.766 40.473,308.680 41.986 C 308.658 42.383,308.484 42.068,308.412 41.500 C 308.375 41.206,308.274 40.879,308.187 40.774 C 308.101 40.669,307.977 40.301,307.913 39.956 C 307.848 39.612,307.732 39.291,307.655 39.243 C 307.578 39.195,307.557 39.046,307.608 38.911 C 307.660 38.777,307.628 38.667,307.537 38.667 C 307.446 38.667,307.279 38.179,307.167 37.583 C 307.054 36.987,306.911 36.500,306.848 36.500 C 306.785 36.500,306.640 36.050,306.527 35.500 C 306.413 34.950,306.262 34.500,306.191 34.500 C 306.119 34.500,305.964 34.013,305.846 33.417 C 305.727 32.821,305.582 32.333,305.522 32.333 C 305.386 32.333,305.000 31.112,305.000 30.679 C 305.000 30.500,304.934 30.312,304.852 30.262 C 304.771 30.211,304.652 29.888,304.588 29.544 C 304.525 29.199,304.374 28.692,304.254 28.417 C 303.933 27.682,303.810 27.304,303.724 26.791 C 303.681 26.539,303.539 26.127,303.408 25.875 C 303.276 25.623,303.168 25.248,303.168 25.042 C 303.167 24.835,303.101 24.667,303.021 24.667 C 302.941 24.667,302.827 24.359,302.767 23.983 C 302.706 23.606,302.557 23.100,302.434 22.858 C 302.311 22.615,302.110 22.004,301.986 21.500 C 301.862 20.996,301.715 20.546,301.660 20.500 C 301.604 20.454,301.457 20.042,301.333 19.583 C 301.209 19.125,301.063 18.712,301.008 18.667 C 300.953 18.621,300.817 18.138,300.706 17.595 C 300.595 17.051,300.448 16.563,300.377 16.511 C 300.307 16.459,300.224 16.234,300.193 16.012 C 300.161 15.789,300.062 15.414,299.973 15.178 C 299.883 14.943,299.808 14.713,299.805 14.667 C 299.803 14.621,299.728 14.447,299.639 14.281 C 299.474 13.972,299.318 13.416,299.292 13.042 C 299.284 12.927,299.218 12.833,299.144 12.833 C 299.071 12.833,299.057 12.713,299.113 12.567 C 299.169 12.420,299.147 12.251,299.063 12.192 C 298.938 12.103,298.691 11.388,298.449 10.417 C 298.426 10.325,298.362 10.175,298.307 10.083 C 298.251 9.992,298.151 9.654,298.083 9.333 C 298.016 9.012,297.915 8.675,297.858 8.583 C 297.801 8.492,297.747 8.379,297.738 8.333 C 297.729 8.287,297.677 8.137,297.623 8.000 C 297.311 7.208,296.834 5.673,296.752 5.195 C 296.700 4.890,296.541 4.463,296.399 4.246 C 296.256 4.029,296.152 3.808,296.167 3.756 C 296.247 3.484,295.948 2.346,295.819 2.426 C 295.735 2.477,295.667 2.440,295.667 2.343 C 295.667 2.220,291.483 2.167,281.917 2.167 L 268.167 2.167 268.167 43.833 M190.250 13.060 C 190.525 13.209,191.000 13.379,191.305 13.437 C 191.610 13.495,191.899 13.645,191.948 13.771 C 191.996 13.897,192.099 14.000,192.177 14.000 C 192.681 14.000,194.721 15.883,195.166 16.759 C 195.304 17.029,195.454 17.287,195.500 17.333 C 195.692 17.525,196.333 18.883,196.333 19.099 C 196.333 19.297,194.997 19.333,187.646 19.333 C 180.717 19.333,178.994 19.291,179.129 19.125 C 179.222 19.010,179.394 18.598,179.509 18.208 C 179.625 17.819,179.778 17.500,179.848 17.500 C 179.919 17.500,180.029 17.331,180.092 17.125 C 180.155 16.919,180.321 16.619,180.462 16.458 C 180.603 16.298,180.661 16.167,180.592 16.167 C 180.522 16.167,180.822 15.829,181.259 15.417 C 181.696 15.004,182.151 14.667,182.271 14.667 C 182.390 14.667,182.569 14.517,182.667 14.333 C 182.765 14.150,182.950 14.000,183.077 14.000 C 183.205 14.000,183.420 13.889,183.556 13.753 C 183.692 13.618,184.166 13.413,184.610 13.298 C 185.053 13.183,185.454 13.040,185.500 12.980 C 185.809 12.579,189.477 12.640,190.250 13.060 M210.694 21.625 C 210.725 21.694,210.974 21.865,211.248 22.005 C 212.290 22.539,212.610 26.489,211.612 26.499 C 211.427 26.500,209.333 28.592,209.333 28.775 C 209.333 28.855,209.183 29.013,209.000 29.128 C 208.817 29.242,208.667 29.480,208.667 29.656 C 208.667 29.832,208.564 30.079,208.439 30.204 C 208.313 30.330,208.153 30.613,208.083 30.833 C 208.013 31.054,207.856 31.334,207.735 31.456 C 207.613 31.578,207.464 31.937,207.405 32.255 C 207.345 32.573,207.240 32.833,207.171 32.833 C 207.102 32.833,206.948 33.302,206.828 33.875 C 206.708 34.448,206.559 34.954,206.497 35.000 C 206.358 35.101,206.000 37.838,206.000 38.793 C 206.000 39.171,205.925 39.527,205.833 39.583 C 205.730 39.647,205.667 41.221,205.667 43.751 C 205.667 47.744,205.426 51.922,205.176 52.250 C 205.107 52.342,204.953 52.885,204.836 53.458 C 204.718 54.031,204.573 54.500,204.514 54.500 C 204.454 54.500,204.306 54.837,204.185 55.250 C 204.063 55.663,203.896 56.000,203.815 56.000 C 203.733 56.000,203.667 56.070,203.667 56.156 C 203.667 56.242,203.580 56.523,203.473 56.781 C 203.367 57.039,203.298 57.325,203.320 57.417 C 203.343 57.508,203.307 57.529,203.240 57.463 C 203.174 57.396,202.896 57.696,202.623 58.129 C 202.350 58.562,202.023 58.977,201.897 59.050 C 201.770 59.123,201.667 59.258,201.667 59.350 C 201.667 59.564,198.879 62.333,198.664 62.333 C 198.575 62.333,198.409 62.483,198.295 62.667 C 198.180 62.850,198.037 63.000,197.977 63.000 C 197.917 63.000,197.374 63.300,196.770 63.667 C 196.167 64.033,195.600 64.333,195.512 64.333 C 194.692 64.333,194.418 65.131,194.363 67.682 C 194.333 69.049,194.247 70.167,194.170 70.167 C 194.094 70.167,194.070 70.317,194.118 70.500 C 194.166 70.683,194.130 70.833,194.038 70.833 C 193.945 70.833,193.822 71.021,193.765 71.250 C 193.707 71.479,193.587 71.667,193.497 71.667 C 193.407 71.667,193.333 71.763,193.333 71.880 C 193.333 72.129,191.630 73.914,191.255 74.058 C 191.115 74.112,191.000 74.242,191.000 74.346 C 191.000 74.450,190.887 74.492,190.750 74.440 C 190.612 74.387,190.500 74.404,190.500 74.477 C 190.500 74.704,188.864 75.000,187.612 74.999 C 186.308 74.998,185.167 74.753,185.167 74.474 C 185.167 74.377,185.054 74.341,184.917 74.394 C 184.779 74.446,184.667 74.425,184.667 74.346 C 184.667 74.267,184.492 74.159,184.278 74.105 C 183.820 73.990,182.000 72.106,182.000 71.747 C 182.000 71.611,181.932 71.500,181.850 71.500 C 181.662 71.500,181.333 70.583,181.333 70.058 C 181.333 69.843,181.258 69.667,181.167 69.667 C 181.069 69.667,181.000 69.111,181.000 68.333 C 181.000 67.556,181.069 67.000,181.167 67.000 C 181.258 67.000,181.333 66.737,181.333 66.417 C 181.333 66.096,181.258 65.833,181.167 65.833 C 181.075 65.833,181.000 65.706,181.000 65.551 C 181.000 65.224,180.200 64.333,179.906 64.333 C 179.797 64.333,179.620 64.228,179.514 64.100 C 179.407 63.971,179.129 63.818,178.896 63.760 C 178.477 63.655,178.286 63.531,177.655 62.958 C 177.478 62.798,177.266 62.667,177.184 62.667 C 177.102 62.667,176.858 62.480,176.642 62.253 C 176.427 62.025,176.175 61.837,176.083 61.835 C 175.934 61.831,175.473 61.360,173.722 59.419 C 173.432 59.097,173.095 58.609,172.973 58.333 C 172.852 58.058,172.702 57.833,172.640 57.833 C 172.504 57.833,171.500 55.803,171.500 55.528 C 171.500 55.421,171.433 55.333,171.352 55.333 C 171.270 55.333,171.155 55.071,171.094 54.750 C 171.034 54.429,170.905 54.167,170.808 54.167 C 170.711 54.167,170.673 54.057,170.725 53.922 C 170.777 53.787,170.749 53.634,170.664 53.582 C 170.579 53.529,170.460 53.114,170.400 52.660 C 170.340 52.205,170.217 51.833,170.127 51.833 C 170.037 51.833,169.994 51.571,170.032 51.250 C 170.069 50.929,170.040 50.667,169.967 50.667 C 169.893 50.667,169.833 48.885,169.833 46.708 C 169.832 42.484,169.573 37.377,169.346 37.091 C 169.270 36.995,169.154 36.474,169.089 35.932 C 169.023 35.391,168.826 34.500,168.651 33.952 C 168.476 33.405,168.333 32.854,168.333 32.728 C 168.333 32.603,168.252 32.500,168.153 32.500 C 168.053 32.500,168.004 32.406,168.043 32.292 C 168.082 32.177,167.953 31.821,167.755 31.500 C 167.558 31.179,167.298 30.673,167.178 30.375 C 167.058 30.077,166.899 29.833,166.824 29.833 C 166.750 29.833,166.639 29.676,166.578 29.484 C 166.517 29.291,166.343 28.999,166.192 28.834 C 165.337 27.902,165.000 27.477,165.000 27.330 C 165.000 27.240,164.885 27.167,164.745 27.167 C 164.604 27.167,164.447 27.055,164.394 26.918 C 164.341 26.781,164.231 26.710,164.149 26.761 C 164.067 26.812,164.000 26.792,164.000 26.718 C 164.000 26.644,163.806 26.358,163.568 26.083 C 162.668 25.039,163.358 21.833,164.484 21.833 C 164.584 21.833,164.667 21.758,164.667 21.667 C 164.667 21.469,210.607 21.428,210.694 21.625 M82.667 23.866 C 82.071 23.952,81.490 24.030,81.375 24.039 C 81.260 24.048,81.167 24.109,81.167 24.175 C 81.167 24.241,80.754 24.346,80.250 24.409 C 79.746 24.472,79.333 24.602,79.333 24.696 C 79.333 24.791,79.226 24.828,79.094 24.777 C 78.963 24.727,78.831 24.752,78.802 24.834 C 78.774 24.916,78.487 25.028,78.167 25.083 C 77.846 25.139,77.558 25.256,77.527 25.343 C 77.497 25.431,77.395 25.455,77.300 25.396 C 77.206 25.338,77.082 25.356,77.023 25.437 C 76.882 25.632,75.249 26.500,75.025 26.500 C 74.858 26.500,73.818 27.131,73.382 27.498 C 73.271 27.591,73.103 27.667,73.007 27.667 C 72.911 27.667,72.833 27.742,72.833 27.833 C 72.833 27.925,72.771 27.981,72.695 27.958 C 72.557 27.917,71.052 29.122,70.471 29.740 C 70.304 29.917,70.167 30.011,70.167 29.948 C 70.167 29.885,70.017 29.983,69.833 30.167 C 69.650 30.350,69.500 30.563,69.500 30.640 C 69.500 30.717,69.313 30.865,69.083 30.970 C 68.854 31.074,68.667 31.230,68.667 31.315 C 68.667 31.401,68.423 31.723,68.125 32.031 C 67.225 32.959,65.333 35.657,65.333 36.012 C 65.333 36.097,65.261 36.167,65.172 36.167 C 65.083 36.167,65.050 36.269,65.098 36.395 C 65.146 36.521,65.069 36.668,64.926 36.723 C 64.783 36.778,64.667 36.929,64.667 37.058 C 64.667 37.187,64.566 37.376,64.444 37.478 C 64.321 37.579,64.126 37.977,64.011 38.361 C 63.896 38.745,63.691 39.229,63.554 39.437 C 63.418 39.646,63.313 39.857,63.320 39.908 C 63.372 40.266,63.310 40.505,63.186 40.429 C 63.043 40.340,62.667 41.540,62.667 42.086 C 62.667 42.235,62.559 42.465,62.427 42.597 C 62.295 42.729,62.136 43.175,62.074 43.587 C 62.012 44.000,61.895 44.378,61.814 44.429 C 61.733 44.479,61.667 44.735,61.667 44.997 C 61.667 45.666,61.299 47.228,61.111 47.357 C 61.025 47.416,60.995 47.675,61.044 47.932 C 61.093 48.189,61.076 48.554,61.006 48.742 C 60.832 49.209,60.612 51.872,60.653 53.026 C 60.671 53.545,60.607 54.017,60.510 54.077 C 60.271 54.225,60.272 57.333,60.511 57.333 C 60.622 57.333,60.674 57.725,60.650 58.375 C 60.611 59.441,60.757 61.560,60.952 62.750 C 61.011 63.117,61.070 63.492,61.081 63.583 C 61.093 63.675,61.148 63.862,61.204 64.000 C 61.259 64.137,61.346 64.512,61.396 64.833 C 61.445 65.154,61.537 65.642,61.598 65.917 C 61.660 66.192,61.705 66.548,61.699 66.708 C 61.692 66.869,61.748 67.000,61.822 67.000 C 61.896 67.000,62.049 67.469,62.161 68.042 C 62.274 68.615,62.439 69.128,62.527 69.183 C 62.615 69.238,62.728 69.538,62.776 69.850 C 62.825 70.162,62.932 70.499,63.014 70.599 C 63.096 70.699,63.114 70.830,63.054 70.890 C 62.994 70.951,63.016 71.000,63.103 71.000 C 63.189 71.000,63.360 71.337,63.482 71.750 C 63.604 72.162,63.775 72.500,63.862 72.500 C 63.949 72.500,63.977 72.570,63.924 72.655 C 63.871 72.740,63.904 72.857,63.997 72.915 C 64.090 72.973,64.167 73.162,64.167 73.335 C 64.167 73.508,64.298 73.727,64.458 73.820 C 64.642 73.927,64.668 73.992,64.530 73.995 C 64.347 73.999,64.347 74.042,64.530 74.244 C 64.938 74.697,65.102 74.916,65.157 75.083 C 65.321 75.581,65.747 76.333,65.864 76.333 C 65.939 76.333,66.001 76.427,66.003 76.542 C 66.004 76.656,66.192 76.927,66.420 77.142 C 66.647 77.358,66.833 77.624,66.833 77.734 C 66.833 77.843,67.093 78.192,67.411 78.508 C 67.729 78.824,67.992 79.173,67.995 79.282 C 67.998 79.391,68.087 79.534,68.192 79.599 C 68.320 79.678,68.339 79.644,68.250 79.500 C 68.158 79.352,68.180 79.322,68.318 79.407 C 68.429 79.476,68.593 79.723,68.682 79.956 C 68.770 80.189,68.890 80.332,68.948 80.274 C 69.006 80.216,69.135 80.329,69.235 80.524 C 69.335 80.719,69.488 80.863,69.575 80.844 C 69.662 80.825,69.792 80.966,69.863 81.158 C 69.934 81.350,70.118 81.556,70.271 81.615 C 70.425 81.674,70.800 81.953,71.104 82.236 C 71.879 82.957,72.197 83.225,72.504 83.417 C 72.651 83.508,73.066 83.771,73.427 83.999 C 73.788 84.228,74.112 84.391,74.148 84.360 C 74.184 84.330,74.259 84.373,74.315 84.457 C 74.371 84.540,74.867 84.828,75.417 85.096 C 75.967 85.364,76.472 85.658,76.539 85.750 C 76.606 85.842,76.663 85.856,76.664 85.782 C 76.666 85.708,76.833 85.765,77.037 85.907 C 77.241 86.050,77.535 86.167,77.690 86.167 C 77.845 86.167,77.997 86.235,78.028 86.318 C 78.058 86.401,78.346 86.512,78.667 86.564 C 78.987 86.616,79.512 86.735,79.832 86.829 C 80.654 87.070,94.212 87.057,95.367 86.814 C 95.853 86.712,96.587 86.474,97.000 86.285 C 97.412 86.096,97.888 85.929,98.057 85.914 C 98.226 85.899,98.413 85.811,98.474 85.718 C 98.534 85.624,98.865 85.457,99.208 85.345 C 99.552 85.233,99.833 85.072,99.833 84.987 C 99.833 84.903,99.946 84.833,100.083 84.833 C 100.221 84.833,100.483 84.683,100.667 84.500 C 100.850 84.317,101.000 84.206,101.000 84.254 C 101.000 84.444,101.966 83.829,102.062 83.579 C 102.118 83.432,102.226 83.351,102.302 83.397 C 102.378 83.444,102.847 83.149,103.344 82.741 C 103.841 82.334,104.304 82.000,104.374 82.000 C 104.443 82.000,104.481 81.909,104.458 81.798 C 104.435 81.687,104.585 81.519,104.792 81.425 C 104.998 81.331,105.167 81.160,105.167 81.044 C 105.167 80.928,105.286 80.833,105.432 80.833 C 105.578 80.833,105.737 80.683,105.785 80.500 C 105.833 80.317,105.958 80.167,106.063 80.167 C 106.253 80.167,106.532 79.857,107.493 78.583 C 107.770 78.217,108.054 77.842,108.124 77.750 C 108.506 77.254,108.903 76.567,108.870 76.458 C 108.850 76.390,108.892 76.333,108.964 76.333 C 109.036 76.333,109.317 75.902,109.589 75.375 C 109.861 74.848,110.140 74.392,110.208 74.361 C 110.277 74.331,110.333 74.208,110.333 74.090 C 110.333 73.971,110.449 73.778,110.591 73.660 C 110.733 73.543,110.808 73.342,110.759 73.215 C 110.711 73.087,110.745 73.029,110.835 73.085 C 110.926 73.141,111.000 73.051,111.001 72.885 C 111.001 72.719,111.154 72.334,111.340 72.028 C 111.526 71.723,111.587 71.529,111.477 71.598 C 111.366 71.666,111.401 71.543,111.555 71.324 C 111.708 71.105,111.833 70.793,111.833 70.630 C 111.833 70.467,111.916 70.333,112.018 70.333 C 112.119 70.333,112.159 70.221,112.106 70.083 C 112.054 69.946,112.077 69.833,112.157 69.833 C 112.238 69.833,112.357 69.515,112.422 69.125 C 112.488 68.735,112.606 68.375,112.685 68.325 C 112.764 68.274,112.862 67.974,112.903 67.658 C 112.944 67.342,112.989 67.083,113.002 67.083 C 113.016 67.083,113.064 66.860,113.108 66.586 C 113.152 66.313,113.240 66.051,113.303 66.003 C 113.365 65.956,113.412 65.767,113.406 65.583 C 113.400 65.400,113.436 65.175,113.487 65.083 C 113.595 64.886,113.574 64.991,113.741 63.779 C 113.815 63.244,113.875 62.627,113.875 62.407 C 113.875 62.186,113.932 62.041,114.002 62.085 C 114.299 62.268,114.359 49.521,114.063 49.150 C 113.893 48.936,113.807 48.462,113.551 46.333 C 113.502 45.921,113.380 45.482,113.280 45.359 C 113.181 45.236,113.091 44.973,113.080 44.776 C 113.029 43.799,112.991 43.653,112.815 43.761 C 112.691 43.838,112.668 43.758,112.746 43.513 C 112.809 43.314,112.788 43.061,112.700 42.950 C 112.611 42.840,112.485 42.487,112.420 42.167 C 112.354 41.846,112.201 41.426,112.079 41.233 C 111.957 41.040,111.806 40.609,111.744 40.274 C 111.681 39.940,111.558 39.667,111.472 39.667 C 111.385 39.667,111.360 39.592,111.417 39.500 C 111.473 39.408,111.446 39.333,111.356 39.333 C 111.267 39.333,111.141 39.096,111.077 38.805 C 111.013 38.515,110.639 37.733,110.246 37.068 C 109.853 36.402,109.574 35.815,109.627 35.762 C 109.679 35.710,109.644 35.667,109.548 35.667 C 109.452 35.667,109.280 35.440,109.165 35.163 C 109.050 34.886,108.849 34.599,108.718 34.525 C 108.586 34.452,108.463 34.285,108.444 34.154 C 108.425 34.024,108.343 33.905,108.261 33.890 C 108.121 33.865,107.764 33.351,107.754 33.163 C 107.743 32.939,104.834 29.758,104.833 29.968 C 104.832 30.032,104.577 29.821,104.265 29.500 C 103.620 28.836,103.132 28.417,103.004 28.417 C 102.956 28.417,102.748 28.248,102.542 28.042 C 102.193 27.693,101.953 27.592,101.613 27.651 C 101.537 27.664,101.523 27.598,101.581 27.504 C 101.639 27.410,101.569 27.333,101.427 27.333 C 101.284 27.333,101.167 27.254,101.167 27.157 C 101.167 27.060,101.091 27.027,100.999 27.084 C 100.907 27.141,100.787 27.073,100.733 26.934 C 100.643 26.697,100.056 26.398,99.808 26.462 C 99.748 26.477,99.607 26.379,99.496 26.245 C 99.384 26.110,99.182 26.000,99.047 26.000 C 98.912 26.000,98.602 25.858,98.359 25.685 C 98.116 25.512,97.579 25.274,97.167 25.156 C 96.754 25.038,96.342 24.888,96.250 24.823 C 96.088 24.709,95.610 24.588,94.587 24.403 C 94.314 24.353,94.046 24.241,93.992 24.154 C 93.938 24.066,93.581 24.025,93.198 24.063 C 92.816 24.100,92.538 24.074,92.580 24.005 C 92.791 23.665,84.832 23.552,82.667 23.866 M172.500 26.154 C 172.500 26.238,172.266 26.541,171.981 26.827 C 171.339 27.468,171.332 28.922,171.964 30.135 C 172.167 30.525,172.333 30.991,172.333 31.172 C 172.333 31.352,172.399 31.500,172.479 31.500 C 172.559 31.500,172.760 32.156,172.926 32.958 C 173.092 33.760,173.284 34.456,173.353 34.503 C 173.422 34.551,173.573 35.563,173.689 36.753 C 173.804 37.943,173.961 38.960,174.037 39.012 C 174.113 39.065,174.233 41.814,174.303 45.120 C 174.384 48.936,174.496 51.215,174.609 51.358 C 174.706 51.482,174.835 51.846,174.894 52.167 C 174.953 52.487,175.106 52.975,175.234 53.250 C 175.363 53.525,175.551 53.938,175.654 54.167 C 175.756 54.396,176.022 54.883,176.245 55.250 C 176.468 55.617,176.704 56.029,176.769 56.167 C 176.835 56.304,177.176 56.704,177.527 57.054 C 177.879 57.405,178.167 57.762,178.167 57.846 C 178.167 57.931,178.247 58.000,178.345 58.000 C 178.442 58.000,178.761 58.249,179.053 58.554 C 179.345 58.859,179.715 59.156,179.875 59.215 C 180.035 59.275,180.167 59.386,180.167 59.464 C 180.167 59.541,180.429 59.707,180.750 59.833 C 181.071 59.959,181.333 60.108,181.333 60.164 C 181.333 60.220,181.615 60.363,181.958 60.480 C 182.302 60.598,182.838 60.809,183.149 60.950 C 183.460 61.090,184.022 61.245,184.399 61.294 C 184.775 61.343,185.130 61.455,185.187 61.542 C 185.244 61.630,186.147 61.712,187.194 61.726 L 189.096 61.750 189.798 61.035 C 190.810 60.004,190.816 59.002,189.815 57.982 L 189.131 57.283 187.237 57.166 C 186.195 57.101,185.247 56.976,185.130 56.888 C 185.013 56.799,184.598 56.626,184.208 56.503 C 183.819 56.380,183.500 56.217,183.500 56.140 C 183.500 56.063,183.385 56.000,183.245 56.000 C 183.104 56.000,182.947 55.888,182.894 55.751 C 182.841 55.614,182.737 55.540,182.663 55.586 C 182.588 55.632,182.371 55.472,182.180 55.229 C 181.989 54.987,181.833 54.835,181.833 54.892 C 181.833 55.092,180.398 53.515,180.159 53.052 C 180.026 52.794,179.878 52.546,179.830 52.500 C 179.654 52.331,179.333 51.475,179.333 51.173 C 179.333 51.001,179.242 50.831,179.131 50.794 C 178.980 50.743,178.893 49.187,178.789 44.745 C 178.713 41.456,178.586 38.686,178.507 38.591 C 178.429 38.495,178.310 37.648,178.244 36.708 C 178.178 35.769,178.050 35.000,177.959 35.000 C 177.869 35.000,177.830 34.813,177.874 34.583 C 177.918 34.354,177.899 34.167,177.832 34.167 C 177.765 34.167,177.659 33.717,177.597 33.167 C 177.534 32.617,177.403 32.167,177.304 32.167 C 177.194 32.167,177.163 31.974,177.225 31.667 C 177.280 31.392,177.264 31.167,177.189 31.167 C 177.114 31.167,176.961 30.755,176.849 30.253 C 176.736 29.750,176.583 29.301,176.508 29.255 C 176.433 29.208,176.323 28.915,176.264 28.602 C 176.206 28.289,176.052 27.946,175.923 27.839 C 175.794 27.731,175.640 27.423,175.580 27.152 C 175.406 26.361,172.500 25.419,172.500 26.154 M89.213 44.569 C 89.539 44.790,89.850 44.928,89.903 44.875 C 89.956 44.821,90.000 44.854,90.000 44.948 C 90.000 45.041,90.190 45.335,90.421 45.601 C 91.083 46.359,91.113 46.410,91.033 46.652 C 90.991 46.777,91.032 46.833,91.124 46.776 C 91.221 46.716,91.339 46.967,91.403 47.370 C 91.464 47.753,91.596 48.164,91.694 48.283 C 91.793 48.403,91.818 48.500,91.750 48.500 C 91.682 48.500,91.701 48.594,91.794 48.708 C 91.988 48.949,92.367 51.078,92.367 51.927 C 92.367 52.243,92.434 52.543,92.517 52.594 C 92.736 52.729,92.711 59.000,92.492 59.000 C 92.393 59.000,92.321 59.344,92.326 59.792 C 92.338 60.790,91.990 62.833,91.808 62.833 C 91.732 62.833,91.622 63.138,91.562 63.511 C 91.503 63.884,91.370 64.278,91.269 64.386 C 91.167 64.495,90.973 64.808,90.837 65.083 C 89.814 67.163,86.597 67.997,85.347 66.506 C 84.477 65.468,84.083 64.957,84.077 64.860 C 84.074 64.799,83.978 64.581,83.863 64.375 C 83.749 64.169,83.704 64.000,83.765 64.000 C 83.825 64.000,83.781 63.887,83.667 63.750 C 83.553 63.612,83.515 63.500,83.583 63.500 C 83.652 63.500,83.630 63.406,83.536 63.292 C 83.442 63.177,83.278 62.596,83.171 62.000 C 83.065 61.404,82.919 60.804,82.847 60.667 C 82.775 60.529,82.743 60.243,82.775 60.032 C 82.808 59.820,82.750 59.490,82.648 59.298 C 82.416 58.865,82.424 52.317,82.656 52.173 C 82.742 52.120,82.791 51.815,82.763 51.496 C 82.736 51.178,82.769 50.842,82.837 50.750 C 82.906 50.658,83.003 50.230,83.054 49.799 C 83.105 49.368,83.230 48.860,83.331 48.671 C 83.433 48.481,83.470 48.253,83.415 48.163 C 83.359 48.073,83.385 48.000,83.472 48.000 C 83.558 48.000,83.679 47.737,83.739 47.417 C 83.799 47.096,83.905 46.833,83.974 46.833 C 84.043 46.833,84.189 46.586,84.298 46.284 C 84.993 44.364,87.581 43.461,89.213 44.569 M60.619 56.625 C 60.581 56.877,60.550 56.671,60.550 56.167 C 60.550 55.663,60.581 55.456,60.619 55.708 C 60.658 55.960,60.658 56.373,60.619 56.625 M186.667 66.459 C 186.346 66.619,186.009 66.919,185.919 67.125 C 185.828 67.331,185.697 67.500,185.627 67.500 C 185.377 67.500,185.501 69.142,185.790 69.645 C 186.396 70.702,188.429 70.884,189.369 69.965 C 191.159 68.215,188.933 65.327,186.667 66.459 " stroke="none" fill="#cc9c34" fill-rule="evenodd"></path><path id="path1" d="M221.571 43.750 C 221.572 45.858,221.595 46.698,221.625 45.616 C 221.654 44.533,221.654 42.808,221.624 41.782 C 221.595 40.756,221.571 41.642,221.571 43.750 M170.039 51.333 C 170.039 51.654,170.073 51.785,170.115 51.625 C 170.157 51.465,170.157 51.202,170.115 51.042 C 170.073 50.881,170.039 51.012,170.039 51.333 M60.548 53.250 C 60.549 53.708,60.581 53.876,60.620 53.623 C 60.658 53.369,60.657 52.994,60.617 52.789 C 60.578 52.584,60.546 52.792,60.548 53.250 M60.550 56.167 C 60.550 56.671,60.581 56.877,60.619 56.625 C 60.658 56.373,60.658 55.960,60.619 55.708 C 60.581 55.456,60.550 55.663,60.550 56.167 M60.548 58.083 C 60.549 58.542,60.581 58.709,60.620 58.456 C 60.658 58.203,60.657 57.828,60.617 57.623 C 60.578 57.418,60.546 57.625,60.548 58.083 " stroke="none" fill="#d09c34" fill-rule="evenodd"></path><path id="path2" d="M221.571 43.750 C 221.572 45.858,221.595 46.698,221.625 45.616 C 221.654 44.533,221.654 42.808,221.624 41.782 C 221.595 40.756,221.571 41.642,221.571 43.750 M170.039 51.333 C 170.039 51.654,170.073 51.785,170.115 51.625 C 170.157 51.465,170.157 51.202,170.115 51.042 C 170.073 50.881,170.039 51.012,170.039 51.333 M60.548 53.250 C 60.549 53.708,60.581 53.876,60.620 53.623 C 60.658 53.369,60.657 52.994,60.617 52.789 C 60.578 52.584,60.546 52.792,60.548 53.250 M60.550 56.167 C 60.550 56.671,60.581 56.877,60.619 56.625 C 60.658 56.373,60.658 55.960,60.619 55.708 C 60.581 55.456,60.550 55.663,60.550 56.167 M60.548 58.083 C 60.549 58.542,60.581 58.709,60.620 58.456 C 60.658 58.203,60.657 57.828,60.617 57.623 C 60.578 57.418,60.546 57.625,60.548 58.083 " stroke="none" fill="#d09c34" fill-rule="evenodd"></path><path id="path3" d="M221.571 43.750 C 221.572 45.858,221.595 46.698,221.625 45.616 C 221.654 44.533,221.654 42.808,221.624 41.782 C 221.595 40.756,221.571 41.642,221.571 43.750 M170.039 51.333 C 170.039 51.654,170.073 51.785,170.115 51.625 C 170.157 51.465,170.157 51.202,170.115 51.042 C 170.073 50.881,170.039 51.012,170.039 51.333 M60.548 53.250 C 60.549 53.708,60.581 53.876,60.620 53.623 C 60.658 53.369,60.657 52.994,60.617 52.789 C 60.578 52.584,60.546 52.792,60.548 53.250 M60.550 56.167 C 60.550 56.671,60.581 56.877,60.619 56.625 C 60.658 56.373,60.658 55.960,60.619 55.708 C 60.581 55.456,60.550 55.663,60.550 56.167 M60.548 58.083 C 60.549 58.542,60.581 58.709,60.620 58.456 C 60.658 58.203,60.657 57.828,60.617 57.623 C 60.578 57.418,60.546 57.625,60.548 58.083 " stroke="none" fill="#d09c34" fill-rule="evenodd"></path><path id="path4" d="M221.571 43.750 C 221.572 45.858,221.595 46.698,221.625 45.616 C 221.654 44.533,221.654 42.808,221.624 41.782 C 221.595 40.756,221.571 41.642,221.571 43.750 M170.039 51.333 C 170.039 51.654,170.073 51.785,170.115 51.625 C 170.157 51.465,170.157 51.202,170.115 51.042 C 170.073 50.881,170.039 51.012,170.039 51.333 M60.548 53.250 C 60.549 53.708,60.581 53.876,60.620 53.623 C 60.658 53.369,60.657 52.994,60.617 52.789 C 60.578 52.584,60.546 52.792,60.548 53.250 M60.550 56.167 C 60.550 56.671,60.581 56.877,60.619 56.625 C 60.658 56.373,60.658 55.960,60.619 55.708 C 60.581 55.456,60.550 55.663,60.550 56.167 M60.548 58.083 C 60.549 58.542,60.581 58.709,60.620 58.456 C 60.658 58.203,60.657 57.828,60.617 57.623 C 60.578 57.418,60.546 57.625,60.548 58.083 " stroke="none" fill="#d09c34" fill-rule="evenodd"></path></g></svg>