<svg id="svg" version="1.1" xmlns="http://www.w3.org/2000/svg" xmlns:xlink="http://www.w3.org/1999/xlink" width="400" height="91.63477310005467" viewBox="0, 0, 400,91.63477310005467"><g id="svgg"><path id="path0" d="M185.213 15.419 C 182.328 16.045,178.667 19.413,178.667 21.439 C 178.667 21.628,180.070 21.667,187.011 21.667 L 195.356 21.667 195.243 21.292 C 194.029 17.252,189.359 14.518,185.213 15.419 M164.172 24.213 C 163.328 24.640,162.965 25.456,163.030 26.783 L 163.089 27.982 164.522 29.449 C 168.289 33.307,169.265 36.695,169.502 46.750 C 169.745 57.078,172.012 61.616,178.801 65.368 C 180.519 66.317,180.583 66.451,180.583 69.076 C 180.583 72.847,182.186 75.081,185.502 75.930 C 189.801 77.032,194.094 73.072,193.384 68.660 C 193.090 66.838,193.446 66.251,195.539 65.102 C 201.281 61.952,204.329 56.319,204.336 48.846 C 204.346 37.963,205.863 32.312,209.607 29.209 C 211.241 27.854,211.360 25.179,209.827 24.273 C 209.213 23.910,164.884 23.853,164.172 24.213 M201.793 28.499 C 203.128 29.313,203.239 30.104,202.342 32.400 C 200.734 36.516,200.355 38.960,200.168 46.417 C 199.986 53.680,199.558 55.354,197.123 58.331 C 193.164 63.169,184.359 65.027,184.304 61.035 C 184.282 59.462,185.045 58.836,187.207 58.654 C 190.478 58.378,192.860 57.014,194.324 54.581 C 195.467 52.682,195.534 52.290,195.683 46.667 C 196.028 33.663,198.451 26.461,201.793 28.499 M188.461 68.071 C 189.909 69.398,188.981 71.833,187.027 71.833 C 185.931 71.833,185.160 71.313,184.859 70.370 C 184.159 68.172,186.759 66.511,188.461 68.071 M10.958 86.625 C 14.006 86.650,18.994 86.650,22.042 86.625 C 25.090 86.599,22.596 86.579,16.500 86.579 C 10.404 86.579,7.910 86.599,10.958 86.625 M40.708 86.625 C 43.710 86.650,48.623 86.650,51.625 86.625 C 54.627 86.599,52.171 86.579,46.167 86.579 C 40.162 86.579,37.706 86.599,40.708 86.625 M130.471 86.625 C 133.617 86.650,138.717 86.650,141.804 86.625 C 144.891 86.600,142.317 86.579,136.083 86.579 C 129.850 86.579,127.324 86.600,130.471 86.625 M236.554 86.625 C 240.021 86.650,245.646 86.650,249.054 86.625 C 252.462 86.600,249.625 86.579,242.750 86.579 C 235.875 86.579,233.087 86.600,236.554 86.625 M272.875 86.625 C 275.877 86.650,280.790 86.650,283.792 86.625 C 286.794 86.599,284.337 86.579,278.333 86.579 C 272.329 86.579,269.873 86.599,272.875 86.625 M308.458 86.625 C 311.965 86.650,317.702 86.650,321.208 86.625 C 324.715 86.600,321.846 86.579,314.833 86.579 C 307.821 86.579,304.952 86.600,308.458 86.625 " stroke="none" fill="#2c2c2c" fill-rule="evenodd"></path><path id="path1" d="M366.083 2.827 C 365.900 2.903,365.037 3.056,364.167 3.167 C 363.296 3.278,362.508 3.429,362.417 3.502 C 362.325 3.575,361.781 3.727,361.208 3.839 C 360.635 3.952,360.167 4.096,360.167 4.160 C 360.167 4.224,359.799 4.361,359.351 4.464 C 358.649 4.626,357.408 5.185,354.695 6.560 C 354.359 6.731,354.058 6.937,354.028 7.019 C 353.997 7.100,353.892 7.167,353.794 7.167 C 353.695 7.167,353.369 7.354,353.069 7.583 C 352.768 7.813,352.475 8.000,352.418 8.000 C 352.327 8.000,351.292 8.767,350.731 9.250 C 350.035 9.850,348.093 11.620,347.938 11.797 C 347.834 11.914,347.488 12.295,347.167 12.643 C 346.846 12.990,346.386 13.532,346.144 13.846 C 345.902 14.160,345.565 14.579,345.394 14.778 C 344.694 15.592,344.517 15.824,344.324 16.185 C 344.213 16.392,344.054 16.642,343.970 16.740 C 343.602 17.171,342.667 18.759,342.667 18.953 C 342.667 19.070,342.607 19.167,342.535 19.167 C 342.462 19.167,342.291 19.410,342.154 19.708 C 342.018 20.006,341.709 20.625,341.469 21.083 C 340.565 22.808,339.417 25.637,339.241 26.572 C 339.180 26.899,339.071 27.167,339.000 27.167 C 338.928 27.167,338.773 27.654,338.654 28.250 C 338.536 28.846,338.390 29.333,338.329 29.333 C 338.269 29.333,338.124 29.877,338.007 30.542 C 337.890 31.206,337.732 31.828,337.656 31.924 C 337.579 32.019,337.428 32.807,337.319 33.674 C 337.211 34.541,337.066 35.325,336.997 35.417 C 336.255 36.406,336.255 54.928,336.997 55.917 C 337.066 56.008,337.217 56.815,337.333 57.708 C 337.448 58.602,337.594 59.333,337.656 59.333 C 337.718 59.333,337.861 59.884,337.974 60.556 C 338.087 61.229,338.240 61.848,338.313 61.931 C 338.387 62.015,338.538 62.510,338.650 63.031 C 338.761 63.552,338.907 64.002,338.974 64.031 C 339.041 64.060,339.217 64.496,339.365 65.000 C 339.691 66.115,340.332 67.855,340.500 68.083 C 340.568 68.175,340.714 68.531,340.825 68.875 C 340.935 69.219,341.089 69.500,341.166 69.500 C 341.244 69.500,341.356 69.726,341.417 70.002 C 341.478 70.278,341.615 70.596,341.722 70.710 C 341.829 70.824,342.047 71.179,342.207 71.500 C 342.367 71.821,342.592 72.231,342.707 72.411 C 342.822 72.591,343.250 73.266,343.657 73.911 C 344.374 75.046,344.575 75.322,345.715 76.750 C 346.265 77.438,349.795 80.954,350.618 81.634 C 351.690 82.518,351.891 82.667,352.014 82.667 C 352.085 82.667,352.246 82.769,352.371 82.895 C 352.497 83.021,352.858 83.256,353.175 83.418 C 353.491 83.580,353.787 83.766,353.833 83.831 C 353.914 83.945,354.304 84.168,355.500 84.783 C 355.821 84.948,356.106 85.132,356.134 85.192 C 356.161 85.253,356.518 85.400,356.925 85.521 C 357.333 85.641,357.667 85.790,357.667 85.852 C 357.667 85.913,357.873 86.014,358.125 86.075 C 358.377 86.136,359.033 86.363,359.583 86.579 C 360.133 86.795,360.940 87.024,361.375 87.088 C 361.810 87.152,362.167 87.256,362.167 87.318 C 362.167 87.441,364.252 87.833,364.906 87.833 C 365.126 87.833,365.337 87.927,365.375 88.042 C 365.471 88.328,378.418 88.345,379.016 88.059 C 379.237 87.954,380.167 87.775,381.083 87.662 C 382.000 87.549,382.825 87.402,382.917 87.336 C 383.008 87.270,383.758 87.085,384.583 86.925 C 385.408 86.766,386.158 86.578,386.250 86.508 C 386.342 86.439,386.791 86.290,387.248 86.178 C 387.705 86.067,388.155 85.917,388.248 85.845 C 388.341 85.774,388.773 85.613,389.208 85.488 C 389.644 85.363,390.000 85.202,390.000 85.130 C 390.000 85.059,390.100 85.000,390.223 85.000 C 390.505 85.000,393.769 83.354,394.454 82.866 C 394.737 82.665,395.050 82.500,395.151 82.500 C 395.251 82.500,395.333 82.430,395.333 82.345 C 395.333 82.259,395.483 82.142,395.667 82.083 C 395.998 81.978,396.000 81.831,396.000 58.655 L 396.000 35.333 381.749 35.333 L 367.498 35.333 367.540 46.292 L 367.583 57.250 371.042 57.295 L 374.500 57.340 374.497 60.545 C 374.496 62.308,374.437 63.841,374.366 63.952 C 374.140 64.308,372.516 64.538,370.690 64.471 C 368.292 64.385,367.403 63.979,365.546 62.121 C 364.330 60.906,364.162 60.696,363.905 60.080 C 363.777 59.774,363.609 59.484,363.532 59.436 C 363.455 59.389,363.292 59.046,363.169 58.675 C 363.047 58.304,362.892 58.000,362.825 58.000 C 362.758 58.000,362.658 57.756,362.601 57.458 C 362.544 57.160,362.389 56.708,362.257 56.454 C 362.124 56.199,361.926 55.524,361.817 54.954 C 361.708 54.383,361.561 53.841,361.490 53.749 C 361.419 53.658,361.273 52.645,361.167 51.499 C 361.060 50.354,360.903 49.286,360.819 49.127 C 360.634 48.776,360.613 42.500,360.797 42.500 C 360.869 42.500,361.019 41.552,361.130 40.393 C 361.241 39.234,361.395 38.203,361.472 38.101 C 361.549 38.000,361.707 37.467,361.824 36.917 C 361.941 36.367,362.096 35.842,362.168 35.750 C 362.240 35.658,362.394 35.265,362.509 34.875 C 362.625 34.485,362.771 34.167,362.833 34.167 C 362.896 34.167,363.046 33.867,363.167 33.500 C 363.288 33.133,363.436 32.833,363.496 32.833 C 363.556 32.833,363.732 32.567,363.887 32.242 C 364.361 31.247,366.675 28.838,367.513 28.468 C 367.781 28.349,368.000 28.198,368.000 28.133 C 368.000 28.067,368.319 27.920,368.708 27.806 C 369.098 27.693,369.470 27.521,369.536 27.425 C 369.702 27.181,375.537 27.188,375.849 27.432 C 375.978 27.533,376.440 27.711,376.875 27.829 C 377.310 27.947,377.667 28.104,377.667 28.177 C 377.667 28.251,377.835 28.364,378.042 28.429 C 378.248 28.495,378.649 28.725,378.932 28.941 C 379.216 29.157,379.499 29.333,379.560 29.333 C 379.622 29.333,380.160 29.821,380.756 30.417 C 381.352 31.013,381.946 31.500,382.075 31.500 C 382.287 31.500,383.000 30.677,383.000 30.433 C 383.000 30.378,383.131 30.189,383.292 30.012 C 383.767 29.488,383.916 29.280,384.258 28.667 C 384.437 28.346,384.677 28.023,384.792 27.950 C 384.906 27.877,385.000 27.712,385.000 27.583 C 385.000 27.455,385.094 27.290,385.208 27.217 C 385.489 27.037,386.500 25.575,386.500 25.348 C 386.500 25.248,386.577 25.167,386.672 25.167 C 386.767 25.167,386.898 25.035,386.964 24.875 C 387.154 24.411,388.060 23.096,388.290 22.950 C 388.406 22.877,388.500 22.738,388.500 22.643 C 388.500 22.547,388.837 22.025,389.250 21.482 C 389.662 20.940,390.000 20.422,390.000 20.331 C 390.000 20.241,390.077 20.167,390.172 20.167 C 390.267 20.167,390.398 20.035,390.464 19.875 C 390.654 19.411,391.560 18.096,391.790 17.950 C 391.906 17.877,392.000 17.744,392.000 17.656 C 392.000 17.526,393.020 16.010,393.619 15.250 C 393.691 15.158,394.050 14.633,394.417 14.083 C 394.783 13.533,395.140 13.058,395.208 13.028 C 395.796 12.767,391.266 8.319,390.004 7.918 C 389.819 7.859,389.667 7.746,389.667 7.666 C 389.667 7.587,389.404 7.427,389.083 7.311 C 388.762 7.195,388.500 7.045,388.500 6.977 C 388.500 6.910,388.238 6.760,387.917 6.644 C 387.596 6.528,387.333 6.385,387.333 6.327 C 387.333 6.268,387.015 6.117,386.625 5.992 C 386.235 5.867,385.879 5.712,385.833 5.648 C 385.725 5.497,384.018 4.887,382.750 4.547 C 382.200 4.399,381.712 4.227,381.667 4.163 C 381.621 4.100,381.058 3.953,380.417 3.836 C 379.775 3.719,379.175 3.566,379.083 3.497 C 378.883 3.346,376.371 3.000,375.473 3.000 C 375.121 3.000,374.833 2.925,374.833 2.833 C 374.833 2.629,366.576 2.623,366.083 2.827 M5.167 45.250 L 5.167 86.500 16.407 86.500 L 27.648 86.500 27.699 68.026 C 27.734 55.181,27.805 49.480,27.929 49.317 C 28.028 49.189,28.204 48.746,28.320 48.333 C 28.644 47.188,29.594 46.016,30.208 46.005 C 30.369 46.002,30.500 45.925,30.500 45.833 C 30.500 45.548,32.302 45.639,32.798 45.950 C 34.838 47.227,34.831 47.144,34.832 68.792 L 34.833 86.500 46.095 86.500 L 57.356 86.500 57.285 65.542 C 57.216 45.294,57.119 41.269,56.677 40.250 C 56.598 40.067,56.442 39.354,56.330 38.667 C 56.219 37.979,56.070 37.342,56.000 37.250 C 55.929 37.158,55.817 36.821,55.750 36.500 C 55.684 36.179,55.493 35.614,55.327 35.244 C 55.160 34.874,54.973 34.368,54.911 34.119 C 54.848 33.870,54.738 33.667,54.667 33.667 C 54.595 33.667,54.490 33.484,54.434 33.262 C 54.379 33.039,54.239 32.758,54.125 32.637 C 54.010 32.516,53.806 32.192,53.671 31.917 C 53.537 31.642,53.342 31.304,53.239 31.167 C 52.851 30.649,49.978 27.833,49.837 27.833 C 49.757 27.833,49.591 27.737,49.470 27.619 C 49.179 27.335,48.100 26.833,47.780 26.833 C 47.641 26.833,47.503 26.758,47.472 26.667 C 47.442 26.575,46.967 26.408,46.417 26.296 C 45.867 26.184,45.363 26.015,45.298 25.921 C 45.130 25.679,37.529 25.688,37.369 25.930 C 37.304 26.029,36.781 26.208,36.208 26.328 C 35.635 26.448,35.167 26.595,35.167 26.657 C 35.167 26.718,34.792 26.902,34.333 27.067 C 33.875 27.232,33.500 27.422,33.500 27.490 C 33.500 27.558,33.331 27.690,33.125 27.784 C 32.090 28.257,29.438 30.950,28.973 32.001 C 28.851 32.275,28.702 32.500,28.641 32.500 C 28.580 32.500,28.354 32.856,28.140 33.292 L 27.750 34.083 27.707 19.042 L 27.665 4.000 16.416 4.000 L 5.167 4.000 5.167 45.250 M124.375 45.375 L 124.417 86.417 135.958 86.459 L 147.500 86.502 147.500 45.418 L 147.500 4.333 135.916 4.333 L 124.333 4.333 124.375 45.375 M158.667 45.583 L 158.667 86.333 174.080 86.333 C 188.577 86.333,193.573 86.208,193.833 85.839 C 193.879 85.774,194.610 85.623,195.458 85.503 C 196.306 85.383,197.000 85.233,197.000 85.169 C 197.000 85.105,197.525 84.960,198.167 84.845 C 198.808 84.730,199.333 84.580,199.333 84.511 C 199.333 84.443,199.746 84.294,200.250 84.181 C 200.754 84.068,201.167 83.920,201.167 83.852 C 201.167 83.783,201.579 83.598,202.083 83.439 C 202.588 83.280,203.000 83.087,203.000 83.010 C 203.000 82.933,203.266 82.820,203.592 82.759 C 203.918 82.698,204.222 82.551,204.267 82.431 C 204.313 82.312,204.647 82.117,205.009 81.997 C 205.371 81.878,205.667 81.731,205.667 81.671 C 205.667 81.611,205.929 81.459,206.250 81.333 C 206.571 81.207,206.833 81.047,206.833 80.977 C 206.833 80.906,207.089 80.728,207.402 80.579 C 207.714 80.431,208.101 80.165,208.261 79.988 C 208.421 79.811,208.608 79.667,208.678 79.667 C 208.928 79.667,212.230 76.469,213.333 75.158 C 213.654 74.776,214.029 74.339,214.167 74.185 C 214.304 74.032,214.523 73.703,214.653 73.453 C 214.783 73.204,214.941 73.000,215.003 73.000 C 215.065 73.000,215.257 72.681,215.428 72.292 C 215.600 71.902,215.836 71.523,215.954 71.450 C 216.071 71.377,216.167 71.213,216.167 71.087 C 216.167 70.961,216.268 70.756,216.392 70.632 C 216.515 70.509,216.708 70.128,216.821 69.787 C 216.934 69.446,217.083 69.167,217.153 69.167 C 217.223 69.167,217.370 68.867,217.480 68.500 C 217.590 68.133,217.738 67.833,217.809 67.833 C 217.879 67.833,218.037 67.440,218.159 66.958 C 218.281 66.477,218.430 66.046,218.490 66.000 C 218.644 65.883,219.167 64.194,219.167 63.814 C 219.167 63.641,219.236 63.500,219.321 63.500 C 219.406 63.500,219.567 62.938,219.677 62.250 C 219.788 61.563,219.934 61.000,220.001 61.000 C 220.069 61.000,220.218 60.287,220.333 59.417 C 220.449 58.546,220.596 57.833,220.661 57.833 C 220.786 57.833,221.167 54.673,221.167 53.639 C 221.167 53.298,221.259 52.997,221.375 52.958 C 221.652 52.866,221.681 39.053,221.405 38.869 C 221.307 38.804,221.133 37.626,221.019 36.253 C 220.904 34.879,220.749 33.717,220.675 33.669 C 220.600 33.622,220.444 32.890,220.329 32.042 C 220.214 31.194,220.065 30.500,219.999 30.500 C 219.933 30.500,219.788 29.937,219.677 29.250 C 219.567 28.562,219.420 28.000,219.352 28.000 C 219.284 28.000,219.130 27.509,219.011 26.909 C 218.892 26.309,218.702 25.726,218.589 25.613 C 218.477 25.501,218.291 25.017,218.176 24.538 C 218.061 24.059,217.902 23.667,217.823 23.667 C 217.745 23.667,217.587 23.348,217.473 22.958 C 217.359 22.569,217.221 22.212,217.165 22.167 C 217.110 22.121,216.966 21.840,216.845 21.542 C 216.725 21.244,216.566 21.000,216.493 21.000 C 216.419 21.000,216.273 20.738,216.167 20.417 C 216.061 20.096,215.913 19.833,215.839 19.833 C 215.764 19.833,215.583 19.533,215.436 19.167 C 215.289 18.800,215.112 18.500,215.042 18.500 C 214.972 18.500,214.808 18.256,214.678 17.958 C 214.547 17.660,214.304 17.319,214.137 17.199 C 213.970 17.079,213.833 16.905,213.833 16.813 C 213.833 16.720,213.571 16.397,213.250 16.094 C 212.929 15.792,212.667 15.487,212.667 15.416 C 212.667 15.254,210.260 12.833,210.098 12.833 C 210.032 12.833,209.730 12.571,209.427 12.250 C 209.125 11.929,208.790 11.667,208.683 11.667 C 208.577 11.667,208.446 11.554,208.393 11.416 C 208.340 11.278,208.024 11.038,207.690 10.883 C 207.356 10.728,207.027 10.509,206.957 10.397 C 206.888 10.285,206.607 10.143,206.332 10.083 C 206.058 10.023,205.833 9.901,205.833 9.811 C 205.833 9.722,205.608 9.571,205.333 9.475 C 205.058 9.379,204.833 9.247,204.833 9.181 C 204.833 9.116,204.571 8.959,204.250 8.833 C 203.929 8.707,203.667 8.562,203.667 8.511 C 203.667 8.459,203.217 8.273,202.667 8.097 C 202.117 7.921,201.667 7.722,201.667 7.654 C 201.667 7.586,201.292 7.435,200.833 7.317 C 200.375 7.200,200.000 7.051,200.000 6.987 C 200.000 6.922,199.512 6.773,198.917 6.654 C 198.321 6.536,197.833 6.385,197.833 6.320 C 197.833 6.255,197.196 6.106,196.417 5.990 C 195.637 5.875,195.000 5.727,195.000 5.663 C 195.000 5.534,192.033 5.167,190.994 5.167 C 190.631 5.167,190.333 5.092,190.333 5.000 C 190.333 4.890,184.944 4.833,174.500 4.833 L 158.667 4.833 158.667 45.583 M230.000 45.667 L 230.000 86.500 242.750 86.500 L 255.500 86.500 255.500 45.667 L 255.500 4.833 242.750 4.833 L 230.000 4.833 230.000 45.667 M267.167 45.667 L 267.167 86.500 278.427 86.500 L 289.687 86.500 289.571 79.042 C 289.508 74.940,289.401 71.508,289.333 71.417 C 289.266 71.325,289.162 67.837,289.104 63.667 C 289.045 59.496,288.962 54.433,288.919 52.417 C 288.856 49.478,288.879 48.866,289.035 49.333 C 289.142 49.654,289.276 49.954,289.333 50.000 C 289.390 50.046,289.537 50.515,289.661 51.042 C 289.785 51.569,289.941 52.000,290.008 52.000 C 290.075 52.000,290.182 52.281,290.247 52.625 C 290.311 52.969,290.498 53.550,290.663 53.917 C 290.828 54.283,291.017 54.846,291.084 55.167 C 291.151 55.487,291.266 55.826,291.341 55.920 C 291.416 56.013,291.604 56.595,291.759 57.212 C 291.914 57.829,292.096 58.333,292.164 58.333 C 292.232 58.333,292.383 58.783,292.500 59.333 C 292.617 59.883,292.767 60.333,292.833 60.333 C 292.900 60.333,293.050 60.783,293.167 61.333 C 293.283 61.883,293.435 62.333,293.504 62.333 C 293.573 62.333,293.682 62.615,293.745 62.958 C 293.809 63.302,293.963 63.808,294.087 64.083 C 294.212 64.358,294.401 64.921,294.507 65.333 C 294.613 65.746,294.760 66.158,294.835 66.250 C 294.909 66.342,295.093 66.893,295.244 67.475 C 295.394 68.057,295.588 68.657,295.674 68.808 C 295.895 69.195,296.833 72.119,296.833 72.419 C 296.833 72.555,296.896 72.667,296.973 72.667 C 297.050 72.667,297.212 73.079,297.333 73.583 C 297.454 74.087,297.604 74.500,297.667 74.500 C 297.729 74.500,297.876 74.931,297.993 75.458 C 298.110 75.985,298.298 76.604,298.412 76.833 C 298.525 77.063,298.709 77.624,298.821 78.081 C 298.933 78.538,299.085 78.988,299.160 79.081 C 299.234 79.174,299.349 79.512,299.416 79.833 C 299.483 80.154,299.672 80.717,299.837 81.083 C 300.002 81.450,300.189 82.031,300.253 82.375 C 300.318 82.719,300.429 83.000,300.500 83.000 C 300.571 83.000,300.682 83.281,300.745 83.625 C 300.809 83.969,300.961 84.475,301.083 84.750 C 301.205 85.025,301.392 85.532,301.499 85.876 L 301.693 86.502 314.805 86.459 L 327.917 86.417 327.917 45.667 L 327.917 4.917 317.000 4.917 L 306.083 4.917 306.078 6.167 C 306.075 6.854,306.125 7.529,306.190 7.667 C 306.297 7.895,306.703 38.092,306.653 42.167 C 306.635 43.718,306.613 43.841,306.459 43.250 C 306.363 42.883,306.232 42.546,306.167 42.500 C 306.102 42.454,305.952 42.004,305.833 41.500 C 305.715 40.996,305.569 40.546,305.508 40.500 C 305.448 40.454,305.231 39.817,305.027 39.083 C 304.250 36.298,304.133 35.912,304.011 35.750 C 303.942 35.658,303.787 35.208,303.667 34.750 C 303.547 34.292,303.393 33.842,303.326 33.750 C 303.259 33.658,303.108 33.152,302.992 32.625 C 302.876 32.098,302.733 31.667,302.675 31.667 C 302.616 31.667,302.469 31.217,302.347 30.667 C 302.225 30.117,302.073 29.667,302.010 29.667 C 301.946 29.667,301.759 29.085,301.594 28.375 C 301.428 27.665,301.239 27.008,301.172 26.917 C 301.106 26.825,300.953 26.375,300.833 25.917 C 300.713 25.458,300.560 25.008,300.493 24.917 C 300.425 24.825,300.275 24.319,300.159 23.792 C 300.042 23.265,299.896 22.833,299.833 22.833 C 299.771 22.833,299.624 22.402,299.508 21.875 C 299.392 21.348,299.238 20.842,299.167 20.750 C 299.095 20.658,298.942 20.152,298.825 19.625 C 298.709 19.098,298.562 18.667,298.500 18.667 C 298.438 18.667,298.292 18.235,298.176 17.708 C 298.061 17.181,297.869 16.525,297.751 16.250 C 297.466 15.588,296.500 12.463,296.500 12.204 C 296.500 12.092,296.435 12.000,296.356 12.000 C 296.277 12.000,296.117 11.550,296.000 11.000 C 295.883 10.450,295.732 10.000,295.663 10.000 C 295.594 10.000,295.446 9.512,295.333 8.917 C 295.221 8.321,295.074 7.833,295.008 7.833 C 294.941 7.833,294.792 7.402,294.676 6.875 C 294.561 6.348,294.353 5.673,294.214 5.375 L 293.962 4.833 280.564 4.833 L 267.167 4.833 267.167 45.667 M188.902 15.496 C 191.853 16.251,194.438 18.614,195.243 21.292 L 195.356 21.667 187.011 21.667 C 180.070 21.667,178.667 21.628,178.667 21.439 C 178.667 20.841,179.956 18.687,180.826 17.831 C 183.053 15.641,186.065 14.771,188.902 15.496 M209.827 24.273 C 211.360 25.179,211.241 27.854,209.607 29.209 C 205.863 32.312,204.346 37.963,204.336 48.846 C 204.329 56.319,201.281 61.952,195.539 65.102 C 193.446 66.251,193.090 66.838,193.384 68.660 C 194.094 73.072,189.801 77.032,185.502 75.930 C 182.186 75.081,180.583 72.847,180.583 69.076 C 180.583 66.451,180.519 66.317,178.801 65.368 C 172.012 61.616,169.745 57.078,169.502 46.750 C 169.265 36.695,168.289 33.307,164.522 29.449 L 163.089 27.982 163.030 26.783 C 162.965 25.456,163.328 24.640,164.172 24.213 C 164.884 23.853,209.213 23.910,209.827 24.273 M87.000 25.964 C 87.000 26.036,86.284 26.179,85.409 26.283 C 84.533 26.388,83.727 26.544,83.617 26.631 C 83.507 26.718,83.004 26.884,82.500 26.999 C 81.298 27.273,78.551 28.479,78.034 28.958 C 77.911 29.073,77.745 29.167,77.667 29.167 C 77.588 29.167,77.423 29.260,77.301 29.375 C 77.178 29.490,76.816 29.730,76.497 29.908 C 76.178 30.087,75.842 30.293,75.750 30.365 C 74.818 31.101,73.365 32.319,73.092 32.592 C 72.446 33.238,70.833 35.120,70.833 35.227 C 70.833 35.285,70.702 35.474,70.542 35.647 C 69.996 36.233,69.653 36.749,69.558 37.125 C 69.506 37.331,69.401 37.500,69.324 37.500 C 69.248 37.500,69.087 37.678,68.967 37.896 C 68.211 39.274,67.682 40.365,67.497 40.927 C 67.379 41.283,67.189 41.668,67.073 41.784 C 66.958 41.899,66.813 42.295,66.751 42.663 C 66.688 43.032,66.579 43.333,66.508 43.333 C 66.437 43.333,66.283 43.783,66.167 44.333 C 66.050 44.883,65.900 45.333,65.833 45.333 C 65.767 45.333,65.619 45.915,65.506 46.625 C 65.392 47.335,65.235 47.995,65.157 48.091 C 65.079 48.187,64.928 49.125,64.822 50.175 C 64.716 51.224,64.550 52.252,64.454 52.458 C 64.217 52.962,64.214 61.735,64.450 62.033 C 64.545 62.152,64.673 62.887,64.735 63.667 C 64.796 64.446,64.924 65.383,65.018 65.750 C 65.112 66.117,65.299 66.942,65.433 67.583 C 65.568 68.225,65.739 68.862,65.813 69.000 C 65.888 69.137,66.050 69.644,66.173 70.125 C 66.296 70.606,66.445 71.000,66.505 71.000 C 66.565 71.000,66.706 71.412,66.819 71.917 C 66.932 72.421,67.082 72.833,67.152 72.833 C 67.223 72.833,67.376 73.151,67.492 73.540 C 67.706 74.255,69.055 76.731,69.452 77.137 C 69.570 77.258,69.667 77.467,69.667 77.600 C 69.667 77.734,69.779 77.887,69.917 77.940 C 70.054 77.992,70.167 78.121,70.167 78.226 C 70.167 78.331,70.349 78.642,70.571 78.917 C 70.793 79.192,71.149 79.636,71.362 79.905 C 71.899 80.581,74.849 83.500,74.995 83.500 C 75.061 83.500,75.333 83.687,75.599 83.916 C 75.865 84.146,76.177 84.333,76.292 84.333 C 76.406 84.333,76.500 84.404,76.500 84.491 C 76.500 84.644,76.778 84.821,78.000 85.450 C 78.321 85.615,78.686 85.847,78.812 85.967 C 78.937 86.086,79.256 86.226,79.520 86.279 C 79.784 86.332,80.000 86.439,80.000 86.516 C 80.000 86.594,80.431 86.781,80.958 86.932 C 81.485 87.083,81.992 87.263,82.083 87.332 C 82.175 87.400,82.662 87.547,83.167 87.657 C 83.671 87.767,84.233 87.925,84.417 88.009 C 85.809 88.642,97.000 88.637,97.000 88.003 C 97.000 87.939,97.525 87.793,98.167 87.678 C 98.808 87.564,99.333 87.407,99.333 87.331 C 99.333 87.255,99.577 87.140,99.875 87.075 C 100.426 86.954,102.045 86.287,102.500 85.993 C 102.638 85.904,103.013 85.700,103.333 85.541 C 103.654 85.381,104.016 85.156,104.137 85.042 C 104.258 84.927,104.421 84.833,104.500 84.833 C 104.579 84.833,104.742 84.740,104.863 84.625 C 104.984 84.510,105.532 84.079,106.080 83.667 C 107.065 82.925,109.470 80.592,110.049 79.817 C 110.213 79.597,110.532 79.192,110.757 78.917 C 110.982 78.642,111.166 78.329,111.166 78.222 C 111.167 78.115,111.229 78.003,111.305 77.972 C 111.501 77.893,112.933 75.492,113.402 74.455 C 113.619 73.975,113.949 73.243,114.136 72.828 C 114.323 72.412,114.529 71.849,114.594 71.578 C 114.659 71.306,114.772 71.007,114.845 70.913 C 114.917 70.820,115.100 70.220,115.250 69.580 C 115.400 68.940,115.594 68.285,115.680 68.123 C 115.767 67.962,115.927 67.249,116.034 66.540 C 116.142 65.830,116.283 65.212,116.347 65.167 C 116.967 64.725,116.960 49.766,116.340 49.333 C 116.274 49.288,116.123 48.556,116.003 47.708 C 115.883 46.860,115.735 46.167,115.673 46.167 C 115.612 46.167,115.466 45.687,115.349 45.102 C 115.233 44.516,115.045 43.858,114.932 43.640 C 114.819 43.421,114.621 42.888,114.493 42.455 C 114.365 42.021,114.202 41.667,114.130 41.667 C 114.059 41.667,114.000 41.580,114.000 41.474 C 114.000 41.271,113.267 39.591,112.993 39.167 C 112.904 39.029,112.700 38.654,112.541 38.333 C 112.381 38.012,112.193 37.675,112.123 37.583 C 112.053 37.492,111.653 36.892,111.234 36.250 C 110.815 35.608,110.339 34.933,110.177 34.750 C 109.443 33.920,106.695 31.217,106.281 30.917 C 106.027 30.733,105.692 30.462,105.535 30.313 C 105.378 30.164,105.025 29.918,104.750 29.766 C 104.475 29.614,104.025 29.343,103.750 29.164 C 103.475 28.984,102.987 28.705,102.667 28.544 C 102.346 28.382,102.046 28.205,102.000 28.149 C 101.954 28.094,101.628 27.954,101.276 27.839 C 100.923 27.724,100.436 27.527,100.193 27.401 C 99.951 27.275,99.339 27.082,98.834 26.971 C 98.330 26.861,97.875 26.710,97.823 26.635 C 97.772 26.561,96.966 26.408,96.032 26.297 C 95.098 26.185,94.333 26.035,94.333 25.963 C 94.333 25.892,92.683 25.833,90.667 25.833 C 88.650 25.833,87.000 25.892,87.000 25.964 M199.714 28.495 C 197.458 29.870,195.949 36.674,195.683 46.667 C 195.534 52.290,195.467 52.682,194.324 54.581 C 192.860 57.014,190.478 58.378,187.207 58.654 C 185.045 58.836,184.282 59.462,184.304 61.035 C 184.359 65.027,193.164 63.169,197.123 58.331 C 199.558 55.354,199.986 53.680,200.168 46.417 C 200.355 38.960,200.734 36.516,202.342 32.400 C 203.091 30.482,203.129 30.131,202.668 29.373 C 201.983 28.250,200.728 27.877,199.714 28.495 M92.116 46.208 C 92.823 46.525,93.983 47.822,94.196 48.533 C 94.301 48.882,94.440 49.167,94.505 49.167 C 94.571 49.167,94.754 49.823,94.912 50.625 C 95.070 51.427,95.286 52.263,95.392 52.484 C 95.660 53.044,95.658 61.630,95.389 62.183 C 95.282 62.403,95.109 63.054,95.005 63.630 C 94.822 64.637,94.097 66.357,93.807 66.472 C 93.730 66.503,93.667 66.616,93.667 66.723 C 93.667 67.416,91.761 68.500,90.541 68.500 C 89.588 68.500,89.481 68.444,88.435 67.398 C 87.315 66.278,87.043 65.700,86.528 63.333 C 86.379 62.646,86.180 62.030,86.086 61.964 C 85.820 61.778,85.857 52.464,86.125 52.375 C 86.240 52.337,86.333 52.148,86.333 51.954 C 86.333 51.399,86.722 49.667,86.846 49.667 C 86.908 49.667,87.006 49.428,87.064 49.137 C 87.168 48.618,88.116 46.972,88.375 46.860 C 88.447 46.829,88.598 46.712,88.711 46.599 C 89.331 45.983,91.148 45.775,92.116 46.208 M185.650 67.880 C 184.863 68.408,184.549 69.396,184.859 70.370 C 185.341 71.883,187.264 72.360,188.461 71.263 C 190.463 69.428,187.914 66.360,185.650 67.880 " stroke="none" fill="#bbd3cb" fill-rule="evenodd"></path></g></svg>