<svg id="svg" version="1.1" xmlns="http://www.w3.org/2000/svg" xmlns:xlink="http://www.w3.org/1999/xlink" width="400" height="225" viewBox="0, 0, 400,225"><g id="svgg"><path id="path0" d="M358.049 66.260 C 340.781 68.937,329.860 86.078,330.699 109.189 C 330.807 112.162,331.512 118.540,331.781 118.975 C 331.830 119.054,331.927 119.481,331.997 119.924 C 333.271 127.995,339.018 137.348,345.625 142.104 C 355.771 149.408,374.108 149.437,386.075 142.167 L 387.292 141.428 387.292 119.256 L 387.292 97.083 373.854 97.083 L 360.417 97.083 360.417 107.500 L 360.417 117.917 363.750 117.917 L 367.083 117.917 367.083 121.156 L 367.083 124.396 366.307 124.720 C 365.152 125.203,361.895 125.024,360.563 124.404 C 352.657 120.725,351.161 99.764,358.258 92.099 C 362.123 87.924,368.610 88.040,373.093 92.363 C 374.116 93.349,374.227 93.406,374.447 93.055 C 374.579 92.845,375.070 92.141,375.537 91.492 C 376.004 90.843,377.584 88.578,379.049 86.458 C 380.514 84.339,381.942 82.276,382.223 81.875 C 382.504 81.474,383.502 80.040,384.440 78.688 C 385.378 77.336,386.278 76.041,386.440 75.811 C 387.035 74.964,381.914 70.735,378.298 69.087 C 372.876 66.616,363.866 65.358,358.049 66.260 M15.208 106.563 L 15.208 145.833 25.833 145.833 L 36.458 145.833 36.473 129.323 C 36.491 109.091,36.474 109.310,38.119 107.666 C 39.515 106.269,41.838 106.633,42.677 108.380 C 43.482 110.055,43.538 111.408,43.540 128.908 L 43.542 145.837 54.115 145.783 L 64.688 145.729 64.750 128.438 C 64.840 103.595,64.546 100.238,61.813 94.896 C 59.391 90.160,55.585 88.021,49.583 88.021 C 43.684 88.021,40.182 89.986,37.310 94.907 L 36.466 96.354 36.462 81.823 L 36.458 67.292 25.833 67.292 L 15.208 67.292 15.208 106.563 M128.750 106.667 L 128.750 145.833 139.688 145.833 L 150.625 145.833 150.625 106.667 L 150.625 67.500 139.688 67.500 L 128.750 67.500 128.750 106.667 M161.458 106.875 L 161.458 145.625 176.135 145.625 C 194.156 145.625,196.688 145.366,202.361 142.942 C 215.128 137.488,221.098 125.977,221.121 106.771 C 221.145 87.724,215.174 76.294,202.327 70.795 C 196.700 68.386,194.136 68.125,176.135 68.125 L 161.458 68.125 161.458 106.875 M229.427 106.927 L 229.479 145.729 241.510 145.783 L 253.542 145.837 253.542 106.981 L 253.542 68.125 241.458 68.125 L 229.374 68.125 229.427 106.927 M264.843 106.925 L 264.896 145.729 275.469 145.783 L 286.042 145.837 286.042 144.887 C 286.042 144.364,285.850 136.241,285.615 126.836 C 285.381 117.430,285.217 109.590,285.251 109.413 C 285.285 109.236,285.798 110.538,286.391 112.306 C 286.983 114.074,289.355 121.099,291.661 127.917 C 293.967 134.734,296.229 141.433,296.687 142.803 C 297.145 144.172,297.620 145.415,297.743 145.563 C 297.923 145.779,300.438 145.833,310.234 145.833 L 322.500 145.833 322.500 106.979 L 322.500 68.125 312.169 68.125 L 301.838 68.125 301.959 70.573 C 302.126 73.948,302.586 105.264,302.474 105.600 C 302.424 105.749,300.986 101.527,299.279 96.217 C 297.572 90.907,295.780 85.344,295.298 83.854 C 294.816 82.365,293.698 78.896,292.813 76.146 C 291.928 73.396,290.992 70.490,290.734 69.688 L 290.263 68.229 277.527 68.175 L 264.791 68.122 264.843 106.925 M192.333 78.139 C 194.556 78.888,196.345 80.425,197.389 82.486 C 198.312 84.308,198.952 84.167,189.778 84.167 L 181.639 84.167 181.780 83.698 C 183.115 79.288,188.040 76.693,192.333 78.139 M211.671 86.356 C 212.508 86.789,212.708 87.259,212.708 88.789 L 212.708 90.106 211.162 91.693 C 207.821 95.121,206.966 98.091,206.668 107.292 C 206.334 117.632,204.306 121.981,198.166 125.528 C 196.056 126.747,196.042 126.772,196.040 129.309 C 196.035 134.428,191.551 137.535,187.188 135.442 C 184.609 134.205,183.655 132.566,183.625 129.322 C 183.601 126.731,183.533 126.603,181.664 125.607 C 178.831 124.097,176.399 121.523,174.891 118.438 C 173.420 115.428,173.305 114.781,173.120 108.438 C 172.832 98.592,171.833 95.052,168.350 91.529 L 166.875 90.037 166.875 88.748 C 166.875 87.559,166.930 87.403,167.583 86.750 L 168.292 86.042 189.677 86.042 C 208.344 86.042,211.140 86.082,211.671 86.356 M91.736 88.433 C 78.510 90.833,70.427 104.086,71.677 121.325 C 72.982 139.321,85.335 150.167,101.354 147.381 C 109.315 145.996,115.258 140.959,118.928 132.488 C 121.838 125.771,122.294 114.424,119.974 106.479 C 116.090 93.181,104.918 86.042,91.736 88.433 M175.351 91.001 C 174.666 91.717,174.631 92.507,175.224 93.889 C 176.651 97.215,177.269 101.188,177.487 108.438 C 177.688 115.119,178.238 116.889,180.977 119.659 C 185.006 123.733,192.292 124.884,192.292 121.446 C 192.292 120.192,191.355 119.541,189.319 119.379 C 186.152 119.127,183.622 117.422,182.234 114.603 L 181.575 113.263 181.424 108.246 C 181.029 95.167,178.430 87.787,175.351 91.001 M98.182 107.415 C 101.917 109.196,102.747 123.242,99.360 127.348 C 98.382 128.535,97.540 128.878,95.847 128.779 C 93.644 128.652,91.875 123.809,91.875 117.906 C 91.875 109.873,94.429 105.626,98.182 107.415 M188.911 128.025 C 187.782 128.654,187.534 130.261,188.428 131.155 C 189.158 131.885,190.565 131.875,191.261 131.134 C 192.738 129.562,190.786 126.979,188.911 128.025 " stroke="none" fill="#cc9c34" fill-rule="evenodd"></path><path id="path1" d="" stroke="none" fill="#d09c34" fill-rule="evenodd"></path><path id="path2" d="" stroke="none" fill="#d09c34" fill-rule="evenodd"></path><path id="path3" d="" stroke="none" fill="#d09c34" fill-rule="evenodd"></path><path id="path4" d="" stroke="none" fill="#d09c34" fill-rule="evenodd"></path></g></svg>