<svg id="svg" version="1.1" xmlns="http://www.w3.org/2000/svg" xmlns:xlink="http://www.w3.org/1999/xlink" width="400" height="91.63477310005467" viewBox="0, 0, 400,91.63477310005467"><g id="svgg"><path id="path0" d="M366.250 2.833 C 366.193 2.925,365.870 3.004,365.532 3.009 C 364.537 3.023,360.369 3.928,360.167 4.173 C 360.121 4.229,359.708 4.376,359.250 4.499 C 358.529 4.693,357.472 5.173,354.703 6.560 C 354.362 6.731,354.058 6.937,354.028 7.019 C 353.997 7.100,353.878 7.167,353.762 7.167 C 353.646 7.167,353.418 7.315,353.254 7.496 C 353.090 7.677,352.797 7.874,352.603 7.935 C 352.409 7.995,352.015 8.241,351.728 8.481 C 351.441 8.721,350.991 9.081,350.728 9.281 C 350.465 9.482,349.777 10.101,349.200 10.656 C 348.622 11.212,348.078 11.667,347.991 11.667 C 347.904 11.667,347.832 11.760,347.830 11.875 C 347.828 11.990,347.453 12.456,346.996 12.911 C 346.540 13.366,346.167 13.791,346.167 13.855 C 346.167 13.919,345.905 14.259,345.585 14.611 C 344.685 15.600,344.540 15.780,344.323 16.185 C 344.212 16.393,344.056 16.642,343.975 16.740 C 343.652 17.130,343.048 18.121,342.823 18.629 C 342.692 18.925,342.536 19.167,342.476 19.167 C 342.355 19.167,341.938 20.175,341.976 20.375 C 341.989 20.444,341.931 20.500,341.846 20.500 C 341.762 20.500,341.606 20.762,341.500 21.083 C 341.394 21.404,341.250 21.667,341.180 21.667 C 341.110 21.667,340.958 21.985,340.841 22.375 C 340.725 22.765,340.576 23.121,340.511 23.167 C 340.445 23.212,340.107 24.075,339.759 25.083 C 339.412 26.092,339.027 27.146,338.904 27.427 C 338.781 27.708,338.630 28.252,338.569 28.636 C 338.508 29.019,338.403 29.333,338.336 29.333 C 338.269 29.333,338.117 29.915,337.999 30.625 C 337.881 31.335,337.727 31.992,337.658 32.083 C 337.513 32.274,337.390 32.961,337.231 34.458 C 337.170 35.031,337.066 35.500,336.998 35.500 C 336.434 35.500,336.219 50.052,336.727 53.833 C 337.147 56.960,337.537 59.244,337.665 59.333 C 337.731 59.379,337.881 59.942,337.998 60.583 C 338.115 61.225,338.263 61.825,338.328 61.917 C 338.392 62.008,338.537 62.510,338.649 63.031 C 338.761 63.552,338.907 64.002,338.974 64.031 C 339.041 64.060,339.218 64.496,339.366 65.000 C 339.694 66.116,340.363 67.886,340.500 68.000 C 340.555 68.046,340.693 68.402,340.806 68.792 C 340.920 69.181,341.079 69.500,341.160 69.500 C 341.241 69.500,341.356 69.724,341.416 69.998 C 341.476 70.272,341.598 70.541,341.687 70.596 C 341.775 70.650,341.965 70.989,342.108 71.348 C 342.252 71.706,342.427 72.000,342.498 72.000 C 342.568 72.000,342.719 72.225,342.833 72.500 C 342.947 72.775,343.111 73.000,343.197 73.000 C 343.283 73.000,343.312 73.067,343.262 73.148 C 343.211 73.229,343.282 73.388,343.419 73.502 C 343.555 73.615,343.667 73.770,343.667 73.846 C 343.667 74.554,348.178 79.606,350.621 81.634 C 351.657 82.493,351.890 82.667,352.014 82.667 C 352.085 82.667,352.247 82.770,352.374 82.897 C 352.500 83.024,352.900 83.289,353.260 83.485 C 353.621 83.681,354.217 84.031,354.583 84.262 C 354.950 84.494,355.456 84.771,355.708 84.878 C 355.960 84.985,356.167 85.124,356.167 85.185 C 356.167 85.286,356.692 85.475,357.317 85.598 C 357.445 85.624,357.595 85.717,357.650 85.805 C 357.751 85.967,359.143 86.417,359.375 86.363 C 359.444 86.347,359.500 86.396,359.500 86.474 C 359.500 86.634,360.416 86.919,361.458 87.084 C 361.848 87.146,362.167 87.254,362.167 87.324 C 362.167 87.395,362.860 87.547,363.708 87.662 C 364.556 87.778,365.304 87.957,365.369 88.061 C 365.548 88.346,378.573 88.327,378.858 88.042 C 378.973 87.927,379.327 87.833,379.645 87.833 C 380.375 87.833,382.310 87.524,382.750 87.336 C 382.933 87.258,383.571 87.108,384.167 87.002 C 385.292 86.803,387.528 86.139,388.445 85.732 C 388.736 85.603,389.204 85.451,389.487 85.394 C 389.769 85.338,390.000 85.238,390.000 85.172 C 390.000 85.107,390.300 84.963,390.667 84.853 C 391.033 84.743,391.333 84.596,391.333 84.527 C 391.333 84.457,391.600 84.304,391.925 84.186 C 392.442 83.999,392.967 83.723,394.833 82.655 C 395.063 82.524,395.310 82.323,395.383 82.208 C 395.457 82.094,395.625 82.000,395.758 82.000 C 395.968 82.000,396.000 78.941,396.000 58.667 L 396.000 35.333 381.749 35.333 L 367.498 35.333 367.540 46.292 L 367.583 57.250 371.042 57.295 L 374.500 57.340 374.497 60.545 C 374.495 63.877,374.467 64.055,373.917 64.224 C 371.685 64.908,368.189 64.454,366.722 63.290 C 365.605 62.404,364.034 60.601,363.892 60.042 C 363.840 59.835,363.737 59.667,363.662 59.667 C 363.588 59.667,363.394 59.310,363.231 58.875 C 363.067 58.440,362.886 58.046,362.828 58.000 C 362.769 57.954,362.618 57.560,362.491 57.125 C 362.364 56.690,362.209 56.333,362.145 56.333 C 362.082 56.333,361.940 55.790,361.829 55.125 C 361.719 54.460,361.564 53.837,361.486 53.739 C 361.014 53.151,360.389 42.500,360.827 42.500 C 360.922 42.500,361.000 42.168,361.000 41.762 C 361.000 40.784,361.306 38.503,361.494 38.083 C 361.576 37.900,361.733 37.337,361.843 36.833 C 361.953 36.329,362.101 35.842,362.171 35.750 C 362.241 35.658,362.394 35.265,362.509 34.875 C 362.625 34.485,362.774 34.167,362.842 34.167 C 362.909 34.167,363.015 33.960,363.077 33.708 C 363.174 33.318,363.814 32.187,364.414 31.346 C 364.891 30.679,367.272 28.480,367.610 28.395 C 367.825 28.341,368.000 28.236,368.000 28.162 C 368.000 28.087,368.281 27.935,368.625 27.825 C 368.969 27.714,369.355 27.539,369.484 27.437 C 369.812 27.175,375.314 27.183,375.850 27.447 C 376.070 27.555,376.550 27.735,376.917 27.847 C 378.082 28.203,379.446 29.120,380.802 30.458 C 381.382 31.031,381.937 31.500,382.034 31.500 C 382.225 31.500,382.999 30.664,383.000 30.458 C 383.000 30.390,383.131 30.189,383.292 30.012 C 383.844 29.403,383.998 29.182,384.280 28.592 C 384.435 28.266,384.625 28.000,384.702 28.000 C 384.779 28.000,384.913 27.812,385.000 27.583 C 385.087 27.354,385.226 27.167,385.309 27.167 C 385.392 27.167,385.553 26.942,385.667 26.667 C 385.781 26.392,385.935 26.167,386.009 26.167 C 386.083 26.167,386.192 26.017,386.250 25.834 C 386.308 25.652,386.444 25.408,386.553 25.293 C 386.662 25.178,387.051 24.633,387.418 24.083 C 387.784 23.533,388.177 23.023,388.292 22.950 C 388.406 22.877,388.500 22.744,388.500 22.656 C 388.500 22.527,389.463 21.094,390.119 20.247 C 390.191 20.154,390.549 19.629,390.914 19.080 C 391.280 18.532,391.673 18.023,391.789 17.950 C 391.905 17.877,392.000 17.740,392.000 17.647 C 392.000 17.554,392.188 17.232,392.417 16.931 C 392.646 16.631,392.833 16.307,392.833 16.210 C 392.833 16.114,392.946 15.992,393.083 15.940 C 393.221 15.887,393.333 15.764,393.333 15.667 C 393.333 15.570,393.642 15.100,394.019 14.623 C 394.396 14.146,394.769 13.586,394.848 13.378 C 394.927 13.170,395.069 13.000,395.163 13.000 C 395.533 13.000,395.299 12.485,394.619 11.801 C 393.471 10.647,390.565 8.189,390.097 7.976 C 389.860 7.868,389.667 7.726,389.667 7.660 C 389.667 7.594,389.423 7.442,389.125 7.321 C 388.827 7.201,388.546 7.056,388.500 7.000 C 388.454 6.944,388.173 6.799,387.875 6.679 C 387.577 6.558,387.333 6.406,387.333 6.340 C 387.333 6.274,387.015 6.115,386.625 5.987 C 386.235 5.859,385.658 5.622,385.343 5.462 C 385.027 5.301,384.521 5.123,384.218 5.066 C 383.915 5.009,383.667 4.904,383.667 4.833 C 383.667 4.761,383.179 4.606,382.583 4.488 C 381.988 4.369,381.500 4.219,381.500 4.155 C 381.500 4.090,380.994 3.944,380.375 3.830 C 379.756 3.716,379.175 3.566,379.083 3.497 C 378.883 3.346,376.371 3.000,375.473 3.000 C 375.121 3.000,374.833 2.925,374.833 2.833 C 374.833 2.727,373.309 2.667,370.593 2.667 C 367.946 2.667,366.314 2.729,366.250 2.833 M5.244 4.208 C 5.200 4.323,5.184 22.867,5.207 45.417 L 5.250 86.417 16.449 86.460 L 27.648 86.502 27.699 67.912 C 27.733 55.434,27.806 49.282,27.921 49.202 C 28.015 49.137,28.222 48.663,28.380 48.150 C 28.675 47.193,29.625 46.000,30.091 46.000 C 30.224 46.000,30.333 45.925,30.333 45.833 C 30.333 45.738,30.833 45.667,31.500 45.667 C 32.142 45.667,32.667 45.723,32.668 45.792 C 32.668 45.860,32.895 46.045,33.171 46.203 C 33.639 46.469,34.008 47.104,34.554 48.583 C 34.683 48.932,34.765 54.723,34.828 67.750 L 34.917 86.417 46.137 86.460 L 57.357 86.502 57.285 65.543 C 57.215 45.281,57.122 41.409,56.679 40.417 C 56.597 40.233,56.445 39.525,56.341 38.842 C 56.237 38.159,56.093 37.522,56.020 37.425 C 55.948 37.329,55.796 36.819,55.682 36.292 C 55.569 35.765,55.421 35.333,55.353 35.333 C 55.285 35.333,55.134 34.958,55.016 34.500 C 54.899 34.042,54.740 33.667,54.664 33.667 C 54.588 33.667,54.439 33.404,54.333 33.083 C 54.227 32.762,54.090 32.500,54.028 32.500 C 53.966 32.500,53.810 32.256,53.681 31.958 C 53.553 31.660,53.354 31.304,53.240 31.167 C 52.652 30.460,50.567 28.338,50.458 28.336 C 50.390 28.334,50.189 28.202,50.012 28.042 C 49.373 27.461,49.199 27.359,48.357 27.059 C 47.885 26.892,47.500 26.706,47.500 26.646 C 47.500 26.585,47.012 26.439,46.417 26.321 C 45.821 26.202,45.333 26.059,45.333 26.002 C 45.333 25.704,37.566 25.635,37.366 25.931 C 37.302 26.026,36.800 26.202,36.250 26.322 C 35.700 26.442,35.212 26.589,35.167 26.650 C 35.121 26.710,34.746 26.905,34.333 27.083 C 33.921 27.262,33.546 27.451,33.500 27.504 C 33.454 27.557,33.060 27.853,32.625 28.162 C 32.190 28.471,31.833 28.785,31.833 28.862 C 31.833 28.938,31.740 29.005,31.625 29.011 C 31.383 29.024,29.407 31.244,29.016 31.942 C 28.870 32.203,28.662 32.473,28.555 32.543 C 28.447 32.612,28.311 32.888,28.252 33.156 C 28.193 33.424,28.038 33.733,27.906 33.842 C 27.698 34.015,27.667 32.054,27.667 19.020 L 27.667 4.000 16.495 4.000 C 7.711 4.000,5.306 4.045,5.244 4.208 M124.333 45.316 C 124.333 82.532,124.358 86.307,124.597 86.399 C 124.742 86.454,129.954 86.500,136.180 86.500 L 147.500 86.500 147.500 45.417 L 147.500 4.333 135.917 4.333 L 124.333 4.333 124.333 45.316 M158.667 45.583 L 158.667 86.333 174.080 86.333 C 188.577 86.333,193.573 86.208,193.833 85.839 C 193.879 85.774,194.610 85.623,195.458 85.503 C 196.306 85.383,197.000 85.233,197.000 85.169 C 197.000 85.105,197.525 84.960,198.167 84.845 C 198.808 84.730,199.333 84.580,199.333 84.511 C 199.333 84.443,199.746 84.294,200.250 84.181 C 200.754 84.068,201.167 83.920,201.167 83.852 C 201.167 83.783,201.579 83.598,202.083 83.439 C 202.588 83.280,203.000 83.087,203.000 83.010 C 203.000 82.933,203.266 82.820,203.592 82.759 C 203.918 82.698,204.222 82.551,204.267 82.431 C 204.313 82.312,204.647 82.117,205.009 81.997 C 205.371 81.878,205.667 81.731,205.667 81.671 C 205.667 81.611,205.929 81.459,206.250 81.333 C 206.571 81.207,206.833 81.047,206.833 80.977 C 206.833 80.906,207.089 80.728,207.402 80.579 C 207.714 80.431,208.101 80.165,208.261 79.988 C 208.421 79.811,208.608 79.667,208.678 79.667 C 208.928 79.667,212.230 76.469,213.333 75.158 C 213.654 74.776,214.029 74.339,214.167 74.185 C 214.304 74.032,214.523 73.703,214.653 73.453 C 214.783 73.204,214.941 73.000,215.003 73.000 C 215.065 73.000,215.257 72.681,215.428 72.292 C 215.600 71.902,215.836 71.523,215.954 71.450 C 216.071 71.377,216.167 71.213,216.167 71.087 C 216.167 70.961,216.268 70.756,216.392 70.632 C 216.515 70.509,216.708 70.128,216.821 69.787 C 216.934 69.446,217.083 69.167,217.153 69.167 C 217.223 69.167,217.370 68.867,217.480 68.500 C 217.590 68.133,217.738 67.833,217.809 67.833 C 217.879 67.833,218.037 67.440,218.159 66.958 C 218.281 66.477,218.430 66.046,218.490 66.000 C 218.644 65.883,219.167 64.194,219.167 63.814 C 219.167 63.641,219.236 63.500,219.321 63.500 C 219.406 63.500,219.567 62.938,219.677 62.250 C 219.788 61.563,219.934 61.000,220.001 61.000 C 220.069 61.000,220.218 60.287,220.333 59.417 C 220.449 58.546,220.596 57.833,220.661 57.833 C 220.786 57.833,221.167 54.673,221.167 53.639 C 221.167 53.298,221.259 52.997,221.375 52.958 C 221.652 52.866,221.681 39.053,221.405 38.869 C 221.307 38.804,221.133 37.626,221.019 36.253 C 220.904 34.879,220.749 33.717,220.675 33.669 C 220.600 33.622,220.444 32.890,220.329 32.042 C 220.214 31.194,220.065 30.500,219.999 30.500 C 219.933 30.500,219.788 29.937,219.677 29.250 C 219.567 28.562,219.420 28.000,219.352 28.000 C 219.284 28.000,219.130 27.509,219.011 26.909 C 218.892 26.309,218.702 25.726,218.589 25.613 C 218.477 25.501,218.291 25.017,218.176 24.538 C 218.061 24.059,217.902 23.667,217.823 23.667 C 217.745 23.667,217.587 23.348,217.473 22.958 C 217.359 22.569,217.221 22.212,217.165 22.167 C 217.110 22.121,216.966 21.840,216.845 21.542 C 216.725 21.244,216.566 21.000,216.493 21.000 C 216.419 21.000,216.273 20.738,216.167 20.417 C 216.061 20.096,215.913 19.833,215.839 19.833 C 215.764 19.833,215.583 19.533,215.436 19.167 C 215.289 18.800,215.112 18.500,215.042 18.500 C 214.972 18.500,214.808 18.256,214.678 17.958 C 214.547 17.660,214.304 17.319,214.137 17.199 C 213.970 17.079,213.833 16.905,213.833 16.813 C 213.833 16.720,213.571 16.397,213.250 16.094 C 212.929 15.792,212.667 15.487,212.667 15.416 C 212.667 15.254,210.260 12.833,210.098 12.833 C 210.032 12.833,209.730 12.571,209.427 12.250 C 209.125 11.929,208.790 11.667,208.683 11.667 C 208.577 11.667,208.446 11.554,208.393 11.416 C 208.340 11.278,208.024 11.038,207.690 10.883 C 207.356 10.728,207.027 10.509,206.957 10.397 C 206.888 10.285,206.607 10.143,206.332 10.083 C 206.058 10.023,205.833 9.901,205.833 9.811 C 205.833 9.722,205.608 9.571,205.333 9.475 C 205.058 9.379,204.833 9.247,204.833 9.181 C 204.833 9.116,204.571 8.959,204.250 8.833 C 203.929 8.707,203.667 8.562,203.667 8.511 C 203.667 8.459,203.217 8.273,202.667 8.097 C 202.117 7.921,201.667 7.722,201.667 7.654 C 201.667 7.586,201.292 7.435,200.833 7.317 C 200.375 7.200,200.000 7.051,200.000 6.987 C 200.000 6.922,199.512 6.773,198.917 6.654 C 198.321 6.536,197.833 6.385,197.833 6.320 C 197.833 6.255,197.196 6.106,196.417 5.990 C 195.637 5.875,195.000 5.727,195.000 5.663 C 195.000 5.534,192.033 5.167,190.994 5.167 C 190.631 5.167,190.333 5.092,190.333 5.000 C 190.333 4.890,184.944 4.833,174.500 4.833 L 158.667 4.833 158.667 45.583 M230.000 45.666 L 230.000 86.500 242.750 86.500 L 255.501 86.500 255.459 45.708 L 255.417 4.917 242.708 4.874 L 230.000 4.831 230.000 45.666 M267.167 45.668 L 267.167 86.502 278.375 86.460 L 289.583 86.417 289.580 83.500 C 289.574 77.149,289.466 71.665,289.346 71.591 C 289.276 71.548,289.169 68.079,289.108 63.881 C 289.047 59.684,288.963 54.525,288.921 52.417 C 288.862 49.418,288.886 48.737,289.030 49.292 C 289.131 49.681,289.278 50.000,289.357 50.000 C 289.436 50.000,289.501 50.131,289.503 50.292 C 289.505 50.584,289.831 51.604,290.021 51.917 C 290.077 52.008,290.215 52.477,290.328 52.958 C 290.441 53.440,290.589 53.833,290.657 53.833 C 290.725 53.833,290.876 54.265,290.992 54.792 C 291.108 55.319,291.263 55.825,291.336 55.917 C 291.409 56.008,291.597 56.533,291.754 57.083 C 291.912 57.633,292.095 58.158,292.163 58.250 C 292.230 58.342,292.377 58.791,292.488 59.248 C 292.600 59.705,292.750 60.155,292.822 60.248 C 292.893 60.341,293.043 60.791,293.155 61.248 C 293.267 61.705,293.416 62.155,293.486 62.248 C 293.557 62.341,293.713 62.792,293.833 63.250 C 293.953 63.708,294.106 64.158,294.173 64.250 C 294.240 64.342,294.351 64.679,294.420 65.000 C 294.488 65.321,294.684 65.845,294.856 66.164 C 295.027 66.484,295.167 66.862,295.167 67.004 C 295.167 67.285,296.089 70.089,296.319 70.508 C 296.397 70.650,296.557 71.194,296.674 71.717 C 296.791 72.239,296.944 72.667,297.015 72.667 C 297.085 72.667,297.235 73.079,297.348 73.583 C 297.461 74.087,297.608 74.500,297.675 74.500 C 297.742 74.500,297.847 74.771,297.909 75.101 C 297.971 75.432,298.103 75.900,298.203 76.143 C 298.303 76.385,298.402 76.658,298.424 76.750 C 298.446 76.842,298.687 77.592,298.960 78.417 C 299.233 79.242,299.510 80.160,299.575 80.458 C 299.640 80.756,299.753 81.000,299.826 81.000 C 299.899 81.000,300.058 81.450,300.180 82.000 C 300.302 82.550,300.450 83.000,300.508 83.000 C 300.566 83.000,300.706 83.412,300.819 83.917 C 300.932 84.421,301.094 84.833,301.179 84.833 C 301.264 84.833,301.334 84.927,301.334 85.042 C 301.335 85.156,301.413 85.532,301.509 85.876 L 301.683 86.502 314.800 86.459 L 327.917 86.417 327.917 45.667 L 327.917 4.917 317.333 4.870 C 311.512 4.844,306.593 4.861,306.401 4.908 C 306.058 4.992,305.940 6.802,306.221 7.667 C 306.266 7.804,306.388 15.867,306.491 25.583 C 306.595 35.300,306.715 43.550,306.756 43.917 C 306.813 44.413,306.793 44.498,306.678 44.250 C 306.593 44.067,306.518 43.767,306.511 43.583 C 306.504 43.400,306.392 43.047,306.262 42.799 C 306.133 42.550,305.934 41.932,305.820 41.424 C 305.707 40.916,305.562 40.500,305.500 40.500 C 305.438 40.500,305.292 40.069,305.176 39.542 C 305.061 39.015,304.869 38.358,304.751 38.083 C 304.633 37.808,304.297 36.796,304.004 35.833 C 303.712 34.871,303.374 33.858,303.254 33.583 C 303.134 33.308,302.981 32.821,302.915 32.500 C 302.849 32.179,302.743 31.842,302.679 31.750 C 302.615 31.658,302.463 31.171,302.341 30.667 C 302.219 30.162,302.067 29.712,302.004 29.667 C 301.893 29.587,301.331 27.637,301.295 27.208 C 301.286 27.094,301.231 27.000,301.173 27.000 C 301.116 27.000,300.969 26.548,300.846 25.996 C 300.724 25.445,300.569 24.959,300.502 24.918 C 300.436 24.877,300.285 24.391,300.168 23.838 C 300.050 23.286,299.900 22.833,299.833 22.833 C 299.767 22.833,299.617 22.383,299.500 21.833 C 299.383 21.283,299.233 20.833,299.167 20.833 C 299.100 20.833,298.948 20.365,298.828 19.792 C 298.708 19.219,298.566 18.712,298.511 18.667 C 298.456 18.621,298.238 18.021,298.027 17.333 C 297.816 16.646,297.504 15.633,297.333 15.083 C 297.161 14.533,296.890 13.633,296.730 13.083 C 296.570 12.533,296.386 12.046,296.323 12.000 C 296.259 11.954,296.111 11.485,295.994 10.958 C 295.876 10.431,295.727 10.000,295.663 10.000 C 295.598 10.000,295.448 9.531,295.328 8.958 C 295.208 8.385,295.062 7.879,295.003 7.833 C 294.944 7.787,294.757 7.225,294.587 6.583 C 294.417 5.942,294.198 5.285,294.099 5.125 C 293.931 4.851,293.103 4.833,280.543 4.833 L 267.167 4.833 267.167 45.668 M188.576 15.155 C 188.629 15.241,189.084 15.396,189.586 15.501 C 190.089 15.605,190.500 15.745,190.500 15.812 C 190.500 15.878,190.781 16.034,191.125 16.158 C 191.469 16.282,191.848 16.522,191.968 16.692 C 192.088 16.861,192.278 17.000,192.391 17.000 C 192.643 17.000,193.914 18.305,194.054 18.708 C 194.110 18.869,194.222 19.000,194.301 19.000 C 194.381 19.000,194.546 19.300,194.667 19.667 C 194.788 20.033,194.938 20.333,195.000 20.333 C 195.100 20.333,195.500 21.449,195.500 21.728 C 195.500 21.786,191.675 21.833,187.000 21.833 L 178.500 21.833 178.500 21.472 C 178.500 21.028,179.469 19.000,179.681 19.000 C 179.765 19.000,179.833 18.909,179.833 18.797 C 179.833 18.525,181.515 16.833,181.786 16.833 C 181.904 16.833,182.000 16.764,182.000 16.679 C 182.000 16.501,182.941 16.000,183.276 16.000 C 183.399 16.000,183.500 15.935,183.500 15.855 C 183.500 15.775,183.856 15.620,184.292 15.509 C 184.727 15.399,185.196 15.243,185.333 15.164 C 185.672 14.968,188.456 14.961,188.576 15.155 M210.346 24.487 C 210.897 25.038,210.919 25.108,210.975 26.532 L 211.033 28.007 209.433 29.622 C 208.553 30.511,207.833 31.334,207.833 31.452 C 207.833 31.570,207.777 31.667,207.708 31.668 C 207.640 31.669,207.499 31.837,207.396 32.043 C 207.293 32.249,206.984 32.842,206.709 33.363 C 206.435 33.883,206.082 34.821,205.924 35.446 C 205.767 36.072,205.578 36.700,205.504 36.844 C 205.430 36.987,205.278 37.812,205.166 38.677 C 205.055 39.542,204.892 40.403,204.805 40.591 C 204.718 40.778,204.590 43.703,204.521 47.091 C 204.443 50.889,204.327 53.378,204.217 53.583 C 204.119 53.767,203.954 54.292,203.849 54.750 C 203.744 55.208,203.555 55.808,203.429 56.083 C 203.303 56.358,202.967 57.088,202.683 57.705 C 202.399 58.322,202.167 58.903,202.167 58.996 C 202.167 59.090,202.089 59.167,201.995 59.167 C 201.900 59.167,201.776 59.298,201.718 59.458 C 201.321 60.569,197.240 64.667,196.531 64.667 C 196.431 64.667,196.290 64.768,196.217 64.891 C 196.143 65.014,195.735 65.246,195.309 65.407 C 194.883 65.568,194.283 65.958,193.975 66.276 L 193.417 66.852 193.466 68.697 C 193.545 71.680,193.275 72.511,191.671 74.221 C 189.704 76.317,185.790 76.850,183.571 75.324 C 181.253 73.731,180.500 72.241,180.500 69.246 C 180.500 66.493,180.405 66.327,178.210 65.264 C 178.004 65.165,177.835 65.027,177.835 64.958 C 177.834 64.890,177.737 64.833,177.619 64.833 C 177.501 64.833,177.144 64.611,176.827 64.340 C 176.510 64.069,176.191 63.844,176.119 63.840 C 175.940 63.831,173.168 61.071,173.160 60.893 C 173.156 60.814,172.931 60.490,172.660 60.173 C 172.389 59.856,172.167 59.499,172.167 59.381 C 172.167 59.263,172.097 59.167,172.012 59.167 C 171.826 59.167,170.667 56.807,170.667 56.430 C 170.667 56.285,170.602 56.167,170.523 56.167 C 170.444 56.167,170.282 55.698,170.164 55.125 C 170.047 54.552,169.891 54.006,169.818 53.912 C 169.563 53.579,169.337 49.701,169.335 45.625 C 169.334 42.987,169.273 41.500,169.167 41.500 C 169.075 41.500,169.000 41.168,169.000 40.762 C 169.000 39.805,168.696 37.512,168.513 37.083 C 168.434 36.900,168.283 36.412,168.177 36.000 C 167.957 35.144,167.934 35.086,167.035 33.161 C 166.670 32.379,166.250 31.638,166.102 31.516 C 165.954 31.393,165.833 31.219,165.833 31.129 C 165.833 30.903,163.817 28.834,163.596 28.832 C 163.047 28.828,162.753 25.755,163.213 24.833 C 163.746 23.767,162.237 23.828,187.180 23.874 L 209.776 23.917 210.346 24.487 M87.000 25.964 C 87.000 26.036,86.284 26.179,85.409 26.283 C 84.533 26.388,83.727 26.544,83.617 26.631 C 83.507 26.718,83.004 26.882,82.500 26.996 C 81.627 27.192,77.722 28.985,77.285 29.391 C 77.171 29.497,76.821 29.727,76.509 29.902 C 75.898 30.244,75.366 30.658,74.639 31.355 C 74.387 31.596,74.153 31.764,74.118 31.729 C 74.002 31.613,70.842 34.971,70.836 35.215 C 70.833 35.358,70.734 35.493,70.084 36.237 C 69.850 36.505,69.615 36.899,69.561 37.112 C 69.508 37.325,69.406 37.500,69.335 37.500 C 69.265 37.500,69.114 37.725,69.000 38.000 C 68.886 38.275,68.730 38.500,68.653 38.500 C 68.576 38.500,68.423 38.800,68.314 39.167 C 68.204 39.533,68.063 39.833,68.001 39.833 C 67.938 39.833,67.747 40.246,67.576 40.750 C 67.405 41.254,67.212 41.667,67.148 41.667 C 67.083 41.667,66.935 42.042,66.817 42.500 C 66.700 42.958,66.553 43.333,66.491 43.333 C 66.429 43.333,66.283 43.783,66.167 44.333 C 66.050 44.883,65.904 45.333,65.843 45.333 C 65.782 45.333,65.634 45.915,65.515 46.625 C 65.396 47.335,65.230 48.047,65.145 48.206 C 65.060 48.365,64.911 49.303,64.812 50.289 C 64.714 51.276,64.577 52.196,64.508 52.335 C 64.189 52.967,64.180 61.885,64.497 62.082 C 64.565 62.123,64.671 62.778,64.733 63.537 C 64.796 64.296,64.923 65.217,65.017 65.583 C 65.110 65.950,65.301 66.812,65.441 67.500 C 65.580 68.187,65.755 68.824,65.829 68.916 C 65.902 69.008,66.058 69.515,66.175 70.042 C 66.291 70.569,66.437 71.000,66.500 71.000 C 66.562 71.000,66.712 71.412,66.833 71.917 C 66.954 72.421,67.104 72.833,67.166 72.833 C 67.228 72.833,67.419 73.246,67.591 73.750 C 67.762 74.254,67.947 74.667,68.001 74.667 C 68.055 74.667,68.195 74.929,68.311 75.250 C 68.427 75.571,68.577 75.833,68.644 75.833 C 68.711 75.833,68.861 76.096,68.977 76.417 C 69.093 76.738,69.251 77.000,69.328 77.000 C 69.405 77.000,69.546 77.225,69.642 77.500 C 69.738 77.775,69.895 78.000,69.991 78.000 C 70.088 78.000,70.167 78.083,70.167 78.184 C 70.167 78.359,70.384 78.660,71.458 79.979 C 71.710 80.288,72.517 81.143,73.250 81.878 C 74.411 83.041,74.958 83.489,76.143 84.250 C 76.286 84.342,76.500 84.506,76.619 84.614 C 76.738 84.723,76.985 84.859,77.168 84.917 C 77.350 84.975,77.500 85.084,77.500 85.160 C 77.500 85.235,77.794 85.415,78.152 85.558 C 78.511 85.702,78.850 85.892,78.904 85.980 C 78.959 86.069,79.228 86.190,79.502 86.250 C 79.776 86.311,80.000 86.427,80.000 86.509 C 80.000 86.590,80.431 86.781,80.958 86.932 C 81.485 87.083,81.992 87.266,82.083 87.339 C 82.175 87.411,82.737 87.568,83.333 87.688 C 83.929 87.808,84.454 87.953,84.500 88.011 C 84.989 88.633,96.124 88.630,96.916 88.008 C 97.008 87.936,97.590 87.778,98.208 87.658 C 98.827 87.537,99.333 87.384,99.333 87.316 C 99.333 87.248,99.577 87.143,99.875 87.082 C 100.565 86.941,103.873 85.328,104.050 85.046 C 104.123 84.929,104.260 84.833,104.354 84.833 C 104.844 84.833,109.667 80.666,109.667 80.242 C 109.667 80.176,109.835 79.954,110.042 79.749 C 110.550 79.245,111.162 78.446,111.164 78.285 C 111.166 78.212,111.243 78.062,111.336 77.951 C 111.903 77.275,113.170 75.080,113.259 74.619 C 113.298 74.417,113.406 74.226,113.498 74.195 C 113.591 74.164,113.667 74.069,113.667 73.984 C 113.667 73.899,113.815 73.512,113.997 73.123 C 114.452 72.148,114.979 70.608,115.263 69.417 C 115.395 68.867,115.569 68.299,115.651 68.154 C 115.733 68.010,115.893 67.297,116.007 66.571 C 116.121 65.844,116.272 65.175,116.344 65.082 C 116.973 64.268,116.976 50.787,116.347 49.417 C 116.263 49.233,116.105 48.483,115.997 47.750 C 115.888 47.017,115.742 46.342,115.672 46.250 C 115.603 46.158,115.411 45.526,115.248 44.846 C 115.084 44.165,114.849 43.415,114.726 43.179 C 114.603 42.943,114.456 42.506,114.399 42.208 C 114.342 41.910,114.230 41.667,114.148 41.667 C 114.067 41.667,114.000 41.584,114.000 41.483 C 114.000 41.381,113.813 40.925,113.583 40.469 C 113.354 40.013,113.167 39.537,113.167 39.411 C 113.167 39.286,113.073 39.123,112.958 39.050 C 112.844 38.977,112.619 38.654,112.459 38.333 C 112.300 38.012,112.075 37.605,111.959 37.428 C 111.844 37.250,111.549 36.776,111.304 36.373 C 110.463 34.991,107.634 31.933,106.258 30.917 C 106.010 30.733,105.719 30.504,105.612 30.407 C 105.504 30.311,105.154 30.086,104.833 29.907 C 104.513 29.729,104.204 29.520,104.148 29.443 C 104.036 29.291,103.582 29.017,102.667 28.549 C 102.346 28.384,102.037 28.187,101.981 28.111 C 101.925 28.034,101.832 27.976,101.775 27.981 C 101.638 27.994,101.237 27.851,100.417 27.496 C 100.050 27.338,99.337 27.110,98.833 26.989 C 98.329 26.869,97.831 26.708,97.727 26.630 C 97.623 26.553,96.873 26.411,96.060 26.314 C 95.248 26.217,94.453 26.069,94.294 25.985 C 93.942 25.800,87.000 25.780,87.000 25.964 M199.440 28.884 C 199.119 29.187,198.805 29.637,198.743 29.884 C 198.681 30.131,198.573 30.333,198.502 30.333 C 198.431 30.333,198.283 30.689,198.174 31.123 C 198.065 31.557,197.916 31.988,197.842 32.081 C 197.769 32.174,197.611 32.662,197.490 33.167 C 197.369 33.671,197.218 34.158,197.153 34.250 C 197.088 34.342,196.949 34.975,196.844 35.657 C 196.739 36.340,196.592 36.977,196.517 37.074 C 196.336 37.307,195.997 41.201,195.999 43.032 C 195.999 43.829,195.925 44.527,195.833 44.583 C 195.731 44.647,195.666 46.019,195.664 48.135 C 195.661 52.036,195.502 53.039,194.694 54.236 C 194.404 54.665,194.167 55.073,194.167 55.142 C 194.167 55.352,192.283 57.167,192.065 57.167 C 191.953 57.167,191.836 57.226,191.806 57.298 C 191.705 57.536,190.261 58.291,189.667 58.416 C 189.346 58.483,189.008 58.596,188.917 58.667 C 188.825 58.737,188.043 58.827,187.179 58.867 L 185.609 58.939 184.971 59.657 C 183.957 60.801,184.324 62.139,185.862 62.906 C 186.419 63.184,187.755 63.261,187.902 63.024 C 187.950 62.946,188.533 62.832,189.198 62.770 C 189.862 62.708,190.558 62.562,190.744 62.444 C 190.931 62.327,191.414 62.135,191.818 62.018 C 192.222 61.900,192.840 61.623,193.190 61.402 C 193.540 61.181,193.871 61.000,193.925 61.000 C 193.979 61.000,194.132 60.906,194.264 60.792 C 194.397 60.677,194.862 60.283,195.299 59.917 C 196.376 59.012,197.810 57.359,198.182 56.594 C 198.350 56.248,198.552 55.879,198.631 55.774 C 198.709 55.669,198.875 55.246,199.000 54.833 C 199.125 54.421,199.279 54.008,199.343 53.917 C 199.652 53.473,199.833 51.207,199.833 47.788 C 199.833 45.456,199.897 43.980,200.000 43.917 C 200.092 43.860,200.166 43.312,200.166 42.698 C 200.166 41.248,200.482 38.011,200.666 37.583 C 200.744 37.400,200.899 36.725,201.010 36.083 C 201.120 35.442,201.263 34.842,201.328 34.750 C 201.392 34.658,201.578 34.077,201.741 33.458 C 201.904 32.840,202.085 32.333,202.145 32.333 C 202.334 32.333,202.667 31.029,202.667 30.286 C 202.667 28.594,200.668 27.725,199.440 28.884 M92.117 46.207 C 92.836 46.527,93.939 47.725,94.172 48.440 C 94.287 48.794,94.446 49.125,94.524 49.176 C 94.602 49.228,94.786 49.903,94.932 50.676 C 95.078 51.450,95.284 52.263,95.390 52.484 C 95.623 52.967,95.664 61.569,95.435 62.083 C 95.354 62.267,95.270 62.529,95.248 62.667 C 95.116 63.517,94.620 65.333,94.520 65.333 C 94.454 65.333,94.305 65.596,94.189 65.917 C 94.073 66.237,93.908 66.500,93.823 66.500 C 93.737 66.500,93.666 66.594,93.665 66.708 C 93.663 66.926,92.635 68.000,92.429 68.000 C 92.363 68.000,92.197 68.112,92.060 68.250 C 91.795 68.514,89.500 68.623,89.500 68.371 C 89.500 68.300,89.249 68.107,88.942 67.942 C 88.636 67.777,88.204 67.349,87.984 66.992 C 87.764 66.635,87.535 66.340,87.476 66.338 C 87.385 66.334,87.262 66.001,87.073 65.250 C 87.049 65.158,86.920 64.821,86.786 64.500 C 86.651 64.179,86.487 63.542,86.422 63.083 C 86.356 62.625,86.215 62.145,86.109 62.016 C 85.854 61.706,85.835 52.544,86.090 52.369 C 86.185 52.304,86.353 51.705,86.464 51.040 C 86.575 50.374,86.735 49.699,86.819 49.540 C 86.902 49.380,87.166 48.837,87.404 48.333 C 88.389 46.247,90.284 45.392,92.117 46.207 M186.250 67.660 C 184.110 68.551,184.650 71.667,186.944 71.667 C 189.216 71.667,189.834 68.750,187.770 67.771 C 187.147 67.475,186.762 67.447,186.250 67.660 " stroke="none" fill="#bbd4cc" fill-rule="evenodd"></path><path id="path1" d="M306.045 6.667 C 306.045 7.079,306.078 7.248,306.118 7.042 C 306.157 6.835,306.157 6.498,306.118 6.292 C 306.078 6.085,306.045 6.254,306.045 6.667 M185.333 15.164 C 185.196 15.243,184.727 15.399,184.292 15.509 C 183.856 15.620,183.500 15.775,183.500 15.855 C 183.500 15.935,183.399 16.000,183.276 16.000 C 182.941 16.000,182.000 16.501,182.000 16.679 C 182.000 16.764,181.904 16.833,181.786 16.833 C 181.515 16.833,179.833 18.525,179.833 18.797 C 179.833 18.909,179.765 19.000,179.681 19.000 C 179.469 19.000,178.500 21.028,178.500 21.472 L 178.500 21.833 187.000 21.833 C 191.675 21.833,195.500 21.786,195.500 21.728 C 195.500 21.449,195.100 20.333,195.000 20.333 C 194.938 20.333,194.788 20.033,194.667 19.667 C 194.546 19.300,194.381 19.000,194.301 19.000 C 194.222 19.000,194.110 18.869,194.054 18.708 C 193.914 18.305,192.643 17.000,192.391 17.000 C 192.278 17.000,192.088 16.861,191.968 16.692 C 191.848 16.522,191.469 16.282,191.125 16.158 C 190.781 16.034,190.500 15.878,190.500 15.812 C 190.500 15.745,190.089 15.605,189.586 15.501 C 189.084 15.396,188.629 15.241,188.576 15.155 C 188.456 14.961,185.672 14.968,185.333 15.164 M164.002 24.124 C 163.207 24.524,163.005 25.023,163.002 26.592 C 163.000 27.911,163.243 28.829,163.596 28.832 C 163.817 28.834,165.833 30.903,165.833 31.129 C 165.833 31.219,165.954 31.393,166.102 31.516 C 166.250 31.638,166.670 32.379,167.035 33.161 C 167.934 35.086,167.957 35.144,168.177 36.000 C 168.283 36.412,168.434 36.900,168.513 37.083 C 168.696 37.512,169.000 39.805,169.000 40.762 C 169.000 41.168,169.075 41.500,169.167 41.500 C 169.273 41.500,169.334 42.987,169.335 45.625 C 169.337 49.701,169.563 53.579,169.818 53.912 C 169.891 54.006,170.047 54.552,170.164 55.125 C 170.282 55.698,170.444 56.167,170.523 56.167 C 170.602 56.167,170.667 56.285,170.667 56.430 C 170.667 56.807,171.826 59.167,172.012 59.167 C 172.097 59.167,172.167 59.263,172.167 59.381 C 172.167 59.499,172.389 59.856,172.660 60.173 C 172.931 60.490,173.156 60.814,173.160 60.893 C 173.168 61.071,175.940 63.831,176.119 63.840 C 176.191 63.844,176.510 64.069,176.827 64.340 C 177.144 64.611,177.501 64.833,177.619 64.833 C 177.737 64.833,177.834 64.890,177.835 64.958 C 177.835 65.027,178.004 65.165,178.210 65.264 C 180.405 66.327,180.500 66.493,180.500 69.246 C 180.500 72.241,181.253 73.731,183.571 75.324 C 185.790 76.850,189.704 76.317,191.671 74.221 C 193.275 72.511,193.545 71.680,193.466 68.697 L 193.417 66.852 193.975 66.276 C 194.283 65.958,194.883 65.568,195.309 65.407 C 195.735 65.246,196.143 65.014,196.217 64.891 C 196.290 64.768,196.431 64.667,196.531 64.667 C 197.240 64.667,201.321 60.569,201.718 59.458 C 201.776 59.298,201.900 59.167,201.995 59.167 C 202.089 59.167,202.167 59.090,202.167 58.996 C 202.167 58.903,202.399 58.322,202.683 57.705 C 202.967 57.088,203.303 56.358,203.429 56.083 C 203.555 55.808,203.744 55.208,203.849 54.750 C 203.954 54.292,204.119 53.767,204.217 53.583 C 204.327 53.378,204.443 50.889,204.521 47.091 C 204.590 43.703,204.718 40.778,204.805 40.591 C 204.892 40.403,205.055 39.542,205.166 38.677 C 205.278 37.812,205.430 36.987,205.504 36.844 C 205.578 36.700,205.767 36.072,205.924 35.446 C 206.082 34.821,206.435 33.883,206.709 33.363 C 206.984 32.842,207.293 32.249,207.396 32.043 C 207.499 31.837,207.640 31.669,207.708 31.668 C 207.777 31.667,207.833 31.570,207.833 31.452 C 207.833 31.334,208.553 30.511,209.433 29.622 L 211.033 28.007 210.975 26.532 C 210.919 25.108,210.897 25.038,210.346 24.487 L 209.776 23.917 187.180 23.874 C 165.921 23.834,164.549 23.849,164.002 24.124 M202.035 28.950 C 202.573 29.476,202.667 29.674,202.667 30.286 C 202.667 31.029,202.334 32.333,202.145 32.333 C 202.085 32.333,201.904 32.840,201.741 33.458 C 201.578 34.077,201.392 34.658,201.328 34.750 C 201.263 34.842,201.120 35.442,201.010 36.083 C 200.899 36.725,200.744 37.400,200.666 37.583 C 200.482 38.011,200.166 41.248,200.166 42.698 C 200.166 43.312,200.092 43.860,200.000 43.917 C 199.897 43.980,199.833 45.456,199.833 47.788 C 199.833 51.207,199.652 53.473,199.343 53.917 C 199.279 54.008,199.125 54.421,199.000 54.833 C 198.875 55.246,198.709 55.669,198.631 55.774 C 198.552 55.879,198.350 56.248,198.182 56.594 C 197.810 57.359,196.376 59.012,195.299 59.917 C 194.862 60.283,194.397 60.677,194.264 60.792 C 194.132 60.906,193.979 61.000,193.925 61.000 C 193.871 61.000,193.540 61.181,193.190 61.402 C 192.840 61.623,192.222 61.900,191.818 62.018 C 191.414 62.135,190.931 62.327,190.744 62.444 C 190.558 62.562,189.862 62.708,189.198 62.770 C 188.533 62.832,187.950 62.946,187.902 63.024 C 187.755 63.261,186.419 63.184,185.862 62.906 C 184.324 62.139,183.957 60.801,184.971 59.657 L 185.609 58.939 187.179 58.867 C 188.043 58.827,188.825 58.737,188.917 58.667 C 189.008 58.596,189.346 58.483,189.667 58.416 C 190.261 58.291,191.705 57.536,191.806 57.298 C 191.836 57.226,191.953 57.167,192.065 57.167 C 192.283 57.167,194.167 55.352,194.167 55.142 C 194.167 55.073,194.404 54.665,194.694 54.236 C 195.502 53.039,195.661 52.036,195.664 48.135 C 195.666 46.019,195.731 44.647,195.833 44.583 C 195.925 44.527,195.999 43.829,195.999 43.032 C 195.997 41.201,196.336 37.307,196.517 37.074 C 196.592 36.977,196.739 36.340,196.844 35.657 C 196.949 34.975,197.088 34.342,197.153 34.250 C 197.218 34.158,197.369 33.671,197.490 33.167 C 197.611 32.662,197.769 32.174,197.842 32.081 C 197.916 31.988,198.065 31.557,198.174 31.123 C 198.283 30.689,198.431 30.333,198.502 30.333 C 198.573 30.333,198.681 30.131,198.743 29.884 C 199.121 28.380,200.926 27.868,202.035 28.950 M187.770 67.771 C 189.834 68.750,189.216 71.667,186.944 71.667 C 185.133 71.667,184.196 69.617,185.417 68.327 C 186.233 67.464,186.828 67.324,187.770 67.771 M10.958 86.625 C 14.006 86.650,18.994 86.650,22.042 86.625 C 25.090 86.599,22.596 86.579,16.500 86.579 C 10.404 86.579,7.910 86.599,10.958 86.625 M40.708 86.625 C 43.710 86.650,48.623 86.650,51.625 86.625 C 54.627 86.599,52.171 86.579,46.167 86.579 C 40.162 86.579,37.706 86.599,40.708 86.625 M130.471 86.625 C 133.617 86.650,138.717 86.650,141.804 86.625 C 144.891 86.600,142.317 86.579,136.083 86.579 C 129.850 86.579,127.324 86.600,130.471 86.625 M236.554 86.625 C 240.021 86.650,245.646 86.650,249.054 86.625 C 252.462 86.600,249.625 86.579,242.750 86.579 C 235.875 86.579,233.087 86.600,236.554 86.625 M272.875 86.625 C 275.877 86.650,280.790 86.650,283.792 86.625 C 286.794 86.599,284.337 86.579,278.333 86.579 C 272.329 86.579,269.873 86.599,272.875 86.625 M308.458 86.625 C 311.965 86.650,317.702 86.650,321.208 86.625 C 324.715 86.600,321.846 86.579,314.833 86.579 C 307.821 86.579,304.952 86.600,308.458 86.625 " stroke="none" fill="#948c94" fill-rule="evenodd"></path></g></svg>